SplineFontDB: 3.0
FontName: Muli-Bold
FullName: Muli Bold
FamilyName: Muli
Weight: Bold
Copyright: Digitized data Copyright (c) 2011-2014, vernon adams.
Version: 2
ItalicAngle: 0
UnderlinePosition: 0
UnderlineWidth: 0
Ascent: 1638
Descent: 410
UFOAscent: 1560
UFODescent: -556
LayerCount: 2
Layer: 0 0 "Back"  1
Layer: 1 0 "Fore"  0
OS2Version: 0
OS2_WeightWidthSlopeOnly: 0
OS2_UseTypoMetrics: 0
CreationTime: 1393388574
ModificationTime: 1393388574
PfmFamily: 0
TTFWeight: 700
TTFWidth: 5
LineGap: 0
VLineGap: 0
OS2TypoAscent: 2412
OS2TypoAOffset: 0
OS2TypoDescent: -607
OS2TypoDOffset: 0
OS2TypoLinegap: 0
OS2WinAscent: 2412
OS2WinAOffset: 0
OS2WinDescent: 607
OS2WinDOffset: 0
HheadAscent: 2412
HheadAOffset: 0
HheadDescent: -607
HheadDOffset: 0
OS2Vendor: 'NeWT'
Lookup: 258 0 0 "kernHorizontalKerninginLatinloo"  {"kernHorizontalKerninginLatinloo subtable"  } ['kern' ('latn' <'dflt' > ) ]
DEI: 91125
LangName: 1033 "" "" "" "" "" "Version 2" "" "Muli is a trademark of Vernon Adams and may be registered in certain jurisdictions." "newtypography" "Vernon Adams" "" "newtypography.co.uk" "newtypography.co.uk" "Copyright (c) 2014, vernon adams.+AAoACgAA-This Font Software is licensed under the SIL Open Font License, Version 1.1.+AAoA-This license is available with a FAQ at:+AAoA-http://scripts.sil.org/OFL+AAoA" "http://scripts.sil.org/OFL" "" "Muli" "Bold" 
PickledData: "(dp1
S'com.typemytype.robofont.foreground.layerStrokeColor'
p2
(F0.5
F0
F0.5
F0.69999999999999996
tp3
sS'com.schriftgestaltung.fontMasterID'
p4
S'CAA31E91-2985-420A-82BA-6B4D8404D924'
p5
sS'GSDimensionPlugin.Dimensions'
p6
(dp7
S'CAA31E91-2985-420A-82BA-6B4D8404D924'
p8
(dp9
ssS'com.superpolator.editor.generateInfo'
p10
S'Generated with LTR Superpolator version 120823_1018_beta_'
p11
sS'com.typemytype.robofont.b.layerStrokeColor'
p12
(F1
F0.75
F0
F0.69999999999999996
tp13
sS'com.schriftgestaltung.useNiceNames'
p14
I01
sS'com.typemytype.robofont.layerOrder'
p15
(S'b'
tp16
sS'com.typemytype.robofont.segmentType'

StartChar: A
Encoding: 65 65 0
Width: 1458
VWidth: 0
GlyphClass: 2
Flags: W
PickledData: "(dp1
S'org.robofab.postScriptHintData'
p2
(dp3
sS'com.typemytype.robofont.layerData'
p4
(dp5
s."
LayerCount: 2
Fore
SplineSet
524 592 m 257
 914 592 l 257
 850 782 786 971 721 1159 c 257
 656 970 590 781 524 592 c 257
12 0 m 257
 597 1456 l 257
 855 1456 l 257
 1445 0 l 257
 1158 0 l 257
 1017 355 l 257
 429 355 l 257
 291 0 l 257
 12 0 l 257
EndSplineSet
EndChar

StartChar: AE
Encoding: 198 198 1
Width: 2215
VWidth: 0
GlyphClass: 2
Flags: W
PickledData: "(dp1
S'org.robofab.postScriptHintData'
p2
(dp3
sS'com.typemytype.robofont.layerData'
p4
(dp5
S'b'
(dp6
S'name'
p7
S'AE'
p8
sS'lib'
p9
(dp10
sS'unicodes'
p11
(tsS'width'
p12
F2073.5500000000002
sS'contours'
p13
(tsS'components'
p14
(tsS'anchors'
p15
(tsss."
LayerCount: 2
Fore
SplineSet
634 558 m 257
 1101 558 l 257
 1054 1230 l 257
 1020 1230 l 257
 634 558 l 257
19 0 m 257
 886 1456 l 257
 1970 1456 l 257
 1970 1230 l 257
 1313 1230 l 257
 1347 854 l 257
 1968 854 l 257
 1968 634 l 257
 1375 634 l 257
 1414 226 l 257
 1996 226 l 257
 1996 0 l 257
 1148 0 l 257
 1119 355 l 257
 535 355 l 257
 333 0 l 257
 19 0 l 257
EndSplineSet
EndChar

StartChar: B
Encoding: 66 66 18
Width: 1367
VWidth: 0
GlyphClass: 2
Flags: W
PickledData: "(dp1
S'org.robofab.postScriptHintData'
p2
(dp3
sS'com.typemytype.robofont.layerData'
p4
(dp5
S'b'
(dp6
S'name'
p7
S'B'
sS'lib'
p8
(dp9
sS'unicodes'
p10
(tsS'width'
p11
F1346.45
sS'contours'
p12
(tsS'components'
p13
(tsS'anchors'
p14
(tsss."
LayerCount: 2
Fore
SplineSet
444 852 m 257
 661 852 l 258
 787 852 919 896 919 1051 c 256
 919 1203 807 1238 608 1238 c 258
 444 1238 l 257
 444 852 l 257
447 217 m 257
 676 217 l 258
 874 217 983 284 983 422 c 256
 983 595 902 646 670 646 c 258
 447 646 l 257
 447 217 l 257
190 0 m 257
 190 1456 l 257
 593 1456 l 258
 844 1456 1189 1429 1189 1083 c 256
 1189 957 1138 842 996 772 c 257
 1177 724 1256 580 1256 411 c 256
 1256 195 1086 0 721 0 c 258
 190 0 l 257
EndSplineSet
EndChar

StartChar: C
Encoding: 67 67 20
Width: 1436
VWidth: 0
GlyphClass: 2
Flags: W
PickledData: "(dp1
S'org.robofab.postScriptHintData'
p2
(dp3
sS'com.typemytype.robofont.guides'
p4
(tsS'com.typemytype.robofont.layerData'
p5
(dp6
S'b'
(dp7
S'name'
p8
S'C'
sS'lib'
p9
(dp10
sS'unicodes'
p11
(tsS'width'
p12
F1394.1500000000001
sS'contours'
p13
((dp14
S'points'
p15
((dp16
S'segmentType'
p17
S'curve'
p18
sS'x'
F785
sS'smooth'
p19
I01
sS'y'
F-23
s(dp20
S'y'
F-23
sS'x'
F346
sg19
I00
s(dp21
S'y'
F309
sS'x'
F108
sg19
I00
s(dp22
g17
S'curve'
p23
sS'x'
F108
sg19
I01
sS'y'
F713
s(dp24
S'y'
F1125
sS'x'
F108
sg19
I00
s(dp25
S'y'
F1483
sS'x'
F371
sg19
I00
s(dp26
g17
S'curve'
p27
sS'x'
F814
sg19
I01
sS'y'
F1483
s(dp28
S'y'
F1483
sS'x'
F995
sg19
I00
s(dp29
S'y'
F1437
sS'x'
F1144
sg19
I00
s(dp30
g17
S'curve'
p31
sS'x'
F1265
sg19
I00
sS'y'
F1329
s(dp32
g17
S'line'
p33
sS'x'
F1200
sg19
I00
sS'y'
F1219
s(dp34
S'y'
F1295
sS'x'
F1099
sg19
I00
s(dp35
S'y'
F1334
sS'x'
F969
sg19
I00
s(dp36
g17
S'curve'
p37
sS'x'
F833
sg19
I01
sS'y'
F1334
s(dp38
S'y'
F1334
sS'x'
F464
sg19
I00
s(dp39
S'y'
F1022
sS'x'
F291
sg19
I00
s(dp40
g17
S'curve'
p41
sS'x'
F291
sg19
I01
sS'y'
F712
s(dp42
S'y'
F398
sS'x'
F291
sg19
I00
s(dp43
S'y'
F125
sS'x'
F453
sg19
I00
s(dp44
g17
S'curve'
p45
sS'x'
F811
sg19
I01
sS'y'
F125
s(dp46
S'y'
F125
sS'x'
F974
sg19
I00
s(dp47
S'y'
F172
sS'x'
F1134
sg19
I00
s(dp48
g17
S'curve'
p49
sS'x'
F1243
sg19
I00
sS'y'
F268
s(dp50
g17
S'line'
p51
sS'x'
F1301
sg19
I00
sS'y'
F127
s(dp52
S'y'
F28
sS'x'
F1178
sg19
I00
s(dp53
S'y'
F-23
sS'x'
F996
sg19
I00
stp54
stp55
sS'components'
p56
(tsS'anchors'
p57
(tsss."
LayerCount: 2
Fore
SplineSet
835 -22 m 256
 456 -22 106 241 106 727 c 256
 106 1236 469 1483 815 1483 c 256
 981 1483 1148 1446 1301 1326 c 257
 1202 1149 l 257
 1066 1243 948 1264 836 1264 c 256
 590 1264 372 1064 372 730 c 256
 372 402 581 197 852 197 c 256
 980 197 1117 234 1254 344 c 257
 1339 143 l 257
 1182 21 1011 -22 835 -22 c 256
EndSplineSet
EndChar

StartChar: D
Encoding: 68 68 27
Width: 1571
VWidth: 0
GlyphClass: 2
Flags: W
PickledData: "(dp1
S'org.robofab.postScriptHintData'
p2
(dp3
sS'com.typemytype.robofont.layerData'
p4
(dp5
S'b'
(dp6
S'name'
p7
S'D'
sS'lib'
p8
(dp9
sS'unicodes'
p10
(tsS'width'
p11
F1526.5999999999999
sS'contours'
p12
(tsS'components'
p13
(tsS'anchors'
p14
(tsss."
LayerCount: 2
Fore
SplineSet
190 0 m 257
 190 1456 l 257
 596 1456 l 258
 1190 1456 1465 1191 1465 737 c 256
 1465 255 1176 0 637 0 c 258
 190 0 l 257
444 218 m 257
 650 218 l 258
 999 218 1196 394 1196 738 c 256
 1196 1056 1016 1238 619 1238 c 258
 444 1238 l 257
 444 218 l 257
EndSplineSet
EndChar

StartChar: uni007F
Encoding: 127 127 28
Width: 1521
VWidth: 0
GlyphClass: 2
Flags: W
PickledData: "(dp1
S'org.robofab.postScriptHintData'
p2
(dp3
s."
LayerCount: 2
Fore
SplineSet
188 0 m 257
 188 1456 l 257
 1333 1456 l 257
 1333 0 l 257
 188 0 l 257
360 124 m 257
 1161 124 l 257
 1161 1330 l 257
 360 1330 l 257
 360 124 l 257
EndSplineSet
EndChar

StartChar: uni0394
Encoding: 916 916 32
Width: 1502
VWidth: 0
GlyphClass: 2
Flags: W
PickledData: "(dp1
S'org.robofab.postScriptHintData'
p2
(dp3
s."
LayerCount: 2
Fore
SplineSet
322 217 m 257
 1122 217 l 257
 710 1159 l 257
 322 217 l 257
61 0 m 257
 61 219 l 257
 611 1456 l 257
 882 1456 l 257
 1436 234 l 257
 1436 0 l 257
 61 0 l 257
EndSplineSet
EndChar

StartChar: E
Encoding: 69 69 35
Width: 1249
VWidth: 0
GlyphClass: 2
Flags: W
PickledData: "(dp1
S'org.robofab.postScriptHintData'
p2
(dp3
sS'com.typemytype.robofont.layerData'
p4
(dp5
s."
LayerCount: 2
Fore
SplineSet
190 0 m 257
 190 1456 l 257
 1109 1456 l 257
 1109 1238 l 257
 444 1238 l 257
 444 849 l 257
 1073 849 l 257
 1073 630 l 257
 447 630 l 257
 447 218 l 257
 1138 218 l 257
 1138 0 l 257
 190 0 l 257
EndSplineSet
EndChar

StartChar: Eng
Encoding: 330 330 46
Width: 1622
VWidth: 0
GlyphClass: 2
Flags: W
PickledData: "(dp1
S'org.robofab.postScriptHintData'
p2
(dp3
sS'com.typemytype.robofont.layerData'
p4
(dp5
s."
LayerCount: 2
Fore
SplineSet
1428 1456 m 257
 1428 1 l 258
 1428 -347 1206 -474 882 -474 c 257
 882 -279 l 257
 1044 -279 1188 -256 1188 -41 c 258
 1188 98 l 257
 556 947 l 257
 425 1138 l 257
 425 0 l 257
 193 0 l 257
 193 1456 l 257
 460 1456 l 257
 1061 637 l 257
 1188 450 l 257
 1188 1456 l 257
 1428 1456 l 257
EndSplineSet
EndChar

StartChar: Euro
Encoding: 8364 8364 50
Width: 1460
VWidth: 0
GlyphClass: 2
Flags: W
PickledData: "(dp1
S'org.robofab.postScriptHintData'
p2
(dp3
sS'com.typemytype.robofont.layerData'
p4
(dp5
S'b'
(dp6
S'name'
p7
S'Euro'
p8
sS'lib'
p9
(dp10
sS'unicodes'
p11
(tsS'width'
p12
I1190
sS'contours'
p13
(tsS'components'
p14
(tsS'anchors'
p15
(tsss."
LayerCount: 2
Fore
SplineSet
138 504 m 257
 143 616 l 257
 297 616 l 257
 293 652 291 689 291 727 c 256
 291 760 293 793 296 824 c 257
 137 824 l 257
 142 942 l 257
 315 942 l 257
 401 1306 707 1483 1000 1483 c 256
 1166 1483 1333 1446 1486 1326 c 257
 1387 1149 l 257
 1251 1243 1133 1264 1021 1264 c 256
 833 1264 661 1147 591 942 c 257
 1056 942 l 257
 1049 824 l 257
 563 824 l 257
 559 794 557 763 557 730 c 256
 557 690 560 652 566 616 c 257
 1020 616 l 257
 1013 504 l 257
 595 504 l 257
 667 311 835 197 1037 197 c 256
 1165 197 1302 234 1439 344 c 257
 1524 143 l 257
 1367 21 1196 -22 1020 -22 c 256
 704 -22 407 161 318 504 c 257
 138 504 l 257
EndSplineSet
EndChar

StartChar: F
Encoding: 70 70 51
Width: 1145
VWidth: 0
GlyphClass: 2
Flags: W
PickledData: "(dp1
S'org.robofab.postScriptHintData'
p2
(dp3
sS'com.typemytype.robofont.layerData'
p4
(dp5
s."
LayerCount: 2
Fore
SplineSet
190 0 m 257
 190 1456 l 257
 1079 1456 l 257
 1079 1238 l 257
 444 1238 l 257
 444 841 l 257
 1042 841 l 257
 1042 622 l 257
 444 622 l 257
 444 0 l 257
 190 0 l 257
EndSplineSet
EndChar

StartChar: G
Encoding: 71 71 53
Width: 1538
VWidth: 0
GlyphClass: 2
Flags: W
PickledData: "(dp1
S'org.robofab.postScriptHintData'
p2
(dp3
sS'com.typemytype.robofont.layerData'
p4
(dp5
S'b'
(dp6
S'name'
p7
S'G'
sS'lib'
p8
(dp9
sS'unicodes'
p10
(tsS'width'
p11
F1528.2
sS'contours'
p12
((dp13
S'points'
p14
((dp15
S'segmentType'
p16
S'curve'
p17
sS'x'
F841
sS'smooth'
p18
I01
sS'y'
F-23
s(dp19
S'y'
F-23
sS'x'
F361
sg18
I00
s(dp20
S'y'
F267
sS'x'
F108
sg18
I00
s(dp21
g16
S'curve'
p22
sS'x'
F108
sg18
I01
sS'y'
F701
s(dp23
S'y'
F1129
sS'x'
F108
sg18
I00
s(dp24
S'y'
F1483
sS'x'
F382
sg18
I00
s(dp25
g16
S'curve'
p26
sS'x'
F852
sg18
I01
sS'y'
F1483
s(dp27
S'y'
F1483
sS'x'
F1059
sg18
I00
s(dp28
S'y'
F1415
sS'x'
F1233
sg18
I00
s(dp29
g16
S'curve'
p30
sS'x'
F1334
sg18
I00
sS'y'
F1308
s(dp31
g16
S'line'
p32
sS'x'
F1262
sg18
I00
sS'y'
F1196
s(dp33
S'y'
F1291
sS'x'
F1164
sg18
I00
s(dp34
S'y'
F1334
sS'x'
F1034
sg18
I00
s(dp35
g16
S'curve'
p36
sS'x'
F848
sg18
I01
sS'y'
F1334
s(dp37
S'y'
F1334
sS'x'
F477
sg18
I00
s(dp38
S'y'
F1033
sS'x'
F286
sg18
I00
s(dp39
g16
S'curve'
p40
sS'x'
F286
sg18
I01
sS'y'
F714
s(dp41
S'y'
F365
sS'x'
F286
sg18
I00
s(dp42
S'y'
F125
sS'x'
F472
sg18
I00
s(dp43
g16
S'curve'
p44
sS'x'
F855
sg18
I01
sS'y'
F125
s(dp45
S'y'
F125
sS'x'
F968
sg18
I00
s(dp46
S'y'
F143
sS'x'
F1088
sg18
I00
s(dp47
g16
S'curve'
p48
sS'x'
F1184
sg18
I00
sS'y'
F182
s(dp49
g16
S'line'
p50
sS'x'
F1184
sg18
I00
sS'y'
F608
s(dp51
g16
S'line'
p52
sS'x'
F811
sg18
I00
sS'y'
F608
s(dp53
g16
S'line'
p54
sS'x'
F811
sg18
I00
sS'y'
F757
s(dp55
g16
S'line'
p56
sS'x'
F1356
sg18
I00
sS'y'
F757
s(dp57
g16
S'line'
p58
sS'x'
F1356
sg18
I00
sS'y'
F81
s(dp59
S'y'
F6
sS'x'
F1195
sg18
I00
s(dp60
S'y'
F-23
sS'x'
F1012
sg18
I00
stp61
stp62
sS'components'
p63
(tsS'anchors'
p64
(tsss."
LayerCount: 2
Fore
SplineSet
851 -23 m 256
 362 -23 105 267 105 704 c 256
 105 1120 376 1483 877 1483 c 256
 1171 1483 1299 1386 1362 1338 c 257
 1260 1160 l 257
 1198 1205 1083 1264 878 1264 c 256
 528 1264 370 987 370 715 c 256
 370 411 532 194 863 194 c 256
 944 194 1031 208 1112 232 c 257
 1112 576 l 257
 772 576 l 257
 772 793 l 257
 1370 793 l 257
 1370 88 l 257
 1186 6 1019 -23 851 -23 c 256
EndSplineSet
EndChar

StartChar: H
Encoding: 72 72 60
Width: 1572
VWidth: 0
GlyphClass: 2
Flags: W
PickledData: "(dp1
S'org.robofab.postScriptHintData'
p2
(dp3
sS'com.typemytype.robofont.layerData'
p4
(dp5
S'b'
(dp6
S'name'
p7
S'H'
sS'lib'
p8
(dp9
sS'unicodes'
p10
(tsS'width'
p11
F1576.45
sS'contours'
p12
(tsS'components'
p13
(tsS'anchors'
p14
(tsss."
LayerCount: 2
Fore
SplineSet
190 0 m 257
 190 1456 l 257
 444 1456 l 257
 444 857 l 257
 1127 857 l 257
 1127 1456 l 257
 1381 1456 l 257
 1381 0 l 257
 1132 0 l 257
 1132 637 l 257
 449 637 l 257
 449 0 l 257
 190 0 l 257
EndSplineSet
EndChar

StartChar: Hbar
Encoding: 294 294 61
Width: 1572
VWidth: 0
GlyphClass: 2
Flags: W
PickledData: "(dp1
S'org.robofab.postScriptHintData'
p2
(dp3
sS'com.typemytype.robofont.layerData'
p4
(dp5
S'b'
(dp6
S'name'
p7
S'Hbar'
p8
sS'lib'
p9
(dp10
sS'unicodes'
p11
(tsS'width'
p12
F1532.55
sS'contours'
p13
(tsS'components'
p14
(tsS'anchors'
p15
(tsss."
LayerCount: 2
Fore
SplineSet
95 1062 m 257
 95 1213 l 257
 1460 1213 l 257
 1460 1062 l 257
 95 1062 l 257
EndSplineSet
Refer: 60 72 N 1 0 0 1 0 0 2
EndChar

StartChar: I
Encoding: 73 73 63
Width: 586
VWidth: 0
GlyphClass: 2
Flags: W
PickledData: "(dp1
S'org.robofab.postScriptHintData'
p2
(dp3
sS'com.typemytype.robofont.layerData'
p4
(dp5
s."
LayerCount: 2
Fore
SplineSet
160 0 m 257
 160 1456 l 257
 414 1456 l 257
 414 0 l 257
 160 0 l 257
EndSplineSet
EndChar

StartChar: J
Encoding: 74 74 77
Width: 1019
VWidth: 0
GlyphClass: 2
Flags: W
PickledData: "(dp1
S'org.robofab.postScriptHintData'
p2
(dp3
sS'com.typemytype.robofont.layerData'
p4
(dp5
S'b'
(dp6
S'name'
p7
S'J'
sS'lib'
p8
(dp9
sS'unicodes'
p10
(tsS'width'
p11
F731.54999999999995
sS'contours'
p12
(tsS'components'
p13
(tsS'anchors'
p14
(tsss."
LayerCount: 2
Fore
SplineSet
417 -331 m 256
 332 -331 227 -314 96 -267 c 257
 142 -74 l 257
 248 -108 320 -118 371 -118 c 256
 523 -118 576 -27 576 110 c 258
 576 1456 l 257
 830 1456 l 257
 830 122 l 258
 830 -172 675 -331 417 -331 c 256
EndSplineSet
EndChar

StartChar: K
Encoding: 75 75 79
Width: 1351
VWidth: 0
GlyphClass: 2
Flags: W
PickledData: "(dp1
S'org.robofab.postScriptHintData'
p2
(dp3
sS'com.typemytype.robofont.layerData'
p4
(dp5
S'b'
(dp6
S'name'
p7
S'K'
sS'lib'
p8
(dp9
sS'unicodes'
p10
(tsS'width'
p11
F1289.95
sS'contours'
p12
(tsS'components'
p13
(tsS'anchors'
p14
(tsss."
LayerCount: 2
Fore
SplineSet
190 0 m 257
 190 1456 l 257
 444 1456 l 257
 444 820 l 257
 1005 1456 l 257
 1322 1456 l 257
 691 753 l 257
 1371 0 l 257
 1041 0 l 257
 447 651 l 257
 447 0 l 257
 190 0 l 257
EndSplineSet
EndChar

StartChar: L
Encoding: 76 76 82
Width: 1173
VWidth: 0
GlyphClass: 2
Flags: W
PickledData: "(dp1
S'org.robofab.postScriptHintData'
p2
(dp3
sS'com.typemytype.robofont.layerData'
p4
(dp5
s."
AnchorPoint: "caron.alt" 326 1026 basechar 0
LayerCount: 2
Fore
SplineSet
190 0 m 257
 190 1456 l 257
 444 1456 l 257
 444 218 l 257
 1118 218 l 257
 1118 0 l 257
 190 0 l 257
EndSplineSet
EndChar

StartChar: Lslash
Encoding: 321 321 88
Width: 1166
VWidth: 0
GlyphClass: 2
Flags: W
PickledData: "(dp1
S'org.robofab.postScriptHintData'
p2
(dp3
sS'com.typemytype.robofont.layerData'
p4
(dp5
s."
LayerCount: 2
Fore
SplineSet
35 421 m 257
 35 646 l 257
 612 1096 l 257
 612 871 l 257
 35 421 l 257
EndSplineSet
Refer: 82 76 N 1 0 0 1 0 0 2
EndChar

StartChar: M
Encoding: 77 77 89
Width: 1987
VWidth: 0
GlyphClass: 2
Flags: W
PickledData: "(dp1
S'org.robofab.postScriptHintData'
p2
(dp3
sS'com.typemytype.robofont.layerData'
p4
(dp5
S'b'
(dp6
S'name'
p7
S'M'
sS'lib'
p8
(dp9
sS'unicodes'
p10
(tsS'width'
p11
F1905.0999999999999
sS'contours'
p12
(tsS'components'
p13
(tsS'anchors'
p14
(tsss."
LayerCount: 2
Fore
SplineSet
190 0 m 257
 190 1456 l 257
 488 1456 l 257
 658 1079 826 701 997 326 c 257
 1168 699 1332 1079 1499 1456 c 257
 1797 1456 l 257
 1797 0 l 257
 1559 0 l 257
 1559 1040 l 257
 1400 696 1246 347 1090 0 c 257
 903 0 l 257
 747 341 597 688 435 1023 c 257
 435 0 l 257
 190 0 l 257
EndSplineSet
EndChar

StartChar: N
Encoding: 78 78 91
Width: 1630
VWidth: 0
GlyphClass: 2
Flags: W
PickledData: "(dp1
S'org.robofab.postScriptHintData'
p2
(dp3
sS'com.typemytype.robofont.layerData'
p4
(dp5
S'b'
(dp6
S'name'
p7
S'N'
sS'lib'
p8
(dp9
sS'unicodes'
p10
(tsS'width'
p11
F1578.1500000000001
sS'contours'
p12
(tsS'components'
p13
(tsS'anchors'
p14
(tsss."
LayerCount: 2
Fore
SplineSet
190 0 m 257
 190 1456 l 257
 459 1456 l 257
 705 1099 951 740 1198 384 c 257
 1198 1456 l 257
 1440 1456 l 257
 1440 0 l 257
 1170 0 l 257
 922 358 675 718 425 1074 c 257
 425 0 l 257
 190 0 l 257
EndSplineSet
EndChar

StartChar: O
Encoding: 79 79 98
Width: 1671
VWidth: 0
GlyphClass: 2
Flags: W
PickledData: "(dp1
S'org.robofab.postScriptHintData'
p2
(dp3
sS'com.typemytype.robofont.guides'
p4
((dp5
S'y'
I727
sS'x'
I231
sS'magnetic'
p6
I5
sS'angle'
p7
I0
sS'isGlobal'
p8
I00
s(dp9
S'y'
I1254
sS'x'
I804
sg6
I5
sg7
F90
sg8
I00
stp10
sS'com.typemytype.robofont.layerData'
p11
(dp12
S'b'
(dp13
S'name'
p14
S'O'
sS'lib'
p15
(dp16
sS'unicodes'
p17
(tsS'width'
p18
F1630.8
sS'contours'
p19
(tsS'components'
p20
(tsS'anchors'
p21
(tsss."
LayerCount: 2
Fore
SplineSet
840 -23 m 256
 383 -23 106 275 106 735 c 256
 106 1181 382 1483 843 1483 c 256
 1287 1483 1565 1184 1565 735 c 256
 1565 275 1296 -23 840 -23 c 256
834 194 m 256
 1135 194 1289 392 1289 735 c 256
 1289 1066 1134 1266 838 1266 c 256
 541 1266 380 1068 380 735 c 256
 380 391 532 194 834 194 c 256
EndSplineSet
EndChar

StartChar: OE
Encoding: 338 338 99
Width: 2057
VWidth: 0
GlyphClass: 2
Flags: W
PickledData: "(dp1
S'org.robofab.postScriptHintData'
p2
(dp3
sS'com.typemytype.robofont.layerData'
p4
(dp5
S'b'
(dp6
S'name'
p7
S'OE'
p8
sS'lib'
p9
(dp10
sS'unicodes'
p11
(tsS'width'
p12
F2049.1500000000001
sS'contours'
p13
(tsS'components'
p14
(tsS'anchors'
p15
(tsss."
LayerCount: 2
Fore
SplineSet
822 174 m 258
 825 174 l 258
 1001 174 1072 240 1082 251 c 257
 1082 1191 l 257
 1042 1223 970 1268 840 1268 c 256
 821 1268 801 1267 780 1265 c 256
 583 1244 380 1107 380 725 c 256
 380 362 559 175 822 174 c 258
1082 251 m 257
 1083 252 1083 252 1082 251 c 257
1082 1398 m 257
 1082 1456 l 257
 1918 1456 l 257
 1918 1239 l 257
 1335 1239 l 257
 1335 854 l 257
 1881 854 l 257
 1881 636 l 257
 1338 636 l 257
 1338 217 l 257
 1946 217 l 257
 1946 0 l 257
 1082 0 l 257
 1082 62 l 257
 1076 56 979 -19 818 -24 c 257
 790 -24 l 258
 420 -24 106 213 106 731 c 256
 106 1199 407 1466 759 1482 c 256
 771 1482 782 1483 793 1483 c 256
 995 1483 1073 1408 1082 1398 c 257
EndSplineSet
EndChar

StartChar: uni03A9
Encoding: 937 937 111
Width: 1603
VWidth: 0
GlyphClass: 2
Flags: W
PickledData: "(dp1
S'org.robofab.postScriptHintData'
p2
(dp3
sS'com.typemytype.robofont.layerData'
p4
(dp5
s."
LayerCount: 2
Fore
SplineSet
70 0 m 257
 48 211 l 257
 365 208 l 257
 162 365 92 548 92 811 c 256
 92 1219 390 1479 796 1479 c 256
 1196 1479 1509 1231 1509 814 c 256
 1509 554 1448 368 1239 208 c 257
 1566 211 l 257
 1541 0 l 257
 915 0 l 257
 915 170 l 257
 1101 287 1243 496 1243 769 c 256
 1243 928 1184 1274 798 1274 c 256
 401 1274 358 916 358 768 c 256
 358 494 503 289 688 170 c 257
 688 0 l 257
 70 0 l 257
EndSplineSet
EndChar

StartChar: Oslash
Encoding: 216 216 113
Width: 1671
VWidth: 0
GlyphClass: 2
Flags: W
PickledData: "(dp1
S'org.robofab.postScriptHintData'
p2
(dp3
sS'com.typemytype.robofont.layerData'
p4
(dp5
S'b'
(dp6
S'name'
p7
S'Oslash'
p8
sS'lib'
p9
(dp10
sS'unicodes'
p11
(tsS'width'
p12
F1663
sS'contours'
p13
(tsS'components'
p14
(tsS'anchors'
p15
(tsss."
LayerCount: 2
Fore
SplineSet
840 -23 m 256
 1296 -23 1565 275 1565 735 c 256
 1565 1021 1452 1246 1255 1372 c 257
 1336 1523 l 257
 1220 1575 l 257
 1142 1430 l 257
 1054 1465 954 1483 843 1483 c 256
 382 1483 106 1181 106 735 c 256
 106 440 220 211 423 85 c 257
 337 -75 l 257
 452 -128 l 257
 536 29 l 257
 625 -5 727 -23 840 -23 c 256
1141 1160 m 257
 1239 1069 1289 923 1289 735 c 256
 1289 392 1135 194 834 194 c 256
 761 194 697 205 642 227 c 257
 1141 1160 l 257
1035 1229 m 257
 534 293 l 257
 431 384 380 535 380 735 c 256
 380 1068 541 1266 838 1266 c 256
 913 1266 979 1253 1035 1229 c 257
EndSplineSet
EndChar

StartChar: P
Encoding: 80 80 116
Width: 1299
VWidth: 0
GlyphClass: 2
Flags: W
PickledData: "(dp1
S'org.robofab.postScriptHintData'
p2
(dp3
sS'com.typemytype.robofont.layerData'
p4
(dp5
S'b'
(dp6
S'name'
p7
S'P'
sS'lib'
p8
(dp9
sS'unicodes'
p10
(tsS'width'
p11
F1252.6500000000001
sS'contours'
p12
((dp13
S'points'
p14
((dp15
S'segmentType'
p16
S'line'
p17
sS'x'
F360
sS'smooth'
p18
I00
sS'y'
F828
s(dp19
g16
S'line'
p20
sS'x'
F580
sg18
I01
sS'y'
F828
s(dp21
S'y'
F828
sS'x'
F775
sg18
I00
s(dp22
S'y'
F881
sS'x'
F973
sg18
I00
s(dp23
g16
S'curve'
p24
sS'x'
F973
sg18
I01
sS'y'
F1077
s(dp25
S'y'
F1272
sS'x'
F973
sg18
I00
s(dp26
S'y'
F1308
sS'x'
F807
sg18
I00
s(dp27
g16
S'curve'
p28
sS'x'
F592
sg18
I01
sS'y'
F1308
s(dp29
g16
S'line'
p30
sS'x'
F360
sg18
I00
sS'y'
F1308
stp31
s(dp32
g14
((dp33
g16
S'line'
p34
sS'x'
F360
sg18
I00
sS'y'
F148
s(dp35
g16
S'line'
p36
sS'x'
F667
sg18
I01
sS'y'
F148
s(dp37
S'y'
F148
sS'x'
F906
sg18
I00
s(dp38
S'y'
F230
sS'x'
F1041
sg18
I00
s(dp39
g16
S'curve'
p40
sS'x'
F1041
sg18
I01
sS'y'
F406
s(dp41
S'y'
F617
sS'x'
F1041
sg18
I00
s(dp42
S'y'
F680
sS'x'
F889
sg18
I00
s(dp43
g16
S'curve'
p44
sS'x'
F610
sg18
I01
sS'y'
F680
s(dp45
g16
S'line'
p46
sS'x'
F360
sg18
I00
sS'y'
F680
stp47
s(dp48
g14
((dp49
g16
S'line'
p50
sS'x'
F188
sg18
I00
sS'y'
F0
s(dp51
g16
S'line'
p52
sS'x'
F188
sg18
I00
sS'y'
F1456
s(dp53
g16
S'line'
p54
sS'x'
F502
sg18
I01
sS'y'
F1456
s(dp55
S'y'
F1456
sS'x'
F765
sg18
I00
s(dp56
S'y'
F1443
sS'x'
F1154
sg18
I00
s(dp57
g16
S'curve'
p58
sS'x'
F1154
sg18
I01
sS'y'
F1105
s(dp59
S'y'
F944
sS'x'
F1154
sg18
I00
s(dp60
S'y'
F814
sS'x'
F1045
sg18
I00
s(dp61
g16
S'curve'
p62
sS'x'
F889
sg18
I00
sS'y'
F769
s(dp63
S'y'
F734
sS'x'
F1086
sg18
I00
s(dp64
S'y'
F605
sS'x'
F1223
sg18
I00
s(dp65
g16
S'curve'
p66
sS'x'
F1223
sg18
I01
sS'y'
F403
s(dp67
S'y'
F189
sS'x'
F1223
sg18
I00
s(dp68
S'y'
F0
sS'x'
F1059
sg18
I00
s(dp69
g16
S'curve'
p70
sS'x'
F739
sg18
I01
sS'y'
F0
stp71
stp72
sS'components'
p73
(tsS'anchors'
p74
(tsss."
LayerCount: 2
Fore
SplineSet
444 845 m 257
 662 845 l 258
 842 845 964 879 964 1039 c 256
 964 1235 825 1235 615 1235 c 258
 444 1235 l 257
 444 845 l 257
190 0 m 257
 190 1456 l 257
 605 1456 l 258
 950 1456 1231 1425 1231 1041 c 256
 1231 724 1020 628 666 628 c 258
 444 628 l 257
 444 0 l 257
 190 0 l 257
EndSplineSet
EndChar

StartChar: Q
Encoding: 81 81 118
Width: 1671
VWidth: 0
GlyphClass: 2
Flags: W
PickledData: "(dp1
S'org.robofab.postScriptHintData'
p2
(dp3
sS'com.typemytype.robofont.layerData'
p4
(dp5
S'b'
(dp6
S'name'
p7
S'Q'
sS'lib'
p8
(dp9
sS'unicodes'
p10
(tsS'width'
p11
F1628.2
sS'contours'
p12
(tsS'components'
p13
(tsS'anchors'
p14
(tsss."
LayerCount: 2
Fore
SplineSet
834 194 m 256
 532 194 380 391 380 735 c 256
 380 1068 541 1266 838 1266 c 256
 1134 1266 1289 1066 1289 735 c 256
 1289 392 1135 194 834 194 c 256
1261 -447 m 257
 1400 -297 l 257
 1400 -297 1245 -123 1150 32 c 257
 1416 138 1565 392 1565 735 c 256
 1565 1184 1287 1483 843 1483 c 256
 382 1483 106 1181 106 735 c 256
 106 275 383 -23 840 -23 c 256
 871 -23 901 -22 931 -19 c 257
 1066 -244 1261 -447 1261 -447 c 257
EndSplineSet
EndChar

StartChar: R
Encoding: 82 82 119
Width: 1388
VWidth: 0
GlyphClass: 2
Flags: W
PickledData: "(dp1
S'org.robofab.postScriptHintData'
p2
(dp3
sS'com.typemytype.robofont.guides'
p4
(tsS'com.typemytype.robofont.layerData'
p5
(dp6
S'b'
(dp7
S'name'
p8
S'R'
sS'lib'
p9
(dp10
sS'unicodes'
p11
(tsS'width'
p12
F1341
sS'contours'
p13
((dp14
S'points'
p15
((dp16
S'segmentType'
p17
S'line'
p18
sS'x'
F360
sS'smooth'
p19
I00
sS'y'
F799
s(dp20
g17
S'line'
p21
sS'x'
F615
sg19
I01
sS'y'
F799
s(dp22
S'y'
F799
sS'x'
F795
sg19
I00
s(dp23
S'y'
F854
sS'x'
F932
sg19
I00
s(dp24
g17
S'curve'
p25
sS'x'
F932
sg19
I01
sS'y'
F1058
s(dp26
S'y'
F1259
sS'x'
F932
sg19
I00
s(dp27
S'y'
F1308
sS'x'
F833
sg19
I00
s(dp28
g17
S'curve'
p29
sS'x'
F626
sg19
I01
sS'y'
F1308
s(dp30
g17
S'line'
p31
sS'x'
F360
sg19
I00
sS'y'
F1308
stp32
s(dp33
g15
((dp34
g17
S'line'
p35
sS'x'
F188
sg19
I00
sS'y'
F0
s(dp36
g17
S'line'
p37
sS'x'
F188
sg19
I00
sS'y'
F1456
s(dp38
g17
S'line'
p39
sS'x'
F533
sg19
I01
sS'y'
F1456
s(dp40
S'y'
F1456
sS'x'
F771
sg19
I00
s(dp41
S'y'
F1452
sS'x'
F1114
sg19
I00
s(dp42
g17
S'curve'
p43
sS'x'
F1114
sg19
I01
sS'y'
F1074
s(dp44
S'y'
F890
sS'x'
F1114
sg19
I00
s(dp45
S'y'
F762
sS'x'
F1035
sg19
I00
s(dp46
g17
S'curve'
p47
sS'x'
F847
sg19
I00
sS'y'
F715
s(dp48
g17
S'line'
p49
sS'x'
F848
sg19
I00
sS'y'
F715
s(dp50
S'y'
F662
sS'x'
F1012
sg19
I00
s(dp51
S'y'
F510
sS'x'
F1039
sg19
I00
s(dp52
g17
S'curve'
p53
sS'x'
F1159
sg19
I01
sS'y'
F214
s(dp54
g17
S'line'
p55
sS'x'
F1246
sg19
I00
sS'y'
F0
s(dp56
g17
S'line'
p57
sS'x'
F1061
sg19
I00
sS'y'
F0
s(dp58
g17
S'line'
p59
sS'x'
F896
sg19
I01
sS'y'
F419
s(dp60
S'y'
F600
sS'x'
F825
sg19
I00
s(dp61
S'y'
F652
sS'x'
F797
sg19
I00
s(dp62
g17
S'curve'
p63
sS'x'
F619
sg19
I01
sS'y'
F652
s(dp64
g17
S'line'
p65
sS'x'
F360
sg19
I00
sS'y'
F652
s(dp66
g17
S'line'
p67
sS'x'
F360
sg19
I00
sS'y'
F0
stp68
stp69
sS'components'
p70
(tsS'anchors'
p71
(tsss."
LayerCount: 2
Fore
SplineSet
441 831 m 257
 684 831 l 258
 833 831 956 876 956 1042 c 256
 956 1202 876 1238 711 1238 c 258
 441 1238 l 257
 441 831 l 257
190 0 m 257
 190 1456 l 257
 715 1456 l 258
 1016 1456 1224 1377 1224 1054 c 256
 1224 902 1138 756 931 709 c 257
 1004 668 1074 605 1124 481 c 258
 1321 0 l 257
 1046 0 l 257
 879 433 l 258
 825 574 776 616 645 616 c 258
 444 616 l 257
 444 0 l 257
 190 0 l 257
EndSplineSet
EndChar

StartChar: S
Encoding: 83 83 125
Width: 1256
VWidth: 0
GlyphClass: 2
Flags: W
PickledData: "(dp1
S'org.robofab.postScriptHintData'
p2
(dp3
sS'com.typemytype.robofont.layerData'
p4
(dp5
S'b'
(dp6
S'name'
p7
S'S'
sS'lib'
p8
(dp9
sS'unicodes'
p10
(tsS'width'
p11
F1211
sS'contours'
p12
((dp13
S'points'
p14
((dp15
S'segmentType'
p16
S'curve'
p17
sS'x'
F596
sS'smooth'
p18
I01
sS'y'
F-23
s(dp19
S'y'
F-23
sS'x'
F321
sg18
I00
s(dp20
S'y'
F120
sS'x'
F158
sg18
I00
s(dp21
g16
S'curve'
p22
sS'x'
F140
sg18
I00
sS'y'
F141
s(dp23
g16
S'line'
p24
sS'x'
F219
sg18
I00
sS'y'
F271
s(dp25
S'y'
F243
sS'x'
F256
sg18
I00
s(dp26
S'y'
F125
sS'x'
F393
sg18
I00
s(dp27
g16
S'curve'
p28
sS'x'
F595
sg18
I01
sS'y'
F125
s(dp29
S'y'
F125
sS'x'
F797
sg18
I00
s(dp30
S'y'
F204
sS'x'
F898
sg18
I00
s(dp31
g16
S'curve'
p32
sS'x'
F898
sg18
I01
sS'y'
F360
s(dp33
S'y'
F536
sS'x'
F898
sg18
I00
s(dp34
S'y'
F601
sS'x'
F709
sg18
I00
s(dp35
g16
S'curve'
p36
sS'x'
F521
sg18
I01
sS'y'
F681
s(dp37
S'y'
F761
sS'x'
F333
sg18
I00
s(dp38
S'y'
F857
sS'x'
F145
sg18
I00
s(dp39
g16
S'curve'
p40
sS'x'
F145
sg18
I01
sS'y'
F1095
s(dp41
S'y'
F1350
sS'x'
F145
sg18
I00
s(dp42
S'y'
F1483
sS'x'
F357
sg18
I00
s(dp43
g16
S'curve'
p44
sS'x'
F620
sg18
I01
sS'y'
F1483
s(dp45
S'y'
F1483
sS'x'
F891
sg18
I00
s(dp46
S'y'
F1362
sS'x'
F1009
sg18
I00
s(dp47
g16
S'curve'
p48
sS'x'
F1034
sg18
I00
sS'y'
F1335
s(dp49
g16
S'line'
p50
sS'x'
F951
sg18
I00
sS'y'
F1217
s(dp51
S'y'
F1242
sS'x'
F921
sg18
I00
s(dp52
S'y'
F1334
sS'x'
F819
sg18
I00
s(dp53
g16
S'curve'
p54
sS'x'
F640
sg18
I01
sS'y'
F1334
s(dp55
S'y'
F1334
sS'x'
F478
sg18
I00
s(dp56
S'y'
F1270
sS'x'
F328
sg18
I00
s(dp57
g16
S'curve'
p58
sS'x'
F328
sg18
I01
sS'y'
F1105
s(dp59
S'y'
F934
sS'x'
F328
sg18
I00
s(dp60
S'y'
F868
sS'x'
F515
sg18
I00
s(dp61
g16
S'curve'
p62
sS'x'
F703
sg18
I01
sS'y'
F785
s(dp63
S'y'
F702
sS'x'
F891
sg18
I00
s(dp64
S'y'
F602
sS'x'
F1078
sg18
I00
s(dp65
g16
S'curve'
p66
sS'x'
F1078
sg18
I01
sS'y'
F364
s(dp67
S'y'
F78
sS'x'
F1078
sg18
I00
s(dp68
S'y'
F-23
sS'x'
F868
sg18
I00
stp69
stp70
sS'components'
p71
(tsS'anchors'
p72
(tsss."
LayerCount: 2
Fore
SplineSet
623 -23 m 256
 429 -23 224 36 115 143 c 257
 223 325 l 257
 320 249 496 194 607 194 c 256
 787 194 871 260 871 396 c 256
 871 491 852 540 664 608 c 256
 604 629 524 653 458 676 c 256
 228 763 116 869 116 1087 c 256
 116 1350 336 1483 619 1483 c 256
 888 1483 1003 1433 1126 1315 c 257
 996 1147 l 257
 888 1250 753 1264 655 1264 c 256
 508 1264 387 1216 387 1098 c 256
 387 996 413 951 600 885 c 256
 665 862 754 836 823 810 c 256
 1059 716 1141 611 1141 391 c 256
 1141 88 889 -23 623 -23 c 256
EndSplineSet
EndChar

StartChar: T
Encoding: 84 84 132
Width: 1181
VWidth: 0
GlyphClass: 2
Flags: W
PickledData: "(dp1
S'org.robofab.postScriptHintData'
p2
(dp3
sS'com.typemytype.robofont.layerData'
p4
(dp5
s."
LayerCount: 2
Fore
SplineSet
460 0 m 257
 460 1238 l 257
 11 1238 l 257
 11 1456 l 257
 1170 1456 l 257
 1170 1238 l 257
 714 1238 l 257
 714 0 l 257
 460 0 l 257
EndSplineSet
EndChar

StartChar: Thorn
Encoding: 222 222 137
Width: 1300
VWidth: 0
GlyphClass: 2
Flags: W
PickledData: "(dp1
S'org.robofab.postScriptHintData'
p2
(dp3
sS'com.typemytype.robofont.layerData'
p4
(dp5
s."
LayerCount: 2
Fore
SplineSet
440 545 m 257
 661 545 l 258
 840 545 948 614 948 774 c 256
 948 963 820 1007 612 1007 c 258
 440 1007 l 257
 440 545 l 257
190 0 m 257
 190 1456 l 257
 443 1456 l 257
 443 1223 l 257
 600 1223 l 258
 944 1223 1221 1146 1221 773 c 256
 1221 460 938 326 620 326 c 258
 440 326 l 257
 440 0 l 257
 190 0 l 257
EndSplineSet
EndChar

StartChar: U
Encoding: 85 85 138
Width: 1509
VWidth: 0
GlyphClass: 2
Flags: W
PickledData: "(dp1
S'org.robofab.postScriptHintData'
p2
(dp3
sS'com.typemytype.robofont.layerData'
p4
(dp5
S'b'
(dp6
S'name'
p7
S'U'
sS'lib'
p8
(dp9
sS'unicodes'
p10
(tsS'width'
p11
F1496.9000000000001
sS'contours'
p12
(tsS'components'
p13
(tsS'anchors'
p14
(tsss."
LayerCount: 2
Fore
SplineSet
755 -23 m 256
 273 -23 164 269 164 599 c 258
 164 1456 l 257
 418 1456 l 257
 418 588 l 258
 418 280 566 194 754 194 c 256
 946 194 1091 281 1091 589 c 258
 1091 1456 l 257
 1345 1456 l 257
 1345 598 l 258
 1345 273 1244 -23 755 -23 c 256
EndSplineSet
EndChar

StartChar: V
Encoding: 86 86 152
Width: 1393
VWidth: 0
GlyphClass: 2
Flags: W
PickledData: "(dp1
S'org.robofab.postScriptHintData'
p2
(dp3
sS'com.typemytype.robofont.layerData'
p4
(dp5
S'b'
(dp6
S'name'
p7
S'V'
sS'lib'
p8
(dp9
sS'unicodes'
p10
(tsS'width'
p11
F1320.1500000000001
sS'contours'
p12
(tsS'components'
p13
(tsS'anchors'
p14
(tsss."
LayerCount: 2
Fore
SplineSet
571 0 m 257
 17 1456 l 257
 302 1456 l 257
 436 1082 565 703 703 333 c 257
 839 707 974 1082 1109 1456 c 257
 1376 1456 l 257
 823 0 l 257
 571 0 l 257
EndSplineSet
EndChar

StartChar: W
Encoding: 87 87 153
Width: 2096
VWidth: 0
GlyphClass: 2
Flags: W
PickledData: "(dp1
S'org.robofab.postScriptHintData'
p2
(dp3
sS'com.typemytype.robofont.layerData'
p4
(dp5
S'b'
(dp6
S'name'
p7
S'W'
sS'lib'
p8
(dp9
sS'unicodes'
p10
(tsS'width'
p11
F1988.8499999999999
sS'contours'
p12
(tsS'components'
p13
(tsS'anchors'
p14
(tsss."
LayerCount: 2
Fore
SplineSet
428 0 m 257
 12 1456 l 257
 282 1456 l 257
 383 1073 488 694 583 306 c 257
 688 701 815 1074 933 1456 c 257
 1175 1456 l 257
 1435 642 l 257
 1535 301 l 257
 1626 691 1726 1072 1822 1456 c 257
 2084 1456 l 257
 1678 0 l 257
 1387 0 l 257
 1047 1105 l 257
 715 0 l 257
 428 0 l 257
EndSplineSet
EndChar

StartChar: X
Encoding: 88 88 158
Width: 1407
VWidth: 0
GlyphClass: 2
Flags: W
PickledData: "(dp1
S'org.robofab.postScriptHintData'
p2
(dp3
sS'com.typemytype.robofont.layerData'
p4
(dp5
S'b'
(dp6
S'name'
p7
S'X'
sS'lib'
p8
(dp9
sS'unicodes'
p10
(tsS'width'
p11
F1257.7
sS'contours'
p12
(tsS'components'
p13
(tsS'anchors'
p14
(tsss."
LayerCount: 2
Fore
SplineSet
22 0 m 257
 557 736 l 257
 60 1456 l 257
 377 1456 l 257
 717 952 l 257
 1076 1456 l 257
 1371 1456 l 257
 863 747 l 257
 1381 0 l 257
 1065 0 l 257
 702 532 l 257
 326 0 l 257
 22 0 l 257
EndSplineSet
EndChar

StartChar: Y
Encoding: 89 89 159
Width: 1280
VWidth: 0
GlyphClass: 2
Flags: W
PickledData: "(dp1
S'org.robofab.postScriptHintData'
p2
(dp3
sS'com.typemytype.robofont.layerData'
p4
(dp5
S'b'
(dp6
S'name'
p7
S'Y'
sS'lib'
p8
(dp9
sS'unicodes'
p10
(tsS'width'
p11
F1225.45
sS'contours'
p12
(tsS'components'
p13
(tsS'anchors'
p14
(tsss."
LayerCount: 2
Fore
SplineSet
505 0 m 257
 505 563 l 257
 -14 1456 l 257
 275 1456 l 257
 636 789 l 257
 994 1456 l 257
 1290 1456 l 257
 759 564 l 257
 759 0 l 257
 505 0 l 257
EndSplineSet
EndChar

StartChar: Z
Encoding: 90 90 166
Width: 1202
VWidth: 0
GlyphClass: 2
Flags: W
PickledData: "(dp1
S'org.robofab.postScriptHintData'
p2
(dp3
sS'com.typemytype.robofont.layerData'
p4
(dp5
S'b'
(dp6
S'name'
p7
S'Z'
sS'lib'
p8
(dp9
sS'unicodes'
p10
(tsS'width'
p11
F1179.45
sS'contours'
p12
(tsS'components'
p13
(tsS'anchors'
p14
(tsss."
LayerCount: 2
Fore
SplineSet
71 0 m 257
 71 136 l 257
 760 1238 l 257
 97 1238 l 257
 97 1456 l 257
 1111 1456 l 257
 1111 1324 l 257
 418 218 l 257
 1110 218 l 257
 1110 0 l 257
 71 0 l 257
EndSplineSet
EndChar

StartChar: a
Encoding: 97 97 170
Width: 1291
VWidth: 0
GlyphClass: 2
Flags: W
PickledData: "(dp1
S'org.robofab.postScriptHintData'
p2
(dp3
sS'com.typemytype.robofont.layerData'
p4
(dp5
S'b'
(dp6
S'name'
p7
S'a'
sS'lib'
p8
(dp9
sS'unicodes'
p10
(tsS'width'
p11
I1268
sS'contours'
p12
((dp13
S'points'
p14
((dp15
S'segmentType'
p16
S'curve'
p17
sS'x'
F595
sS'smooth'
p18
I01
sS'y'
F-22
s(dp19
S'y'
F-22
sS'x'
F262
sg18
I00
s(dp20
S'y'
F221
sS'x'
F100
sg18
I00
s(dp21
g16
S'curve'
p22
sS'x'
F100
sg18
I01
sS'y'
F518
s(dp23
S'y'
F824
sS'x'
F100
sg18
I00
s(dp24
S'y'
F1052
sS'x'
F287
sg18
I00
s(dp25
g16
S'curve'
p26
sS'x'
F603
sg18
I01
sS'y'
F1052
s(dp27
S'y'
F1052
sS'x'
F816
sg18
I00
s(dp28
S'y'
F903
sS'x'
F905
sg18
I00
s(dp29
g16
S'curve'
p30
sS'x'
F928
sg18
I00
sS'y'
F847
s(dp31
g16
S'line'
p32
sS'x'
F928
sg18
I00
sS'y'
F1026
s(dp33
g16
S'line'
p34
sS'x'
F1092
sg18
I00
sS'y'
F1026
s(dp35
g16
S'line'
p36
sS'x'
F1092
sg18
I00
sS'y'
F0
s(dp37
g16
S'line'
p38
sS'x'
F928
sg18
I00
sS'y'
F0
s(dp39
g16
S'line'
p40
sS'x'
F928
sg18
I00
sS'y'
F185
s(dp41
S'y'
F82
sS'x'
F881
sg18
I00
s(dp42
S'y'
F-22
sS'x'
F769
sg18
I00
stp43
s(dp44
g14
((dp45
g16
S'curve'
p46
sS'x'
F608
sg18
I01
sS'y'
F918
s(dp47
S'y'
F918
sS'x'
F359
sg18
I00
s(dp48
S'y'
F725
sS'x'
F270
sg18
I00
s(dp49
g16
S'curve'
p50
sS'x'
F270
sg18
I01
sS'y'
F516
s(dp51
S'y'
F308
sS'x'
F270
sg18
I00
s(dp52
S'y'
F112
sS'x'
F364
sg18
I00
s(dp53
g16
S'curve'
p54
sS'x'
F609
sg18
I01
sS'y'
F112
s(dp55
S'y'
F112
sS'x'
F813
sg18
I00
s(dp56
S'y'
F277
sS'x'
F934
sg18
I00
s(dp57
g16
S'curve'
p58
sS'x'
F934
sg18
I01
sS'y'
F526
s(dp59
S'y'
F734
sS'x'
F934
sg18
I00
s(dp60
S'y'
F918
sS'x'
F826
sg18
I00
stp61
stp62
sS'components'
p63
(tsS'anchors'
p64
(tsss."
LayerCount: 2
Fore
SplineSet
644 177 m 256
 848 177 919 325 919 513 c 256
 919 714 834 851 639 851 c 256
 450 851 354 715 354 515 c 256
 354 318 447 177 644 177 c 256
613 -23 m 256
 267 -23 108 241 108 502 c 256
 108 780 272 1052 625 1052 c 256
 763 1052 850 999 911 917 c 257
 911 1026 l 257
 1154 1026 l 257
 1154 0 l 257
 905 0 l 257
 905 140 l 257
 848 57 753 -23 613 -23 c 256
EndSplineSet
EndChar

StartChar: acute
Encoding: 180 180 175
Width: 607
VWidth: 0
GlyphClass: 2
Flags: W
PickledData: "(dp1
S'org.robofab.postScriptHintData'
p2
(dp3
s."
LayerCount: 2
Fore
SplineSet
39 1166 m 257
 303 1456 l 257
 621 1456 l 257
 267 1166 l 257
 39 1166 l 257
EndSplineSet
EndChar

StartChar: ae
Encoding: 230 230 179
Width: 1776
VWidth: 0
GlyphClass: 2
Flags: W
PickledData: "(dp1
S'org.robofab.postScriptHintData'
p2
(dp3
sS'com.typemytype.robofont.layerData'
p4
(dp5
S'b'
(dp6
S'name'
p7
S'ae'
p8
sS'lib'
p9
(dp10
sS'unicodes'
p11
(tsS'width'
p12
F1790.05
sS'contours'
p13
(tsS'components'
p14
((dp15
S'transformation'
p16
(I1
I0
I0
I1
I642
I0
tp17
sS'baseGlyph'
p18
S'e'
stp19
sS'anchors'
p20
(tsss."
LayerCount: 2
Fore
SplineSet
979 632 m 257
 1441 632 l 257
 1440 655 l 257
 1436 802 1325 872 1227 872 c 256
 1091 872 1012 763 979 632 c 257
481 177 m 256
 669 177 732 332 735 467 c 257
 635 467 l 258
 471 467 311 427 311 304 c 256
 311 212 390 177 481 177 c 256
474 -22 m 256
 231 -22 70 89 70 294 c 256
 70 562 269 638 695 638 c 258
 736 638 l 257
 734 765 656 859 509 859 c 256
 446 859 363 845 223 778 c 257
 151 942 l 257
 199 971 332 1052 564 1052 c 256
 663 1052 815 992 881 864 c 257
 946 989 1108 1052 1229 1052 c 258
 1232 1052 l 258
 1539 1050 1658 809 1658 519 c 256
 1658 494 1653 467 1653 467 c 257
 976 467 l 257
 976 448 l 257
 995 253 1096 177 1254 177 c 258
 1263 177 l 257
 1427 181 1577 289 1577 289 c 257
 1644 108 l 257
 1644 108 1477 -21 1255 -23 c 258
 1243 -23 l 258
 1065 -23 931 22 857 172 c 257
 784 25 616 -22 474 -22 c 256
EndSplineSet
EndChar

StartChar: ampersand
Encoding: 38 38 185
Width: 1587
VWidth: 0
GlyphClass: 2
Flags: W
PickledData: "(dp1
S'org.robofab.postScriptHintData'
p2
(dp3
sS'com.typemytype.robofont.layerData'
p4
(dp5
S'b'
(dp6
S'name'
p7
S'ampersand'
p8
sS'lib'
p9
(dp10
sS'unicodes'
p11
(tsS'width'
p12
F1539.95
sS'contours'
p13
(tsS'components'
p14
(tsS'anchors'
p15
(tsss."
LayerCount: 2
Fore
SplineSet
612 960 m 257
 697 1014 766 1074 766 1153 c 256
 766 1238 700 1266 643 1266 c 256
 572 1266 519 1232 519 1150 c 256
 519 1079 553 1020 612 960 c 257
629 186 m 256
 757 186 849 244 925 314 c 257
 567 698 l 257
 457 635 360 559 360 423 c 256
 360 285 475 186 629 186 c 256
628 -28 m 256
 337 -28 113 139 113 422 c 256
 113 636 258 756 427 856 c 257
 333 960 274 1037 274 1155 c 256
 274 1364 437 1470 632 1470 c 256
 820 1470 1007 1373 1007 1163 c 256
 1007 1014 893 896 759 809 c 257
 1057 483 l 257
 1130 620 1158 775 1158 944 c 257
 1386 895 l 257
 1387 688 1321 462 1217 304 c 257
 1323 192 1433 159 1530 127 c 257
 1369 -19 l 257
 1233 4 1182 40 1074 155 c 257
 967 56 815 -28 628 -28 c 256
EndSplineSet
EndChar

StartChar: approxequal
Encoding: 8776 8776 187
Width: 1351
VWidth: 0
GlyphClass: 2
Flags: W
PickledData: "(dp1
S'org.robofab.postScriptHintData'
p2
(dp3
sS'com.typemytype.robofont.layerData'
p4
(dp5
s."
LayerCount: 2
Fore
SplineSet
220 105 m 257
 67 192 l 257
 137 439 228 477 354 477 c 256
 431 477 529 456 652 415 c 256
 760 376 851 362 909 362 c 256
 981 362 1004 381 1028 517 c 257
 1193 440 l 257
 1130 189 1059 142 932 142 c 256
 853 142 747 166 612 203 c 256
 516 232 431 257 376 257 c 256
 294 257 265 235 220 105 c 257
220 696 m 257
 68 786 l 257
 140 1032 230 1070 355 1070 c 256
 433 1070 538 1044 656 1009 c 256
 761 976 851 955 910 955 c 256
 982 955 1004 975 1029 1110 c 257
 1194 1032 l 257
 1130 782 1060 735 933 735 c 256
 856 735 748 761 613 797 c 256
 519 824 431 849 377 849 c 256
 294 849 264 828 220 696 c 257
EndSplineSet
EndChar

StartChar: asciicircum
Encoding: 94 94 190
Width: 1559
VWidth: 0
GlyphClass: 2
Flags: W
PickledData: "(dp1
S'org.robofab.postScriptHintData'
p2
(dp3
sS'com.typemytype.robofont.layerData'
p4
(dp5
S'b'
(dp6
S'name'
p7
S'asciicircum'
p8
sS'lib'
p9
(dp10
sS'unicodes'
p11
(tsS'width'
p12
F1623.3499999999999
sS'contours'
p13
(tsS'components'
p14
(tsS'anchors'
p15
(tsss."
LayerCount: 2
Fore
SplineSet
183 532 m 257
 696 1456 l 257
 857 1456 l 257
 1376 532 l 257
 1125 532 l 257
 773 1173 l 257
 438 532 l 257
 183 532 l 257
EndSplineSet
EndChar

StartChar: asciitilde
Encoding: 126 126 191
Width: 1508
VWidth: 0
GlyphClass: 2
Flags: W
PickledData: "(dp1
S'org.robofab.postScriptHintData'
p2
(dp3
sS'com.typemytype.robofont.layerData'
p4
(dp5
s."
LayerCount: 2
Fore
SplineSet
335 367 m 257
 182 441 l 257
 257 697 350 729 472 729 c 256
 552 729 646 707 765 665 c 256
 888 618 962 606 1023 606 c 256
 1093 606 1113 615 1144 756 c 257
 1302 685 l 257
 1239 435 1172 394 1043 394 c 256
 956 394 851 417 706 464 c 256
 601 500 542 514 491 514 c 256
 412 514 382 500 335 367 c 257
EndSplineSet
EndChar

StartChar: asterisk
Encoding: 42 42 192
Width: 1054
VWidth: 0
GlyphClass: 2
Flags: W
PickledData: "(dp1
S'org.robofab.postScriptHintData'
p2
(dp3
sS'com.typemytype.robofont.guides'
p4
((dp5
S'y'
I1149
sS'x'
I567
sS'magnetic'
p6
I5
sS'angle'
p7
I0
sS'isGlobal'
p8
I00
stp9
sS'com.typemytype.robofont.layerData'
p10
(dp11
S'b'
(dp12
S'name'
p13
S'asterisk'
p14
sS'lib'
p15
(dp16
sS'unicodes'
p17
(tsS'width'
p18
F1107.9000000000001
sS'contours'
p19
(tsS'components'
p20
(tsS'anchors'
p21
(tsss."
LayerCount: 2
Fore
SplineSet
674 644 m 257
 505 892 l 257
 336 643 l 257
 153 770 l 257
 370 1002 l 257
 91 1110 l 257
 177 1289 l 257
 420 1164 l 257
 390 1456 l 257
 625 1456 l 257
 591 1164 l 257
 839 1289 l 257
 921 1110 l 257
 641 1002 l 257
 857 771 l 257
 674 644 l 257
EndSplineSet
EndChar

StartChar: at
Encoding: 64 64 193
Width: 1814
VWidth: 0
GlyphClass: 2
Flags: W
PickledData: "(dp1
S'org.robofab.postScriptHintData'
p2
(dp3
sS'com.typemytype.robofont.layerData'
p4
(dp5
S'b'
(dp6
S'name'
p7
S'at'
p8
sS'lib'
p9
(dp10
sS'unicodes'
p11
(tsS'width'
p12
F1771.2
sS'contours'
p13
(tsS'components'
p14
(tsS'anchors'
p15
(tsss."
LayerCount: 2
Fore
SplineSet
856 448 m 256
 994 448 1084 629 1084 817 c 256
 1084 906 1033 951 961 951 c 256
 810 951 728 756 728 593 c 256
 728 505 782 448 856 448 c 256
943 -101 m 256
 467 -101 106 194 106 665 c 256
 106 1175 494 1483 966 1483 c 256
 1385 1483 1708 1200 1708 793 c 256
 1708 541 1549 254 1342 254 c 256
 1199 254 1115 354 1115 464 c 257
 1080 351 987 256 823 256 c 256
 664 256 481 377 481 628 c 256
 481 942 742 1136 931 1136 c 256
 1036 1136 1103 1102 1135 1022 c 257
 1155 1118 l 257
 1373 1118 l 257
 1284 644 l 258
 1265 548 1264 508 1264 480 c 258
 1264 466 l 258
 1264 433 1280 377 1321 377 c 256
 1397 377 1546 540 1546 798 c 256
 1546 1164 1256 1320 976 1320 c 256
 612 1320 310 1114 310 665 c 256
 310 249 637 56 964 56 c 256
 1120 56 1283 101 1436 188 c 257
 1517 70 l 257
 1353 -45 1149 -101 943 -101 c 256
EndSplineSet
EndChar

StartChar: b
Encoding: 98 98 195
Width: 1291
VWidth: 0
GlyphClass: 2
Flags: W
PickledData: "(dp1
S'org.robofab.postScriptHintData'
p2
(dp3
sS'com.typemytype.robofont.layerData'
p4
(dp5
S'b'
(dp6
S'name'
p7
S'b'
sS'lib'
p8
(dp9
sS'unicodes'
p10
(tsS'width'
p11
F1270.0999999999999
sS'contours'
p12
(tsS'components'
p13
(tsS'anchors'
p14
(tsss."
LayerCount: 2
Fore
SplineSet
658 177 m 256
 848 177 924 339 924 511 c 256
 924 697 842 851 666 851 c 256
 486 851 381 698 381 515 c 256
 381 340 471 177 658 177 c 256
704 -23 m 256
 559 -23 441 51 395 127 c 257
 395 0 l 257
 141 0 l 257
 149 251 150 244 150 272 c 258
 150 1457 l 257
 396 1457 l 257
 396 882 l 257
 406 923 500 1052 717 1052 c 256
 1011 1052 1183 826 1183 518 c 256
 1183 196 964 -23 704 -23 c 256
EndSplineSet
EndChar

StartChar: backslash
Encoding: 92 92 196
Width: 650
VWidth: 0
GlyphClass: 2
Flags: W
PickledData: "(dp1
S'org.robofab.postScriptHintData'
p2
(dp3
sS'com.typemytype.robofont.layerData'
p4
(dp5
s."
LayerCount: 2
Fore
SplineSet
531 -112 m 257
 -174 1456 l 257
 101 1456 l 257
 798 -112 l 257
 531 -112 l 257
EndSplineSet
EndChar

StartChar: bar
Encoding: 124 124 197
Width: 395
VWidth: 0
GlyphClass: 2
Flags: W
PickledData: "(dp1
S'org.robofab.postScriptHintData'
p2
(dp3
sS'com.typemytype.robofont.layerData'
p4
(dp5
s."
LayerCount: 2
Fore
SplineSet
79 -455 m 257
 79 1506 l 257
 316 1506 l 257
 316 -455 l 257
 79 -455 l 257
EndSplineSet
EndChar

StartChar: braceleft
Encoding: 123 123 199
Width: 987
VWidth: 0
GlyphClass: 2
Flags: W
PickledData: "(dp1
S'org.robofab.postScriptHintData'
p2
(dp3
sS'com.typemytype.robofont.layerData'
p4
(dp5
s."
LayerCount: 2
Fore
SplineSet
598 1176 m 258
 598 953 l 258
 598 796 536 688 354 683 c 257
 532 681 598 580 598 424 c 258
 598 198 l 258
 598 16 629 16 864 15 c 257
 864 -180 l 257
 855 -180 l 258
 405 -180 342 -104 342 206 c 258
 342 436 l 258
 342 573 302 606 162 606 c 258
 149 606 l 257
 149 755 l 257
 162 755 l 258
 307 755 343 790 343 933 c 258
 343 1164 l 258
 343 1478 415 1542 864 1542 c 257
 864 1347 l 257
 787 1347 l 258
 629 1347 598 1339 598 1176 c 258
EndSplineSet
EndChar

StartChar: braceright
Encoding: 125 125 200
Width: 982
VWidth: 0
GlyphClass: 2
Flags: W
PickledData: "(dp1
S'org.robofab.postScriptHintData'
p2
(dp3
sS'com.typemytype.robofont.layerData'
p4
(dp5
s."
LayerCount: 2
Fore
SplineSet
108 -180 m 257
 108 14 l 257
 185 14 l 258
 343 14 374 22 374 185 c 258
 374 408 l 258
 374 565 436 673 618 679 c 257
 439 680 374 781 374 937 c 258
 374 1163 l 258
 374 1345 343 1345 107 1346 c 257
 107 1542 l 257
 116 1542 l 258
 566 1542 629 1465 629 1155 c 258
 629 925 l 258
 629 788 670 755 810 755 c 258
 823 755 l 257
 823 606 l 257
 810 606 l 258
 665 606 629 571 629 428 c 258
 629 197 l 258
 629 -117 557 -180 108 -180 c 257
EndSplineSet
EndChar

StartChar: bracketleft
Encoding: 91 91 201
Width: 620
VWidth: 0
GlyphClass: 2
Flags: W
PickledData: "(dp1
S'org.robofab.postScriptHintData'
p2
(dp3
sS'com.typemytype.robofont.layerData'
p4
(dp5
s."
LayerCount: 2
Fore
SplineSet
140 -158 m 257
 140 1502 l 257
 561 1502 l 257
 561 1312 l 257
 392 1312 l 257
 392 32 l 257
 562 32 l 257
 562 -158 l 257
 140 -158 l 257
EndSplineSet
EndChar

StartChar: bracketright
Encoding: 93 93 202
Width: 620
VWidth: 0
GlyphClass: 2
Flags: W
PickledData: "(dp1
S'org.robofab.postScriptHintData'
p2
(dp3
sS'com.typemytype.robofont.layerData'
p4
(dp5
s."
LayerCount: 2
Fore
SplineSet
91 -158 m 257
 91 32 l 257
 255 32 l 257
 255 1312 l 257
 92 1312 l 257
 92 1502 l 257
 508 1502 l 257
 508 -158 l 257
 91 -158 l 257
EndSplineSet
EndChar

StartChar: breve
Encoding: 728 728 203
Width: 700
VWidth: 0
GlyphClass: 2
Flags: W
PickledData: "(dp1
S'org.robofab.postScriptHintData'
p2
(dp3
sS'com.typemytype.robofont.layerData'
p4
(dp5
S'b'
(dp6
S'name'
p7
S'breve'
p8
sS'lib'
p9
(dp10
sS'unicodes'
p11
(tsS'width'
p12
F621.60000000000002
sS'contours'
p13
(tsS'components'
p14
(tsS'anchors'
p15
(tsss."
LayerCount: 2
Fore
SplineSet
352 1160 m 256
 162 1160 44 1245 30 1456 c 257
 204 1456 l 257
 212 1349 283 1334 352 1334 c 256
 422 1334 488 1349 498 1456 c 257
 671 1456 l 257
 656 1245 543 1160 352 1160 c 256
EndSplineSet
EndChar

StartChar: brokenbar
Encoding: 166 166 204
Width: 500
VWidth: 0
GlyphClass: 2
Flags: W
PickledData: "(dp1
S'org.robofab.postScriptHintData'
p2
(dp3
sS'com.typemytype.robofont.layerData'
p4
(dp5
s."
LayerCount: 2
Fore
SplineSet
92 565 m 257
 92 1506 l 257
 339 1506 l 257
 339 565 l 257
 92 565 l 257
94 -455 m 257
 94 415 l 257
 341 415 l 257
 341 -455 l 257
 94 -455 l 257
EndSplineSet
EndChar

StartChar: bullet
Encoding: 8226 8226 205
Width: 989
VWidth: 0
GlyphClass: 2
Flags: W
PickledData: "(dp1
S'org.robofab.postScriptHintData'
p2
(dp3
sS'com.typemytype.robofont.layerData'
p4
(dp5
S'b'
(dp6
S'name'
p7
S'bullet'
p8
sS'lib'
p9
(dp10
sS'unicodes'
p11
(tsS'width'
p12
F989.64999999999998
sS'contours'
p13
(tsS'components'
p14
(tsS'anchors'
p15
(tsss."
LayerCount: 2
Fore
SplineSet
489 358 m 256
 283 358 149 510 149 682 c 256
 149 859 299 1010 489 1010 c 256
 689 1010 831 859 831 682 c 256
 831 507 681 358 489 358 c 256
EndSplineSet
EndChar

StartChar: c
Encoding: 99 99 207
Width: 1071
VWidth: 0
GlyphClass: 2
Flags: W
PickledData: "(dp1
S'org.robofab.postScriptHintData'
p2
(dp3
sS'com.typemytype.robofont.layerData'
p4
(dp5
S'b'
(dp6
S'name'
p7
S'c'
sS'lib'
p8
(dp9
sS'unicodes'
p10
(tsS'width'
p11
F1035.55
sS'contours'
p12
((dp13
S'points'
p14
((dp15
S'segmentType'
p16
S'curve'
p17
sS'x'
F605
sS'smooth'
p18
I01
sS'y'
F-22
s(dp19
S'y'
F-22
sS'x'
F302
sg18
I00
s(dp20
S'y'
F180
sS'x'
F98
sg18
I00
s(dp21
g16
S'curve'
p22
sS'x'
F98
sg18
I01
sS'y'
F503
s(dp23
S'y'
F840
sS'x'
F98
sg18
I00
s(dp24
S'y'
F1052
sS'x'
F301
sg18
I00
s(dp25
g16
S'curve'
p26
sS'x'
F624
sg18
I01
sS'y'
F1052
s(dp27
S'y'
F1052
sS'x'
F750
sg18
I00
s(dp28
S'y'
F1001
sS'x'
F871
sg18
I00
s(dp29
g16
S'curve'
p30
sS'x'
F938
sg18
I00
sS'y'
F922
s(dp31
g16
S'line'
p32
sS'x'
F890
sg18
I00
sS'y'
F805
s(dp33
S'y'
F874
sS'x'
F825
sg18
I00
s(dp34
S'y'
F918
sS'x'
F721
sg18
I00
s(dp35
g16
S'curve'
p36
sS'x'
F619
sg18
I01
sS'y'
F918
s(dp37
S'y'
F918
sS'x'
F406
sg18
I00
s(dp38
S'y'
F756
sS'x'
F268
sg18
I00
s(dp39
g16
S'curve'
p40
sS'x'
F268
sg18
I01
sS'y'
F505
s(dp41
S'y'
F260
sS'x'
F268
sg18
I00
s(dp42
S'y'
F112
sS'x'
F407
sg18
I00
s(dp43
g16
S'curve'
p44
sS'x'
F611
sg18
I01
sS'y'
F112
s(dp45
S'y'
F112
sS'x'
F716
sg18
I00
s(dp46
S'y'
F145
sS'x'
F827
sg18
I00
s(dp47
g16
S'curve'
p48
sS'x'
F901
sg18
I00
sS'y'
F202
s(dp49
g16
S'line'
p50
sS'x'
F953
sg18
I00
sS'y'
F87
s(dp51
S'y'
F19
sS'x'
F873
sg18
I00
s(dp52
S'y'
F-22
sS'x'
F747
sg18
I00
stp53
stp54
sS'components'
p55
(tsS'anchors'
p56
(tsss."
LayerCount: 2
Fore
SplineSet
644 -23 m 256
 299 -23 108 233 108 514 c 256
 108 817 306 1052 641 1052 c 256
 802 1052 927 1005 1013 914 c 257
 924 754 l 257
 866 805 783 852 667 852 c 256
 467 852 365 713 365 513 c 256
 365 315 480 177 675 177 c 256
 813 177 894 246 932 274 c 257
 1007 92 l 257
 894 13 786 -23 644 -23 c 256
EndSplineSet
EndChar

StartChar: caron
Encoding: 711 711 209
Width: 699
VWidth: 0
GlyphClass: 2
Flags: W
PickledData: "(dp1
S'org.robofab.postScriptHintData'
p2
(dp3
s."
LayerCount: 2
Fore
SplineSet
250 1185 m 257
 -31 1552 l 257
 223 1552 l 257
 342 1407 l 257
 465 1552 l 257
 731 1552 l 257
 452 1185 l 257
 250 1185 l 257
EndSplineSet
EndChar

StartChar: caron.alt
Encoding: 65537 -1 210
Width: 600
VWidth: 0
GlyphClass: 4
Flags: W
PickledData: "(dp1
S'org.robofab.postScriptHintData'
p2
(dp3
s."
AnchorPoint: "caron.alt" -16 1026 mark 0
LayerCount: 2
Fore
SplineSet
270 951 m 257
 383 1456 l 257
 663 1456 l 257
 482 951 l 257
 270 951 l 257
EndSplineSet
EndChar

StartChar: cedilla
Encoding: 184 184 215
Width: 529
VWidth: 0
GlyphClass: 2
Flags: W
PickledData: "(dp1
S'org.robofab.postScriptHintData'
p2
(dp3
sS'com.typemytype.robofont.layerData'
p4
(dp5
S'b'
(dp6
S'name'
p7
S'cedilla'
p8
sS'lib'
p9
(dp10
sS'unicodes'
p11
(tsS'width'
p12
I529
sS'contours'
p13
(tsS'components'
p14
(tsS'anchors'
p15
(tsss."
LayerCount: 2
Fore
SplineSet
17 -426 m 257
 28 -294 l 257
 65.0217 -310.375 139.417 -332.477 201.502 -332.477 c 256
 257.206 -332.477 303 -314.685 303 -259 c 256
 303 -207 271 -158 150 -140 c 257
 121 -136 l 257
 152 39 l 257
 276 39 l 257
 259 -75 l 257
 411.343 -86.1589 480.986 -184.484 480.986 -282.768 c 256
 480.986 -425.58 368.682 -484.821 241.408 -484.821 c 256
 164.978 -484.821 83.1493 -463.458 17 -426 c 257
EndSplineSet
EndChar

StartChar: cent
Encoding: 162 162 216
Width: 1076
VWidth: 0
GlyphClass: 2
Flags: W
PickledData: "(dp1
S'org.robofab.postScriptHintData'
p2
(dp3
sS'com.typemytype.robofont.layerData'
p4
(dp5
S'b'
(dp6
S'name'
p7
S'cent'
p8
sS'lib'
p9
(dp10
sS'unicodes'
p11
(tsS'width'
p12
F1033.2
sS'contours'
p13
(tsS'components'
p14
(tsS'anchors'
p15
(tsss."
LayerCount: 2
Fore
SplineSet
606 -242 m 257
 744 -242 l 257
 744 -16 l 257
 840 -2 922 33 1007 92 c 257
 932 274 l 257
 901 251 841 200 744 183 c 257
 744 845 l 257
 821 830 880 793 924 754 c 257
 1013 914 l 257
 946 985 856 1029 744 1045 c 257
 744 1250 l 257
 606 1250 l 257
 606 1051 l 257
 292 1035 108 806 108 514 c 256
 108 243 285 -4 606 -22 c 257
 606 -242 l 257
606 847 m 257
 606 183 l 257
 453 212 365 340 365 513 c 256
 365 692 446 821 606 847 c 257
EndSplineSet
EndChar

StartChar: circumflex
Encoding: 710 710 217
Width: 699
VWidth: 0
GlyphClass: 2
Flags: W
PickledData: "(dp1
S'org.robofab.postScriptHintData'
p2
(dp3
sS'com.typemytype.robofont.layerData'
p4
(dp5
S'b'
(dp6
S'name'
p7
S'circumflex'
p8
sS'lib'
p9
(dp10
sS'unicodes'
p11
(tsS'width'
p12
I699
sS'contours'
p13
(tsS'components'
p14
(tsS'anchors'
p15
(tsss."
LayerCount: 2
Fore
SplineSet
-37 1185 m 257
 220 1555 l 257
 472 1555 l 257
 737 1185 l 257
 490 1185 l 257
 354 1381 l 257
 215 1185 l 257
 -37 1185 l 257
EndSplineSet
EndChar

StartChar: colon
Encoding: 58 58 218
Width: 591
VWidth: 0
GlyphClass: 2
Flags: W
PickledData: "(dp1
S'org.robofab.postScriptHintData'
p2
(dp3
sS'com.typemytype.robofont.layerData'
p4
(dp5
S'b'
(dp6
S'name'
p7
S'colon'
p8
sS'lib'
p9
(dp10
sS'unicodes'
p11
(tsS'width'
p12
F544.60000000000002
sS'contours'
p13
(tsS'components'
p14
(tsS'anchors'
p15
(tsss."
LayerCount: 2
Fore
SplineSet
134 900 m 257
 134 1171 l 257
 444 1171 l 257
 445 900 l 257
 134 900 l 257
134 -15 m 257
 134 255 l 257
 445 255 l 257
 445 -15 l 257
 134 -15 l 257
EndSplineSet
EndChar

StartChar: comma
Encoding: 44 44 219
Width: 545
VWidth: 0
GlyphClass: 2
Flags: W
PickledData: "(dp1
S'org.robofab.postScriptHintData'
p2
(dp3
sS'com.typemytype.robofont.layerData'
p4
(dp5
S'b'
(dp6
S'name'
p7
S'comma'
p8
sS'lib'
p9
(dp10
sS'unicodes'
p11
(tsS'width'
p12
F491.10000000000002
sS'contours'
p13
(tsS'components'
p14
(tsS'anchors'
p15
(tsss."
LayerCount: 2
Fore
SplineSet
52 -229 m 257
 164 268 l 257
 442 268 l 257
 263 -229 l 257
 52 -229 l 257
EndSplineSet
EndChar

StartChar: copyright
Encoding: 169 169 220
Width: 1713
VWidth: 0
GlyphClass: 2
Flags: W
PickledData: "(dp1
S'org.robofab.postScriptHintData'
p2
(dp3
sS'com.typemytype.robofont.layerData'
p4
(dp5
S'b'
(dp6
S'name'
p7
S'copyright'
p8
sS'lib'
p9
(dp10
sS'unicodes'
p11
(tsS'width'
p12
I1733
sS'contours'
p13
(tsS'components'
p14
(tsS'anchors'
p15
(tsss."
LayerCount: 2
Fore
SplineSet
857 -22 m 256
 443 -22 106 318 106 732 c 256
 106 1145 443 1483 857 1483 c 256
 1270 1483 1607 1145 1607 732 c 256
 1607 318 1270 -22 857 -22 c 256
855 93 m 256
 1199 93 1473 383 1473 729 c 256
 1473 1074 1199 1361 855 1361 c 256
 510 1361 237 1074 237 729 c 256
 237 383 510 93 855 93 c 256
876 283 m 256
 583 283 437 496 437 727 c 256
 437 975 600 1169 874 1169 c 256
 1008 1169 1109 1130 1180 1055 c 257
 1108 924 l 257
 1059 966 991 1004 896 1004 c 256
 732 1004 650 889 650 727 c 256
 650 567 736 448 903 448 c 256
 1020 448 1087 506 1113 526 c 257
 1175 375 l 257
 1085 312 998 283 876 283 c 256
EndSplineSet
EndChar

StartChar: currency
Encoding: 164 164 221
Width: 1218
VWidth: 0
GlyphClass: 2
Flags: W
PickledData: "(dp1
S'org.robofab.postScriptHintData'
p2
(dp3
s."
LayerCount: 2
Fore
SplineSet
609 710 m 256
 783 710 911 846 911 1020 c 256
 911 1194 783 1331 609 1331 c 256
 435 1331 307 1194 307 1020 c 256
 307 846 435 710 609 710 c 256
171 543 m 257
 120 594 l 257
 307 781 l 257
 252 847 219 931 219 1024 c 256
 219 1121 255 1209 314 1276 c 257
 119 1471 l 257
 170 1522 l 257
 367 1326 l 257
 433 1378 518 1409 610 1409 c 256
 702 1409 786 1378 853 1327 c 257
 1048 1522 l 257
 1099 1471 l 257
 906 1278 l 257
 966 1210 1002 1122 1002 1024 c 256
 1002 931 969 846 913 779 c 257
 1099 594 l 257
 1048 543 l 257
 862 729 l 257
 794 673 706 639 610 639 c 256
 514 639 426 673 358 730 c 257
 171 543 l 257
EndSplineSet
EndChar

StartChar: d
Encoding: 100 100 222
Width: 1267
VWidth: 0
GlyphClass: 2
Flags: W
PickledData: "(dp1
S'org.robofab.postScriptHintData'
p2
(dp3
sS'com.typemytype.robofont.layerData'
p4
(dp5
S'b'
(dp6
S'name'
p7
S'd'
sS'lib'
p8
(dp9
sS'unicodes'
p10
(tsS'width'
p11
F1265.05
sS'contours'
p12
(tsS'components'
p13
(tsS'anchors'
p14
(tsss."
AnchorPoint: "caron.alt" 962 1026 basechar 0
LayerCount: 2
Fore
SplineSet
627 177 m 256
 815 177 885 340 885 512 c 256
 885 699 807 851 625 851 c 256
 444 851 368 698 368 516 c 256
 368 339 438 177 627 177 c 256
576 -23 m 256
 317 -23 108 182 108 508 c 256
 108 795 269 1052 595 1052 c 256
 755 1052 849 964 877 918 c 257
 877 1457 l 257
 1123 1457 l 257
 1123 274 l 258
 1123 254 1124 238 1132 0 c 257
 878 0 l 257
 876 131 l 257
 855 78 765 -23 576 -23 c 256
EndSplineSet
EndChar

StartChar: dagger
Encoding: 8224 8224 223
Width: 1022
VWidth: 0
GlyphClass: 2
Flags: W
PickledData: "(dp1
S'org.robofab.postScriptHintData'
p2
(dp3
sS'com.typemytype.robofont.layerData'
p4
(dp5
s."
LayerCount: 2
Fore
SplineSet
380 0 m 257
 380 901 l 257
 54 901 l 257
 54 1079 l 257
 380 1079 l 257
 380 1412 l 257
 578 1412 l 257
 578 1079 l 257
 907 1079 l 257
 907 901 l 257
 581 901 l 257
 581 0 l 257
 380 0 l 257
EndSplineSet
EndChar

StartChar: daggerdbl
Encoding: 8225 8225 224
Width: 1174
VWidth: 0
GlyphClass: 2
Flags: W
PickledData: "(dp1
S'org.robofab.postScriptHintData'
p2
(dp3
sS'com.typemytype.robofont.layerData'
p4
(dp5
S'b'
(dp6
S'name'
p7
S'daggerdbl'
p8
sS'lib'
p9
(dp10
sS'unicodes'
p11
(tsS'width'
p12
F1092.6500000000001
sS'contours'
p13
(tsS'components'
p14
(tsS'anchors'
p15
(tsss."
LayerCount: 2
Fore
SplineSet
147 1083 m 257
 485 1083 l 257
 485 1456 l 257
 705 1456 l 257
 705 1083 l 257
 1030 1083 l 257
 1030 895 l 257
 705 895 l 257
 705 532 l 257
 1021 532 l 257
 1021 352 l 257
 705 352 l 257
 705 -112 l 257
 485 -112 l 257
 485 352 l 257
 143 352 l 257
 143 532 l 257
 485 532 l 257
 485 895 l 257
 147 895 l 257
 147 1083 l 257
EndSplineSet
EndChar

StartChar: degree
Encoding: 176 176 228
Width: 886
VWidth: 0
GlyphClass: 2
Flags: W
PickledData: "(dp1
S'org.robofab.postScriptHintData'
p2
(dp3
sS'com.typemytype.robofont.layerData'
p4
(dp5
S'b'
(dp6
S'name'
p7
S'degree'
p8
sS'lib'
p9
(dp10
sS'unicodes'
p11
(tsS'width'
p12
F856.60000000000002
sS'contours'
p13
(tsS'components'
p14
(tsS'anchors'
p15
(tsss."
LayerCount: 2
Fore
SplineSet
443 849 m 256
 272 849 129 983 129 1157 c 256
 129 1329 272 1466 443 1466 c 256
 615 1466 757 1329 757 1157 c 256
 757 983 615 849 443 849 c 256
443 984 m 256
 539 984 612 1058 612 1156 c 256
 612 1254 539 1328 443 1328 c 256
 349 1328 277 1254 277 1156 c 256
 277 1058 350 984 443 984 c 256
EndSplineSet
EndChar

StartChar: dieresis
Encoding: 168 168 229
Width: 743
VWidth: 0
GlyphClass: 2
Flags: W
PickledData: "(dp1
S'org.robofab.postScriptHintData'
p2
(dp3
s."
LayerCount: 2
Fore
SplineSet
476 1151 m 257
 476 1376 l 257
 721 1376 l 257
 721 1151 l 257
 476 1151 l 257
18 1151 m 257
 18 1376 l 257
 265 1376 l 257
 265 1151 l 257
 18 1151 l 257
EndSplineSet
EndChar

StartChar: divide
Encoding: 247 247 230
Width: 1499
VWidth: 0
GlyphClass: 2
Flags: W
PickledData: "(dp1
S'org.robofab.postScriptHintData'
p2
(dp3
sS'com.typemytype.robofont.layerData'
p4
(dp5
s."
LayerCount: 2
Fore
SplineSet
617 840 m 257
 617 1111 l 257
 818 1111 l 257
 818 840 l 257
 617 840 l 257
167 449 m 257
 167 656 l 257
 1253 656 l 257
 1253 449 l 257
 167 449 l 257
620 -19 m 257
 620 253 l 257
 821 253 l 257
 823 -19 l 257
 620 -19 l 257
EndSplineSet
EndChar

StartChar: dollar
Encoding: 36 36 232
Width: 1238
VWidth: 0
GlyphClass: 2
Flags: W
PickledData: "(dp1
S'org.robofab.postScriptHintData'
p2
(dp3
sS'com.typemytype.robofont.layerData'
p4
(dp5
S'b'
(dp6
S'name'
p7
S'dollar'
p8
sS'lib'
p9
(dp10
sS'unicodes'
p11
(tsS'width'
p12
F1200.0999999999999
sS'contours'
p13
(tsS'components'
p14
(tsS'anchors'
p15
(tsss."
LayerCount: 2
Fore
SplineSet
578 1259 m 257
 578 893 l 257
 411 955 387 1000 387 1098 c 256
 387 1195 468 1244 578 1259 c 257
678 198 m 257
 678 603 l 257
 853 538 871 489 871 396 c 256
 871 279 809 214 678 198 c 257
578 -219 m 257
 678 -219 l 257
 678 -21 l 257
 923 -6 1141 109 1141 391 c 256
 1141 611 1059 716 823 810 c 256
 779 827 727 843 678 859 c 257
 678 1264 l 257
 773 1262 896 1242 996 1147 c 257
 1126 1315 l 257
 1012 1424 906 1475 678 1482 c 257
 678 1626 l 257
 578 1626 l 257
 578 1482 l 257
 315 1470 116 1337 116 1087 c 256
 116 869 228 763 458 676 c 256
 496 663 538 650 578 637 c 257
 578 195 l 257
 467 203 312 255 223 325 c 257
 115 143 l 257
 216 44 398 -14 578 -22 c 257
 578 -219 l 257
EndSplineSet
EndChar

StartChar: dotaccent
Encoding: 729 729 233
Width: 524
VWidth: 0
GlyphClass: 2
Flags: W
PickledData: "(dp1
S'org.robofab.postScriptHintData'
p2
(dp3
sS'com.typemytype.robofont.layerData'
p4
(dp5
S'b'
(dp6
S'name'
p7
S'dotaccent'
p8
sS'lib'
p9
(dp10
sS'unicodes'
p11
(tsS'width'
p12
F524
sS'contours'
p13
(tsS'components'
p14
(tsS'anchors'
p15
(tsss."
LayerCount: 2
Fore
SplineSet
128 1166 m 257
 128 1394 l 257
 374 1394 l 257
 374 1166 l 257
 128 1166 l 257
EndSplineSet
EndChar

StartChar: dotlessi
Encoding: 305 305 234
Width: 485
VWidth: 0
GlyphClass: 2
Flags: W
PickledData: "(dp1
S'org.robofab.postScriptHintData'
p2
(dp3
sS'com.typemytype.robofont.layerData'
p4
(dp5
s."
LayerCount: 2
Fore
SplineSet
103 0 m 257
 103 1026 l 257
 352 1026 l 257
 352 0 l 257
 103 0 l 257
EndSplineSet
EndChar

StartChar: uni0237
Encoding: 567 567 235
Width: 600
VWidth: 0
GlyphClass: 2
Flags: W
PickledData: "(dp1
S'org.robofab.postScriptHintData'
p2
(dp3
s."
LayerCount: 2
Fore
SplineSet
100 -362 m 256
 -24 -362 -85 -335 -85 -335 c 257
 -57 -165 l 257
 -44 -169 18 -184 86 -184 c 256
 173 -184 218 -161 218 20 c 258
 218 1026 l 257
 471 1026 l 257
 471 -9 l 258
 471 -237 398 -362 100 -362 c 256
-57 -165 m 257
 -59 -164 -60 -164 -60 -164 c 257
 -57 -164 l 257
 -57 -165 l 257
EndSplineSet
EndChar

StartChar: e
Encoding: 101 101 238
Width: 1206
VWidth: 0
GlyphClass: 2
Flags: W
PickledData: "(dp1
S'org.robofab.postScriptHintData'
p2
(dp3
sS'com.typemytype.robofont.layerData'
p4
(dp5
S'b'
(dp6
S'name'
p7
S'e'
sS'lib'
p8
(dp9
sS'unicodes'
p10
(tsS'width'
p11
F1169.75
sS'contours'
p12
(tsS'components'
p13
(tsS'anchors'
p14
(tsssS'com.fontlab.hintData'
p15
(dp16
S'vhints'
p17
((dp18
S'position'
p19
I106
sg11
I195
stp20
sS'hhints'
p21
((dp22
g19
I-22
sg11
I154
s(dp23
g19
I486
sg11
I131
s(dp24
g19
I901
sg11
I151
stp25
ssS'com.typemytype.robofont.guides'
p26
(ts."
HStem: -22 154 486 131 901 151
VStem: 106 195
LayerCount: 2
Fore
SplineSet
373 636 m 257
 883 636 l 257
 859 784 767 861 648 861 c 256
 503 861 405 773 373 636 c 257
666 -23 m 256
 314 -23 108 199 108 512 c 256
 108 797 300 1052 634 1052 c 256
 970 1052 1095 808 1095 515 c 256
 1095 502 1094 483 1090 471 c 257
 370 471 l 257
 378 263 509 177 689 177 c 256
 800 177 907 213 1013 287 c 257
 1080 107 l 257
 953 19 828 -23 666 -23 c 256
EndSplineSet
EndChar

StartChar: eight
Encoding: 56 56 247
Width: 1274
VWidth: 0
GlyphClass: 2
Flags: W
PickledData: "(dp1
S'org.robofab.postScriptHintData'
p2
(dp3
sS'com.typemytype.robofont.layerData'
p4
(dp5
S'b'
(dp6
S'name'
p7
S'eight'
p8
sS'lib'
p9
(dp10
sS'unicodes'
p11
(tsS'width'
p12
F1235.45
sS'contours'
p13
(tsS'components'
p14
(tsS'anchors'
p15
(tsss."
LayerCount: 2
Fore
SplineSet
634 858 m 257
 763 896 843 976 843 1095 c 256
 843 1200 749 1260 633 1260 c 256
 509 1260 424 1205 424 1083 c 256
 424 974 503 893 634 858 c 257
635 199 m 256
 779 199 874 264 874 413 c 256
 874 528 770 640 641 674 c 257
 501 643 398 541 398 409 c 256
 398 273 490 199 635 199 c 256
639 -23 m 256
 356 -23 139 128 139 395 c 256
 139 558 233 689 386 764 c 257
 259 836 168 943 168 1099 c 256
 168 1342 366 1483 632 1483 c 256
 922 1483 1101 1334 1101 1088 c 256
 1101 931 1017 825 886 761 c 257
 1024 692 1131 545 1131 387 c 256
 1131 121 896 -23 639 -23 c 256
EndSplineSet
EndChar

StartChar: ellipsis
Encoding: 8230 8230 249
Width: 1620
VWidth: 0
GlyphClass: 2
Flags: W
PickledData: "(dp1
S'org.robofab.postScriptHintData'
p2
(dp3
s."
LayerCount: 2
Fore
SplineSet
1157 -11 m 257
 1157 260 l 257
 1456 260 l 257
 1456 -11 l 257
 1157 -11 l 257
636 -11 m 257
 636 260 l 257
 937 260 l 257
 938 -11 l 257
 636 -11 l 257
115 -11 m 257
 115 260 l 257
 416 260 l 257
 417 -11 l 257
 115 -11 l 257
EndSplineSet
EndChar

StartChar: emdash
Encoding: 8212 8212 251
Width: 2171
VWidth: 0
GlyphClass: 2
Flags: W
PickledData: "(dp1
S'org.robofab.postScriptHintData'
p2
(dp3
s."
LayerCount: 2
Fore
SplineSet
30 453 m 257
 30 658 l 257
 2141 658 l 257
 2141 453 l 257
 30 453 l 257
EndSplineSet
EndChar

StartChar: endash
Encoding: 8211 8211 252
Width: 1074
VWidth: 0
GlyphClass: 2
Flags: W
PickledData: "(dp1
S'org.robofab.postScriptHintData'
p2
(dp3
sS'com.typemytype.robofont.layerData'
p4
(dp5
s."
LayerCount: 2
Fore
SplineSet
-15 449 m 257
 -15 658 l 257
 1090 658 l 257
 1090 449 l 257
 -15 449 l 257
EndSplineSet
EndChar

StartChar: eng
Encoding: 331 331 253
Width: 1191
VWidth: 0
GlyphClass: 2
Flags: W
PickledData: "(dp1
S'org.robofab.postScriptHintData'
p2
(dp3
sS'com.typemytype.robofont.layerData'
p4
(dp5
s."
LayerCount: 2
Fore
SplineSet
524 -396 m 257
 524 -197 l 257
 670 -197 816 -146 816 50 c 258
 816 602 l 258
 816 784 775 852 646 852 c 256
 555 852 404 768 404 614 c 258
 404 0 l 257
 156 0 l 257
 156 635 l 258
 156 880 136 1026 136 1026 c 257
 399 1026 l 257
 399 878 l 257
 456 995 597 1052 697 1052 c 256
 923 1052 1064 942 1064 585 c 258
 1064 110 l 258
 1064 -235 843 -396 524 -396 c 257
EndSplineSet
EndChar

StartChar: equal
Encoding: 61 61 255
Width: 1479
VWidth: 0
GlyphClass: 2
Flags: W
PickledData: "(dp1
S'org.robofab.postScriptHintData'
p2
(dp3
sS'com.typemytype.robofont.layerData'
p4
(dp5
S'b'
(dp6
S'name'
p7
S'equal'
p8
sS'lib'
p9
(dp10
sS'unicodes'
p11
(tsS'width'
p12
I1229
sS'contours'
p13
(tsS'components'
p14
(tsS'anchors'
p15
(tsss."
LayerCount: 2
Fore
SplineSet
217 667 m 257
 217 868 l 257
 1260 868 l 257
 1260 667 l 257
 217 667 l 257
216 261 m 257
 216 461 l 257
 1262 461 l 257
 1262 261 l 257
 216 261 l 257
EndSplineSet
EndChar

StartChar: estimated
Encoding: 8494 8494 256
Width: 1191
VWidth: 0
GlyphClass: 2
Flags: W
PickledData: "(dp1
S'org.robofab.postScriptHintData'
p2
(dp3
s."
LayerCount: 2
Fore
SplineSet
357 713 m 257
 864 713 l 257
 864 1037 739 1141 609 1141 c 256
 479 1141 356 1036 357 713 c 257
627 114 m 256
 342 114 96 294 96 652 c 256
 96 1050 358 1199 611 1199 c 256
 846 1199 1074 1075 1074 700 c 256
 1074 689 1073 671 1069 655 c 257
 351 655 l 257
 352 333 482 176 682 176 c 256
 784 176 904 218 1029 299 c 257
 1056 247 l 257
 920 158 769 114 627 114 c 256
EndSplineSet
EndChar

StartChar: eth
Encoding: 240 240 257
Width: 1217
VWidth: 0
GlyphClass: 2
Flags: W
PickledData: "(dp1
S'org.robofab.postScriptHintData'
p2
(dp3
sS'com.typemytype.robofont.layerData'
p4
(dp5
S'b'
(dp6
S'name'
p7
S'eth'
p8
sS'lib'
p9
(dp10
sS'unicodes'
p11
(tsS'width'
p12
F1222.55
sS'contours'
p13
(tsS'components'
p14
(tsS'anchors'
p15
(tsss."
LayerCount: 2
Fore
SplineSet
603 172 m 256
 707 172 839 257 839 441 c 256
 839 602 708 693 586 693 c 256
 472 693 353 625 353 449 c 256
 353 256 482 172 603 172 c 256
583 -25 m 256
 284 -25 99 208 99 471 c 256
 99 734 252 902 530 902 c 256
 641 902 760 874 874 753 c 257
 874 768 878 788 878 814 c 256
 878 880 852 982 669 1115 c 257
 416 989 l 257
 350 1122 l 257
 510 1201 l 257
 455 1219 385 1237 296 1258 c 257
 374 1417 l 257
 413 1417 563 1393 718 1306 c 257
 974 1434 l 257
 1040 1300 l 257
 855 1209 l 257
 987 1095 1100 915 1100 621 c 256
 1100 155 906 -25 583 -25 c 256
EndSplineSet
EndChar

StartChar: exclam
Encoding: 33 33 259
Width: 688
VWidth: 0
GlyphClass: 2
Flags: W
PickledData: "(dp1
S'org.robofab.postScriptHintData'
p2
(dp3
sS'com.typemytype.robofont.layerData'
p4
(dp5
S'b'
(dp6
S'name'
p7
S'exclam'
p8
sS'lib'
p9
(dp10
sS'unicodes'
p11
(tsS'width'
p12
F590
sS'contours'
p13
(tsS'components'
p14
(tsS'anchors'
p15
(tsss."
LayerCount: 2
Fore
SplineSet
265 387 m 257
 191 1456 l 257
 486 1456 l 257
 412 387 l 257
 265 387 l 257
180 0 m 257
 180 273 l 257
 494 273 l 257
 494 0 l 257
 180 0 l 257
EndSplineSet
EndChar

StartChar: exclamdown
Encoding: 161 161 260
Width: 786
VWidth: 0
GlyphClass: 2
Flags: W
PickledData: "(dp1
S'org.robofab.postScriptHintData'
p2
(dp3
sS'com.typemytype.robofont.layerData'
p4
(dp5
S'b'
(dp6
S'name'
p7
S'exclamdown'
p8
sS'lib'
p9
(dp10
sS'unicodes'
p11
(tsS'width'
p12
F614.5
sS'contours'
p13
(tsS'components'
p14
(tsS'anchors'
p15
(tsss."
LayerCount: 2
Fore
SplineSet
223 1156 m 257
 537 1156 l 257
 537 883 l 257
 223 883 l 257
 223 1156 l 257
308 769 m 257
 455 769 l 257
 529 -300 l 257
 234 -300 l 257
 308 769 l 257
EndSplineSet
EndChar

StartChar: f
Encoding: 102 102 261
Width: 820
VWidth: 0
GlyphClass: 2
Flags: W
PickledData: "(dp1
S'org.robofab.postScriptHintData'
p2
(dp3
sS'com.typemytype.robofont.layerData'
p4
(dp5
S'b'
(dp6
S'name'
p7
S'f'
sS'lib'
p8
(dp9
sS'unicodes'
p10
(tsS'width'
p11
F733.10000000000002
sS'contours'
p12
(tsS'components'
p13
(tsS'anchors'
p14
(tsss."
LayerCount: 2
Fore
SplineSet
261 0 m 257
 261 860 l 257
 70 860 l 257
 70 1026 l 257
 261 1026 l 257
 261 1066 l 258
 261 1358 294 1485 693 1485 c 258
 746 1485 l 257
 737 1292 l 257
 527 1292 508 1270 508 1069 c 258
 508 1026 l 257
 739 1026 l 257
 739 860 l 257
 508 860 l 257
 508 0 l 257
 261 0 l 257
EndSplineSet
EndChar

StartChar: uniFB00
Encoding: 64256 64256 262
Width: 1692
VWidth: 0
GlyphClass: 2
Flags: W
PickledData: "(dp1
S'org.robofab.postScriptHintData'
p2
(dp3
sS'com.typemytype.robofont.layerData'
p4
(dp5
s."
LayerCount: 2
Fore
SplineSet
1377 855 m 257
 1377 0 l 257
 1124 0 l 257
 1124 855 l 257
 515 855 l 257
 515 0 l 257
 262 0 l 257
 262 855 l 257
 70 855 l 257
 70 1026 l 257
 262 1026 l 257
 262 1062 l 258
 262 1357 294 1485 698 1485 c 258
 752 1485 l 257
 742 1287 l 257
 535 1287 515 1267 515 1063 c 258
 515 1026 l 257
 1124 1026 l 257
 1124 1062 l 258
 1124 1357 1156 1485 1560 1485 c 258
 1614 1485 l 257
 1604 1287 l 257
 1397 1287 1377 1267 1377 1063 c 258
 1377 1026 l 257
 1607 1026 l 257
 1607 855 l 257
 1377 855 l 257
EndSplineSet
EndChar

StartChar: uniFB03
Encoding: 64259 64259 263
Width: 2235
VWidth: 0
GlyphClass: 2
Flags: W
PickledData: "(dp1
S'org.robofab.postScriptHintData'
p2
(dp3
sS'com.typemytype.robofont.layerData'
p4
(dp5
s."
LayerCount: 2
Fore
SplineSet
2097 1233 m 257
 1852 1233 l 257
 1852 1456 l 257
 2097 1456 l 257
 2097 1233 l 257
2097 0 m 257
 1852 0 l 257
 1852 855 l 257
 1386 855 l 257
 1386 0 l 257
 1133 0 l 257
 1133 855 l 257
 515 855 l 257
 515 0 l 257
 262 0 l 257
 262 855 l 257
 70 855 l 257
 70 1026 l 257
 262 1026 l 257
 262 1062 l 258
 262 1357 294 1485 698 1485 c 258
 752 1485 l 257
 742 1288 l 257
 535 1288 515 1268 515 1064 c 258
 515 1026 l 257
 1133 1026 l 257
 1133 1062 l 258
 1133 1357 1165 1485 1569 1485 c 258
 1623 1485 l 257
 1613 1288 l 257
 1406 1288 1386 1268 1386 1064 c 258
 1386 1026 l 257
 2097 1026 l 257
 2097 0 l 257
EndSplineSet
EndChar

StartChar: uniFB04
Encoding: 64260 64260 264
Width: 2207
VWidth: 0
GlyphClass: 2
Flags: W
PickledData: "(dp1
S'org.robofab.postScriptHintData'
p2
(dp3
sS'com.typemytype.robofont.layerData'
p4
(dp5
s."
LayerCount: 2
Fore
SplineSet
261 0 m 257
 261 855 l 257
 70 855 l 257
 70 1026 l 257
 261 1026 l 257
 261 1066 l 258
 261 1358 294 1485 693 1485 c 258
 746 1485 l 257
 737 1292 l 257
 527 1292 508 1270 508 1069 c 258
 508 1026 l 257
 910 1026 l 257
 910 855 l 257
 508 855 l 257
 508 0 l 257
 261 0 l 257
EndSplineSet
Refer: 269 64258 N 1 0 0 1 737 0 2
EndChar

StartChar: uniFB01
Encoding: 64257 64257 266
Width: 1292
VWidth: 0
GlyphClass: 2
Flags: W
PickledData: "(dp1
S'org.robofab.postScriptHintData'
p2
(dp3
sS'com.typemytype.robofont.layerData'
p4
(dp5
S'b'
(dp6
S'name'
p7
S'fi'
p8
sS'lib'
p9
(dp10
sS'unicodes'
p11
(tsS'width'
p12
F1237.6500000000001
sS'contours'
p13
((dp14
S'points'
p15
((dp16
S'segmentType'
p17
S'line'
p18
sS'x'
F249
sS'smooth'
p19
I00
sS'y'
F0
s(dp20
g17
S'line'
p21
sS'x'
F249
sg19
I00
sS'y'
F919
s(dp22
g17
S'line'
p23
sS'x'
F68
sg19
I00
sS'y'
F919
s(dp24
g17
S'line'
p25
sS'x'
F68
sg19
I00
sS'y'
F1026
s(dp26
g17
S'line'
p27
sS'x'
F249
sg19
I00
sS'y'
F1026
s(dp28
g17
S'line'
p29
sS'x'
F249
sg19
I01
sS'y'
F1127
s(dp30
S'y'
F1378
sS'x'
F249
sg19
I00
s(dp31
S'y'
F1492
sS'x'
F295
sg19
I00
s(dp32
g17
S'curve'
p33
sS'x'
F630
sg19
I01
sS'y'
F1492
s(dp34
g17
S'line'
p35
sS'x'
F676
sg19
I00
sS'y'
F1492
s(dp36
g17
S'line'
p37
sS'x'
F676
sg19
I00
sS'y'
F1364
s(dp38
S'y'
F1364
sS'x'
F431
sg19
I00
s(dp39
S'y'
F1311
sS'x'
F413
sg19
I00
s(dp40
g17
S'curve'
p41
sS'x'
F413
sg19
I01
sS'y'
F1150
s(dp42
g17
S'line'
p43
sS'x'
F413
sg19
I00
sS'y'
F1026
s(dp44
g17
S'line'
p45
sS'x'
F662
sg19
I00
sS'y'
F1026
s(dp46
g17
S'line'
p47
sS'x'
F662
sg19
I00
sS'y'
F919
s(dp48
g17
S'line'
p49
sS'x'
F413
sg19
I00
sS'y'
F919
s(dp50
g17
S'line'
p51
sS'x'
F413
sg19
I00
sS'y'
F0
stp52
s(dp53
g15
((dp54
g17
S'line'
p55
sS'x'
F869
sg19
I00
sS'y'
F0
s(dp56
g17
S'line'
p57
sS'x'
F869
sg19
I00
sS'y'
F1026
s(dp58
g17
S'line'
p59
sS'x'
F1033
sg19
I00
sS'y'
F1026
s(dp60
g17
S'line'
p61
sS'x'
F1033
sg19
I00
sS'y'
F0
stp62
s(dp63
g15
((dp64
g17
S'line'
p65
sS'x'
F869
sg19
I00
sS'y'
F1307
s(dp66
g17
S'line'
p67
sS'x'
F869
sg19
I00
sS'y'
F1462
s(dp68
g17
S'line'
p69
sS'x'
F1033
sg19
I00
sS'y'
F1462
s(dp70
g17
S'line'
p71
sS'x'
F1033
sg19
I00
sS'y'
F1307
stp72
stp73
sS'components'
p74
(tsS'anchors'
p75
(tsss."
LayerCount: 2
Fore
SplineSet
262 0 m 257
 262 855 l 257
 70 855 l 257
 70 1026 l 257
 262 1026 l 257
 262 1062 l 258
 262 1357 294 1485 698 1485 c 258
 752 1485 l 257
 742 1287 l 257
 535 1287 515 1267 515 1063 c 258
 515 1026 l 257
 924 1026 l 257
 924 855 l 257
 515 855 l 257
 515 0 l 257
 262 0 l 257
EndSplineSet
Refer: 295 105 N 1 0 0 1 760 0 2
EndChar

StartChar: five
Encoding: 53 53 267
Width: 1272
VWidth: 0
GlyphClass: 2
Flags: W
PickledData: "(dp1
S'org.robofab.postScriptHintData'
p2
(dp3
sS'com.typemytype.robofont.layerData'
p4
(dp5
s."
LayerCount: 2
Fore
SplineSet
622 -23 m 256
 459 -23 287 44 161 177 c 257
 294 367 l 257
 389 251 511 194 617 194 c 256
 755 194 885 285 885 475 c 256
 885 611 814 735 692 735 c 256
 625 735 560 720 525 670 c 257
 272 704 l 257
 272 1456 l 257
 1081 1456 l 257
 1081 1239 l 257
 496 1239 l 257
 484 866 l 257
 541 941 639 960 743 960 c 256
 960 960 1147 751 1147 471 c 256
 1147 140 883 -23 622 -23 c 256
EndSplineSet
EndChar

StartChar: uniFB02
Encoding: 64258 64258 269
Width: 1264
VWidth: 0
GlyphClass: 2
Flags: W
PickledData: "(dp1
S'org.robofab.postScriptHintData'
p2
(dp3
sS'com.typemytype.robofont.layerData'
p4
(dp5
S'b'
(dp6
S'name'
p7
S'fl'
p8
sS'lib'
p9
(dp10
sS'unicodes'
p11
(tsS'width'
p12
F1252.7
sS'contours'
p13
(tsS'components'
p14
((dp15
S'transformation'
p16
(I1
I0
I0
I1
I20
I0
tp17
sS'baseGlyph'
p18
S'f'
s(dp19
g16
(I1
I0
I0
I1
I714
I0
tp20
sg18
S'l'
stp21
sS'anchors'
p22
(tsss."
LayerCount: 2
Fore
SplineSet
256 0 m 257
 256 855 l 257
 70 855 l 257
 70 1026 l 257
 256 1026 l 257
 256 1037 l 258
 256 1330 330 1462 671 1462 c 258
 1130 1462 l 257
 1130 0 l 257
 878 0 l 257
 878 1266 l 257
 727 1266 l 258
 550 1266 510 1221 510 1093 c 258
 510 1026 l 257
 740 1026 l 257
 740 855 l 257
 510 855 l 257
 510 0 l 257
 256 0 l 257
EndSplineSet
EndChar

StartChar: florin
Encoding: 402 402 270
Width: 1111
VWidth: 0
GlyphClass: 2
Flags: W
PickledData: "(dp1
S'org.robofab.postScriptHintData'
p2
(dp3
sS'com.typemytype.robofont.layerData'
p4
(dp5
S'b'
(dp6
S'name'
p7
S'florin'
p8
sS'lib'
p9
(dp10
sS'unicodes'
p11
(tsS'width'
p12
F1073.0999999999999
sS'contours'
p13
(tsS'components'
p14
(tsS'anchors'
p15
(tsss."
LayerCount: 2
Fore
SplineSet
203 -315 m 256
 201 -315 145 -313 95 -297 c 257
 112 -90 l 257
 119.424 -91.3718 166.9 -100 211 -100 c 256
 261 -100 324 -88 357 87 c 257
 455 633 l 257
 316 633 l 257
 357 796 l 257
 487 796 l 257
 544 1107 l 258
 570 1244 629 1450 901 1450 c 256
 1032 1450 1091 1405 1091 1405 c 257
 1074 1205 l 257
 1061 1209 1005 1225 959 1225 c 256
 911 1225 844 1215 821 1095 c 258
 763 796 l 257
 913 796 l 257
 880 633 l 257
 726 633 l 257
 620 45 l 258
 570 -233 416 -315 203 -315 c 256
1077 1204 m 257
 1077 1204 1076 1204 1074 1205 c 257
 1076 1204 1077 1204 1077 1204 c 257
EndSplineSet
EndChar

StartChar: foundryicon
Encoding: 65539 -1 271
Width: 1347
VWidth: 0
GlyphClass: 2
Flags: W
PickledData: "(dp1
S'org.robofab.postScriptHintData'
p2
(dp3
s."
LayerCount: 2
Fore
SplineSet
280 2 m 257
 423 461 l 257
 34 755 l 257
 519 755 l 257
 669 1215 l 257
 828 755 l 257
 1313 755 l 257
 922 461 l 257
 1066 2 l 257
 669 278 l 257
 280 2 l 257
485 405 m 257
 591 405 l 257
 591 552 l 257
 761 405 l 257
 867 405 l 257
 867 672 l 257
 761 672 l 257
 761 523 l 257
 591 672 l 257
 485 672 l 257
 485 405 l 257
EndSplineSet
EndChar

StartChar: four
Encoding: 52 52 272
Width: 1272
VWidth: 0
GlyphClass: 2
Flags: W
PickledData: "(dp1
S'org.robofab.postScriptHintData'
p2
(dp3
sS'com.typemytype.robofont.layerData'
p4
(dp5
S'b'
(dp6
S'name'
p7
S'four'
p8
sS'lib'
p9
(dp10
sS'unicodes'
p11
(tsS'width'
p12
F1234.0999999999999
sS'contours'
p13
(tsS'components'
p14
(tsS'anchors'
p15
(tsss."
LayerCount: 2
Fore
SplineSet
389 580 m 257
 728 580 l 257
 728 1134 l 257
 613 951 502 765 389 580 c 257
724 0 m 257
 724 381 l 257
 107 381 l 257
 107 570 l 257
 691 1456 l 257
 977 1456 l 257
 977 580 l 257
 1206 580 l 257
 1206 381 l 257
 982 381 l 257
 982 0 l 257
 724 0 l 257
EndSplineSet
EndChar

StartChar: uni2074
Encoding: 8308 8308 273
Width: 762
VWidth: 0
GlyphClass: 2
Flags: W
PickledData: "(dp1
S'org.robofab.postScriptHintData'
p2
(dp3
sS'com.typemytype.robofont.layerData'
p4
(dp5
s."
LayerCount: 2
Fore
SplineSet
236 973 m 257
 416 973 l 257
 416 1229 l 257
 236 973 l 257
418 642 m 257
 418 837 l 257
 51 837 l 257
 51 952 l 257
 419 1456 l 257
 604 1456 l 257
 604 973 l 257
 721 973 l 257
 721 837 l 257
 604 837 l 257
 604 642 l 257
 418 642 l 257
EndSplineSet
EndChar

StartChar: fraction
Encoding: 8260 8260 274
Width: 1134
VWidth: 0
GlyphClass: 2
Flags: W
PickledData: "(dp1
S'org.robofab.postScriptHintData'
p2
(dp3
sS'com.typemytype.robofont.layerData'
p4
(dp5
S'b'
(dp6
S'name'
p7
S'fraction'
p8
sS'lib'
p9
(dp10
sS'unicodes'
p11
(tsS'width'
p12
F1077.8
sS'contours'
p13
(tsS'components'
p14
(tsS'anchors'
p15
(tsss."
LayerCount: 2
Fore
SplineSet
-12 0 m 257
 873 1456 l 257
 1122 1456 l 257
 237 0 l 257
 -12 0 l 257
EndSplineSet
EndChar

StartChar: g
Encoding: 103 103 275
Width: 1235
VWidth: 0
GlyphClass: 2
Flags: W
PickledData: "(dp1
S'org.robofab.postScriptHintData'
p2
(dp3
sS'com.typemytype.robofont.layerData'
p4
(dp5
S'b'
(dp6
S'name'
p7
S'g'
sS'lib'
p8
(dp9
sS'unicodes'
p10
(tsS'width'
p11
I1254
sS'contours'
p12
((dp13
S'points'
p14
((dp15
S'segmentType'
p16
S'curve'
p17
sS'x'
F580
sS'smooth'
p18
I01
sS'y'
F134
s(dp19
S'y'
F134
sS'x'
F799
sg18
I00
s(dp20
S'y'
F295
sS'x'
F920
sg18
I00
s(dp21
g16
S'curve'
p22
sS'x'
F920
sg18
I01
sS'y'
F550
s(dp23
S'y'
F775
sS'x'
F920
sg18
I00
s(dp24
S'y'
F918
sS'x'
F796
sg18
I00
s(dp25
g16
S'curve'
p26
sS'x'
F600
sg18
I01
sS'y'
F918
s(dp27
S'y'
F918
sS'x'
F399
sg18
I00
s(dp28
S'y'
F762
sS'x'
F268
sg18
I00
s(dp29
g16
S'curve'
p30
sS'x'
F268
sg18
I01
sS'y'
F515
s(dp31
S'y'
F282
sS'x'
F268
sg18
I00
s(dp32
S'y'
F134
sS'x'
F389
sg18
I00
stp33
s(dp34
g14
((dp35
g16
S'curve'
p36
sS'x'
F534
sg18
I01
sS'y'
F-420
s(dp37
S'y'
F-420
sS'x'
F408
sg18
I00
s(dp38
S'y'
F-381
sS'x'
F289
sg18
I00
s(dp39
g16
S'curve'
p40
sS'x'
F189
sg18
I00
sS'y'
F-331
s(dp41
g16
S'line'
p42
sS'x'
F216
sg18
I00
sS'y'
F-187
s(dp43
S'y'
F-238
sS'x'
F300
sg18
I00
s(dp44
S'y'
F-282
sS'x'
F416
sg18
I00
s(dp45
g16
S'curve'
p46
sS'x'
F528
sg18
I01
sS'y'
F-282
s(dp47
S'y'
F-282
sS'x'
F790
sg18
I00
s(dp48
S'y'
F-183
sS'x'
F920
sg18
I00
s(dp49
g16
S'curve'
p50
sS'x'
F920
sg18
I01
sS'y'
F49
s(dp51
g16
S'line'
p52
sS'x'
F920
sg18
I00
sS'y'
F273
s(dp53
g16
S'line'
p54
sS'x'
F948
sg18
I00
sS'y'
F253
s(dp55
S'y'
F139
sS'x'
F905
sg18
I00
s(dp56
S'y'
F0
sS'x'
F802
sg18
I00
s(dp57
g16
S'curve'
p58
sS'x'
F579
sg18
I01
sS'y'
F0
s(dp59
S'y'
F0
sS'x'
F298
sg18
I00
s(dp60
S'y'
F201
sS'x'
F98
sg18
I00
s(dp61
g16
S'curve'
p62
sS'x'
F98
sg18
I01
sS'y'
F511
s(dp63
S'y'
F843
sS'x'
F98
sg18
I00
s(dp64
S'y'
F1052
sS'x'
F284
sg18
I00
s(dp65
g16
S'curve'
p66
sS'x'
F579
sg18
I01
sS'y'
F1052
s(dp67
S'y'
F1052
sS'x'
F820
sg18
I00
s(dp68
S'y'
F900
sS'x'
F903
sg18
I00
s(dp69
g16
S'curve'
p70
sS'x'
F958
sg18
I00
sS'y'
F798
s(dp71
g16
S'line'
p72
sS'x'
F919
sg18
I00
sS'y'
F787
s(dp73
g16
S'line'
p74
sS'x'
F926
sg18
I00
sS'y'
F1026
s(dp75
g16
S'line'
p76
sS'x'
F1090
sg18
I00
sS'y'
F1026
s(dp77
S'y'
F1026
sS'x'
F1090
sg18
I00
s(dp78
S'y'
F857
sS'x'
F1084
sg18
I00
s(dp79
g16
S'curve'
p80
sS'x'
F1084
sg18
I01
sS'y'
F773
s(dp81
g16
S'line'
p82
sS'x'
F1084
sg18
I01
sS'y'
F143
s(dp83
S'y'
F-255
sS'x'
F1084
sg18
I00
s(dp84
S'y'
F-420
sS'x'
F903
sg18
I00
stp85
stp86
sS'components'
p87
(tsS'anchors'
p88
(tsss."
LayerCount: 2
Fore
SplineSet
626 187 m 256
 829 187 879 360 879 516 c 256
 879 705 804 851 629 851 c 256
 450 851 368 690 368 515 c 256
 368 318 444 187 626 187 c 256
578 -418 m 256
 443 -418 313 -394 188 -348 c 257
 231 -134 l 257
 356 -199 471 -212 560 -212 c 256
 745 -212 866 -136 866 35 c 258
 866 122 l 257
 827 68 751 0 609 0 c 256
 307 0 108 199 108 515 c 256
 108 795 255 1052 590 1052 c 256
 723 1052 819 990 867 916 c 257
 867 1026 l 257
 1130 1026 l 257
 1130 1026 1110 874 1110 682 c 258
 1110 147 l 258
 1110 -95 1042 -418 578 -418 c 256
EndSplineSet
EndChar

StartChar: germandbls
Encoding: 223 223 282
Width: 1265
VWidth: 0
GlyphClass: 2
Flags: W
PickledData: "(dp1
S'org.robofab.postScriptHintData'
p2
(dp3
sS'com.typemytype.robofont.layerData'
p4
(dp5
S'b'
(dp6
S'name'
p7
S'germandbls'
p8
sS'lib'
p9
(dp10
sS'unicodes'
p11
(tsS'width'
p12
F1250.95
sS'contours'
p13
(tsS'components'
p14
(tsS'anchors'
p15
(tsss."
LayerCount: 2
Fore
SplineSet
763 175 m 256
 862.684 175 922 221.776 922 335 c 256
 922 488 828 580 571 709 c 257
 571 897 l 257
 668 939 772 1037 772 1146 c 256
 772 1233 691 1280 608 1280 c 256
 479 1280 387 1185 387 999 c 258
 387 0 l 257
 147 0 l 257
 144 1000 l 258
 143 1327 326 1478 607 1478 c 256
 863 1478 1043 1346 1043 1161 c 256
 1043 1044 977 915 851 852 c 256
 814 833 784 822 744 811 c 257
 988 758 1198 615 1198 354 c 256
 1198 121 1033 -22 828 -22 c 256
 652 -22 504 37 504 37 c 257
 548 230 l 257
 548 230 660 175 763 175 c 256
EndSplineSet
EndChar

StartChar: grave
Encoding: 96 96 283
Width: 610
VWidth: 0
GlyphClass: 2
Flags: W
PickledData: "(dp1
S'org.robofab.postScriptHintData'
p2
(dp3
sS'com.typemytype.robofont.layerData'
p4
(dp5
s."
LayerCount: 2
Fore
SplineSet
336 1166 m 257
 -15 1455 l 257
 303 1455 l 257
 565 1166 l 257
 336 1166 l 257
EndSplineSet
EndChar

StartChar: greater
Encoding: 62 62 284
Width: 1418
VWidth: 0
GlyphClass: 2
Flags: W
PickledData: "(dp1
S'org.robofab.postScriptHintData'
p2
(dp3
sS'com.typemytype.robofont.layerData'
p4
(dp5
S'b'
(dp6
S'name'
p7
S'greater'
p8
sS'lib'
p9
(dp10
sS'unicodes'
p11
(tsS'width'
p12
F1268.05
sS'contours'
p13
(tsS'components'
p14
(tsS'anchors'
p15
(tsss."
LayerCount: 2
Fore
SplineSet
214 39 m 257
 214 272 l 257
 934 573 l 257
 219 897 l 257
 219 1123 l 257
 1269 624 l 257
 1269 500 l 257
 214 39 l 257
EndSplineSet
EndChar

StartChar: greaterequal
Encoding: 8805 8805 285
Width: 1351
VWidth: 0
GlyphClass: 2
Flags: W
PickledData: "(dp1
S'org.robofab.postScriptHintData'
p2
(dp3
sS'com.typemytype.robofont.layerData'
p4
(dp5
S'b'
(dp6
S'name'
p7
S'greaterequal'
p8
sS'lib'
p9
(dp10
sS'unicodes'
p11
(tsS'width'
p12
F1350.3499999999999
sS'contours'
p13
(tsS'components'
p14
(tsS'anchors'
p15
(tsss."
LayerCount: 2
Fore
SplineSet
96 0 m 257
 96 189 l 257
 1167 189 l 257
 1167 0 l 257
 96 0 l 257
103 261 m 257
 103 489 l 257
 828 807 l 257
 107 1117 l 257
 107 1340 l 257
 1156 867 l 257
 1156 752 l 257
 103 261 l 257
EndSplineSet
EndChar

StartChar: guillemotleft
Encoding: 171 171 286
Width: 1177
VWidth: 0
GlyphClass: 2
Flags: W
PickledData: "(dp1
S'org.robofab.postScriptHintData'
p2
(dp3
sS'com.typemytype.robofont.layerData'
p4
(dp5
S'b'
(dp6
S'name'
p7
S'guillemotright'
p8
sS'lib'
p9
(dp10
sS'unicodes'
p11
(tsS'width'
p12
F1122.45
sS'contours'
p13
(tsS'components'
p14
(tsS'anchors'
p15
(tsss."
LayerCount: 2
Fore
SplineSet
854 158 m 257
 577 541 l 257
 860 922 l 257
 1060 922 l 257
 822 539 l 257
 1052 158 l 257
 854 158 l 257
413 158 m 257
 136 541 l 257
 419 922 l 257
 619 922 l 257
 381 539 l 257
 611 158 l 257
 413 158 l 257
EndSplineSet
EndChar

StartChar: guillemotright
Encoding: 187 187 287
Width: 1177
VWidth: 0
GlyphClass: 2
Flags: W
PickledData: "(dp1
S'org.robofab.postScriptHintData'
p2
(dp3
sS'com.typemytype.robofont.layerData'
p4
(dp5
S'b'
(dp6
S'name'
p7
S'guillemotright'
p8
sS'lib'
p9
(dp10
sS'unicodes'
p11
(tsS'width'
p12
F1122.45
sS'contours'
p13
(tsS'components'
p14
(tsS'anchors'
p15
(tsss."
LayerCount: 2
Fore
SplineSet
575 158 m 257
 814 541 l 257
 583 922 l 257
 782 922 l 257
 1059 539 l 257
 776 158 l 257
 575 158 l 257
134 158 m 257
 373 541 l 257
 142 922 l 257
 341 922 l 257
 618 539 l 257
 335 158 l 257
 134 158 l 257
EndSplineSet
EndChar

StartChar: guilsinglleft
Encoding: 8249 8249 288
Width: 725
VWidth: 0
GlyphClass: 2
Flags: W
PickledData: "(dp1
S'org.robofab.postScriptHintData'
p2
(dp3
sS'com.typemytype.robofont.layerData'
p4
(dp5
S'b'
(dp6
S'name'
p7
S'guilsinglleft'
p8
sS'lib'
p9
(dp10
sS'unicodes'
p11
(tsS'width'
p12
F688.39999999999998
sS'contours'
p13
(tsS'components'
p14
(tsS'anchors'
p15
(tsss."
LayerCount: 2
Fore
SplineSet
415 158 m 257
 138 541 l 257
 421 922 l 257
 621 922 l 257
 383 540 l 257
 613 158 l 257
 415 158 l 257
EndSplineSet
EndChar

StartChar: guilsinglright
Encoding: 8250 8250 289
Width: 725
VWidth: 0
GlyphClass: 2
Flags: W
PickledData: "(dp1
S'org.robofab.postScriptHintData'
p2
(dp3
sS'com.typemytype.robofont.layerData'
p4
(dp5
S'b'
(dp6
S'name'
p7
S'guilsinglleft'
p8
sS'lib'
p9
(dp10
sS'unicodes'
p11
(tsS'width'
p12
F688.39999999999998
sS'contours'
p13
(tsS'components'
p14
(tsS'anchors'
p15
(tsss."
LayerCount: 2
Fore
SplineSet
91 157 m 257
 329 539 l 257
 99 921 l 257
 297 921 l 257
 575 538 l 257
 291 157 l 257
 91 157 l 257
EndSplineSet
EndChar

StartChar: h
Encoding: 104 104 290
Width: 1219
VWidth: 0
GlyphClass: 2
Flags: W
PickledData: "(dp1
S'org.robofab.postScriptHintData'
p2
(dp3
sS'com.typemytype.robofont.layerData'
p4
(dp5
S'b'
(dp6
S'name'
p7
S'h'
sS'lib'
p8
(dp9
sS'unicodes'
p10
(tsS'width'
p11
F1237.95
sS'contours'
p12
((dp13
S'points'
p14
((dp15
S'segmentType'
p16
S'line'
p17
sS'x'
F178
sS'smooth'
p18
I00
sS'y'
F0
s(dp19
g16
S'line'
p20
sS'x'
F178
sg18
I01
sS'y'
F779
s(dp21
S'y'
F902
sS'x'
F178
sg18
I00
s(dp22
S'y'
F1026
sS'x'
F172
sg18
I00
s(dp23
g16
S'curve'
p24
sS'x'
F172
sg18
I00
sS'y'
F1026
s(dp25
g16
S'line'
p26
sS'x'
F339
sg18
I00
sS'y'
F1026
s(dp27
g16
S'line'
p28
sS'x'
F343
sg18
I00
sS'y'
F864
s(dp29
S'y'
F976
sS'x'
F423
sg18
I00
s(dp30
S'y'
F1051
sS'x'
F548
sg18
I00
s(dp31
g16
S'curve'
p32
sS'x'
F700
sg18
I01
sS'y'
F1051
s(dp33
S'y'
F1051
sS'x'
F999
sg18
I00
s(dp34
S'y'
F844
sS'x'
F1082
sg18
I00
s(dp35
g16
S'curve'
p36
sS'x'
F1082
sg18
I01
sS'y'
F550
s(dp37
g16
S'line'
p38
sS'x'
F1082
sg18
I00
sS'y'
F0
s(dp39
g16
S'line'
p40
sS'x'
F917
sg18
I00
sS'y'
F0
s(dp41
g16
S'line'
p42
sS'x'
F917
sg18
I01
sS'y'
F531
s(dp43
S'y'
F764
sS'x'
F917
sg18
I00
s(dp44
S'y'
F917
sS'x'
F886
sg18
I00
s(dp45
g16
S'curve'
p46
sS'x'
F670
sg18
I01
sS'y'
F917
s(dp47
S'y'
F917
sS'x'
F471
sg18
I00
s(dp48
S'y'
F742
sS'x'
F344
sg18
I00
s(dp49
g16
S'curve'
p50
sS'x'
F343
sg18
I00
sS'y'
F652
s(dp51
g16
S'line'
p52
sS'x'
F343
sg18
I00
sS'y'
F0
stp53
stp54
sS'components'
p55
(tsS'anchors'
p56
(tsss."
LayerCount: 2
Fore
SplineSet
144 0 m 257
 144 1457 l 257
 392 1457 l 257
 392 893 l 257
 445 993 596 1052 699 1052 c 256
 1043 1052 1089 758 1089 571 c 258
 1089 0 l 257
 841 0 l 257
 841 579 l 258
 841 778 777 851 661 851 c 256
 527 851 392 743 392 618 c 258
 392 0 l 257
 144 0 l 257
EndSplineSet
EndChar

StartChar: hungarumlaut
Encoding: 733 733 293
Width: 969
VWidth: 0
GlyphClass: 2
Flags: W
PickledData: "(dp1
S'org.robofab.postScriptHintData'
p2
(dp3
s."
LayerCount: 2
Fore
SplineSet
407 1152 m 257
 616 1496 l 257
 912 1496 l 257
 594 1152 l 257
 407 1152 l 257
69 1152 m 257
 222 1496 l 257
 486 1496 l 257
 248 1152 l 257
 69 1152 l 257
EndSplineSet
EndChar

StartChar: hyphen
Encoding: 45 45 294
Width: 741
VWidth: 0
GlyphClass: 2
Flags: W
PickledData: "(dp1
S'org.robofab.postScriptHintData'
p2
(dp3
sS'com.typemytype.robofont.layerData'
p4
(dp5
S'b'
(dp6
S'name'
p7
S'hyphen'
p8
sS'lib'
p9
(dp10
sS'unicodes'
p11
(tsS'width'
p12
F683.5
sS'contours'
p13
(tsS'components'
p14
(tsS'anchors'
p15
(tsss."
LayerCount: 2
Fore
SplineSet
54 457 m 257
 54 647 l 257
 686 647 l 257
 686 457 l 257
 54 457 l 257
EndSplineSet
EndChar

StartChar: i
Encoding: 105 105 295
Width: 524
VWidth: 0
GlyphClass: 2
Flags: W
PickledData: "(dp1
S'org.robofab.postScriptHintData'
p2
(dp3
sS'com.typemytype.robofont.layerData'
p4
(dp5
S'b'
(dp6
S'name'
p7
S'i'
sS'lib'
p8
(dp9
sS'unicodes'
p10
(tsS'width'
p11
F521.10000000000002
sS'contours'
p12
(tsS'components'
p13
(tsS'anchors'
p14
(tsss."
LayerCount: 2
Fore
SplineSet
142 1238 m 257
 142 1456 l 257
 382 1456 l 257
 382 1238 l 257
 142 1238 l 257
143 0 m 257
 143 1026 l 257
 382 1026 l 257
 382 0 l 257
 143 0 l 257
EndSplineSet
EndChar

StartChar: Delta
Encoding: 8710 8710 307
Width: 1502
VWidth: 0
GlyphClass: 2
Flags: W
PickledData: "(dp1
S'org.robofab.postScriptHintData'
p2
(dp3
sS'com.typemytype.robofont.layerData'
p4
(dp5
S'b'
(dp6
S'name'
p7
S'uni2206'
p8
sS'lib'
p9
(dp10
sS'unicodes'
p11
(tsS'width'
p12
F1312.25
sS'contours'
p13
(tsS'components'
p14
(tsS'anchors'
p15
(tsss."
LayerCount: 2
Fore
SplineSet
322 217 m 257
 1122 217 l 257
 710 1159 l 257
 322 217 l 257
61 0 m 257
 61 219 l 257
 611 1456 l 257
 882 1456 l 257
 1436 234 l 257
 1436 0 l 257
 61 0 l 257
EndSplineSet
EndChar

StartChar: infinity
Encoding: 8734 8734 308
Width: 1742
VWidth: 0
GlyphClass: 2
Flags: W
PickledData: "(dp1
S'org.robofab.postScriptHintData'
p2
(dp3
s."
LayerCount: 2
Fore
SplineSet
1280 385 m 256
 1426 385 1480 492 1480 627 c 256
 1480 731 1403 820 1275 820 c 256
 1149 820 1038 715 957 603 c 257
 1073 462 1162 385 1280 385 c 256
484 385 m 256
 608 385 713 484 800 601 c 257
 713 724 608 820 474 820 c 256
 336 820 266 721 266 603 c 256
 266 493 346 385 484 385 c 256
467 231 m 256
 246 231 96 412 96 626 c 256
 96 819 268 974 462 974 c 256
 627 974 758 879 876 719 c 257
 988 875 1110 974 1282 974 c 256
 1504 974 1647 820 1647 607 c 256
 1647 384 1476 231 1280 231 c 256
 1129 231 1008 309 874 486 c 257
 758 332 629 231 467 231 c 256
EndSplineSet
EndChar

StartChar: integral
Encoding: 8747 8747 309
Width: 820
VWidth: 0
GlyphClass: 2
Flags: W
PickledData: "(dp1
S'org.robofab.postScriptHintData'
p2
(dp3
sS'com.typemytype.robofont.layerData'
p4
(dp5
S'b'
(dp6
S'name'
p7
S'integral'
p8
sS'lib'
p9
(dp10
sS'unicodes'
p11
(tsS'width'
p12
F754
sS'contours'
p13
(tsS'components'
p14
(tsS'anchors'
p15
(tsss."
LayerCount: 2
Fore
SplineSet
199 -324 m 256
 91 -324 26 -296 26 -296 c 257
 26 -109 l 257
 26 -109 101 -125 163 -125 c 256
 247 -125 261 -67 261 40 c 258
 261 1158 l 258
 261 1379 365 1542 594 1542 c 256
 687 1542 770 1516 770 1516 c 257
 770 1321 l 257
 770 1321 690 1343 633 1343 c 256
 544 1343 520 1285 520 1179 c 258
 520 59 l 258
 520 -161 430 -324 199 -324 c 256
EndSplineSet
EndChar

StartChar: j
Encoding: 106 106 312
Width: 600
VWidth: 0
GlyphClass: 2
Flags: W
PickledData: "(dp1
S'org.robofab.postScriptHintData'
p2
(dp3
sS'com.typemytype.robofont.layerData'
p4
(dp5
S'b'
(dp6
S'name'
p7
S'j'
sS'lib'
p8
(dp9
sS'unicodes'
p10
(tsS'width'
p11
F536.89999999999998
sS'contours'
p12
((dp13
S'points'
p14
((dp15
S'segmentType'
p16
S'curve'
p17
sS'x'
F65
sS'smooth'
p18
I01
sS'y'
F-410
s(dp19
S'y'
F-410
sS'x'
F-24
sg18
I00
s(dp20
S'y'
F-390
sS'x'
F-117
sg18
I00
s(dp21
g16
S'curve'
p22
sS'x'
F-117
sg18
I00
sS'y'
F-390
s(dp23
g16
S'line'
p24
sS'x'
F-102
sg18
I00
sS'y'
F-267
s(dp25
S'y'
F-267
sS'x'
F-102
sg18
I00
s(dp26
S'y'
F-280
sS'x'
F-44
sg18
I00
s(dp27
g16
S'curve'
p28
sS'x'
F19
sg18
I01
sS'y'
F-280
s(dp29
S'y'
F-280
sS'x'
F153
sg18
I00
s(dp30
S'y'
F-208
sS'x'
F177
sg18
I00
s(dp31
g16
S'curve'
p32
sS'x'
F177
sg18
I01
sS'y'
F-2
s(dp33
g16
S'line'
p34
sS'x'
F177
sg18
I00
sS'y'
F1026
s(dp35
g16
S'line'
p36
sS'x'
F341
sg18
I00
sS'y'
F1026
s(dp37
g16
S'line'
p38
sS'x'
F341
sg18
I01
sS'y'
F-6
s(dp39
S'y'
F-274
sS'x'
F341
sg18
I00
s(dp40
S'y'
F-410
sS'x'
F246
sg18
I00
stp41
s(dp42
g14
((dp43
g16
S'line'
p44
sS'x'
F177
sg18
I00
sS'y'
F1307
s(dp45
g16
S'line'
p46
sS'x'
F177
sg18
I00
sS'y'
F1462
s(dp47
g16
S'line'
p48
sS'x'
F341
sg18
I00
sS'y'
F1462
s(dp49
g16
S'line'
p50
sS'x'
F341
sg18
I00
sS'y'
F1307
stp51
stp52
sS'components'
p53
(tsS'anchors'
p54
(tsss."
LayerCount: 2
Fore
SplineSet
224 1228 m 257
 224 1456 l 257
 470 1456 l 257
 470 1228 l 257
 224 1228 l 257
EndSplineSet
Refer: 235 567 N 1 0 0 1 0 0 2
EndChar

StartChar: k
Encoding: 107 107 315
Width: 1076
VWidth: 0
GlyphClass: 2
Flags: W
PickledData: "(dp1
S'org.robofab.postScriptHintData'
p2
(dp3
sS'com.typemytype.robofont.layerData'
p4
(dp5
S'b'
(dp6
S'name'
p7
S'k'
sS'lib'
p8
(dp9
sS'unicodes'
p10
(tsS'width'
p11
F1078.6500000000001
sS'contours'
p12
(tsS'components'
p13
(tsS'anchors'
p14
(tsss."
LayerCount: 2
Fore
SplineSet
140 0 m 257
 140 1457 l 257
 388 1457 l 257
 388 607 l 257
 759 1026 l 257
 1101 1026 l 257
 612 530 l 257
 1133 0 l 257
 805 0 l 257
 388 444 l 257
 388 0 l 257
 140 0 l 257
EndSplineSet
EndChar

StartChar: kgreenlandic
Encoding: 312 312 318
Width: 1082
VWidth: 0
GlyphClass: 2
Flags: W
PickledData: "(dp1
S'org.robofab.postScriptHintData'
p2
(dp3
sS'com.typemytype.robofont.layerData'
p4
(dp5
s."
LayerCount: 2
Fore
SplineSet
145 0 m 257
 145 1026 l 257
 392 1026 l 257
 392 632 l 257
 747 1026 l 257
 1089 1026 l 257
 573 505 l 257
 1027 88 629 449 1123 0 c 257
 790 0 l 257
 392 383 l 257
 392 0 l 257
 145 0 l 257
EndSplineSet
EndChar

StartChar: l
Encoding: 108 108 319
Width: 526
VWidth: 0
GlyphClass: 2
Flags: W
PickledData: "(dp1
S'org.robofab.postScriptHintData'
p2
(dp3
sS'com.typemytype.robofont.layerData'
p4
(dp5
S'b'
(dp6
S'name'
p7
S'l'
sS'lib'
p8
(dp9
sS'unicodes'
p10
(tsS'width'
p11
F521.79999999999995
sS'contours'
p12
(tsS'components'
p13
(tsS'anchors'
p14
(tsss."
AnchorPoint: "caron.alt" 187 1026 basechar 0
LayerCount: 2
Fore
SplineSet
142 0 m 257
 142 1457 l 257
 387 1457 l 257
 387 0 l 257
 142 0 l 257
EndSplineSet
EndChar

StartChar: less
Encoding: 60 60 324
Width: 1416
VWidth: 0
GlyphClass: 2
Flags: W
PickledData: "(dp1
S'org.robofab.postScriptHintData'
p2
(dp3
sS'com.typemytype.robofont.layerData'
p4
(dp5
S'b'
(dp6
S'name'
p7
S'less'
p8
sS'lib'
p9
(dp10
sS'unicodes'
p11
(tsS'width'
p12
F1267.3499999999999
sS'contours'
p13
(tsS'components'
p14
(tsS'anchors'
p15
(tsss."
LayerCount: 2
Fore
SplineSet
1197 36 m 257
 148 509 l 257
 148 624 l 257
 1201 1115 l 257
 1201 888 l 257
 476 569 l 257
 1197 259 l 257
 1197 36 l 257
EndSplineSet
EndChar

StartChar: lessequal
Encoding: 8804 8804 325
Width: 1351
VWidth: 0
GlyphClass: 2
Flags: W
PickledData: "(dp1
S'org.robofab.postScriptHintData'
p2
(dp3
sS'com.typemytype.robofont.layerData'
p4
(dp5
S'b'
(dp6
S'name'
p7
S'lessequal'
p8
sS'lib'
p9
(dp10
sS'unicodes'
p11
(tsS'width'
p12
F1350.3499999999999
sS'contours'
p13
(tsS'components'
p14
(tsS'anchors'
p15
(tsss."
LayerCount: 2
Fore
SplineSet
101 0 m 257
 101 189 l 257
 1172 189 l 257
 1172 0 l 257
 101 0 l 257
1153 262 m 257
 104 736 l 257
 104 850 l 257
 1157 1342 l 257
 1157 1114 l 257
 432 796 l 257
 1153 486 l 257
 1153 262 l 257
EndSplineSet
EndChar

StartChar: logicalnot
Encoding: 172 172 327
Width: 1457
VWidth: 0
GlyphClass: 2
Flags: W
PickledData: "(dp1
S'org.robofab.postScriptHintData'
p2
(dp3
sS'com.typemytype.robofont.layerData'
p4
(dp5
S'b'
(dp6
S'name'
p7
S'logicalnot'
p8
sS'lib'
p9
(dp10
sS'unicodes'
p11
(tsS'width'
p12
F1463.2
sS'contours'
p13
(tsS'components'
p14
(tsS'anchors'
p15
(tsss."
LayerCount: 2
Fore
SplineSet
995 220 m 257
 995 609 l 257
 163 609 l 257
 163 814 l 257
 1228 814 l 257
 1228 220 l 257
 995 220 l 257
EndSplineSet
EndChar

StartChar: lozenge
Encoding: 9674 9674 329
Width: 1248
VWidth: 0
GlyphClass: 2
Flags: W
PickledData: "(dp1
S'org.robofab.postScriptHintData'
p2
(dp3
sS'com.typemytype.robofont.layerData'
p4
(dp5
s."
LayerCount: 2
Fore
SplineSet
593 226 m 257
 876 697 l 257
 599 1154 l 257
 316 697 l 257
 593 226 l 257
510 -40 m 257
 71 697 l 257
 516 1436 l 257
 679 1436 l 257
 1122 698 l 257
 673 -40 l 257
 510 -40 l 257
EndSplineSet
EndChar

StartChar: lslash
Encoding: 322 322 330
Width: 503
VWidth: 0
GlyphClass: 2
Flags: W
PickledData: "(dp1
S'org.robofab.postScriptHintData'
p2
(dp3
s."
LayerCount: 2
Fore
SplineSet
118 0 m 257
 118 727 l 257
 7 627 l 257
 7 845 l 257
 116 945 l 257
 116 1458 l 257
 366 1458 l 257
 366 1130 l 257
 468 1226 l 257
 468 1003 l 257
 367 904 l 257
 367 0 l 257
 118 0 l 257
EndSplineSet
EndChar

StartChar: m
Encoding: 109 109 331
Width: 1839
VWidth: 0
GlyphClass: 2
Flags: W
PickledData: "(dp1
S'org.robofab.postScriptHintData'
p2
(dp3
sS'com.typemytype.robofont.guides'
p4
(tsS'com.typemytype.robofont.layerData'
p5
(dp6
S'b'
(dp7
S'name'
p8
S'm'
sS'lib'
p9
(dp10
sS'unicodes'
p11
(tsS'width'
p12
F1873.95
sS'contours'
p13
(tsS'components'
p14
(tsS'anchors'
p15
(tsss."
LayerCount: 2
Fore
SplineSet
160 0 m 257
 160 696 l 258
 160 872 144 955 141 1026 c 257
 402 1026 l 257
 402 892 l 257
 451 983 563 1052 689 1052 c 256
 815 1052 935 993 996 862 c 257
 1071 970 1175 1052 1329 1052 c 256
 1587 1052 1706 883 1706 629 c 258
 1706 0 l 257
 1458 0 l 257
 1458 614 l 258
 1458 712 1427 851 1310 851 c 256
 1156 851 1058 708 1058 581 c 258
 1058 0 l 257
 810 0 l 257
 810 627 l 258
 810 715 787 851 653 851 c 256
 510 851 408 741 408 623 c 258
 408 0 l 257
 160 0 l 257
EndSplineSet
EndChar

StartChar: macron
Encoding: 175 175 332
Width: 756
VWidth: 0
GlyphClass: 2
Flags: W
PickledData: "(dp1
S'org.robofab.postScriptHintData'
p2
(dp3
sS'com.typemytype.robofont.layerData'
p4
(dp5
S'b'
(dp6
S'name'
p7
S'macron'
p8
sS'lib'
p9
(dp10
sS'unicodes'
p11
(tsS'width'
p12
F723
sS'contours'
p13
(tsS'components'
p14
(tsS'anchors'
p15
(tsss."
LayerCount: 2
Fore
SplineSet
66 1146 m 257
 66 1303 l 257
 690 1303 l 257
 690 1146 l 257
 66 1146 l 257
EndSplineSet
EndChar

StartChar: minus
Encoding: 8722 8722 335
Width: 1499
VWidth: 0
GlyphClass: 2
Flags: W
PickledData: "(dp1
S'org.robofab.postScriptHintData'
p2
(dp3
s."
LayerCount: 2
Fore
SplineSet
201 284 m 257
 201 486 l 257
 1297 486 l 257
 1297 284 l 257
 201 284 l 257
EndSplineSet
EndChar

StartChar: uni03BC
Encoding: 956 956 336
Width: 1230
VWidth: 0
GlyphClass: 2
Flags: W
PickledData: "(dp1
S'org.robofab.postScriptHintData'
p2
(dp3
s."
LayerCount: 2
Fore
SplineSet
801 285 m 257
 767 239 706 180 599 180 c 256
 483 180 433 251 433 440 c 258
 433 1082 l 257
 127 1082 l 257
 127 -316 l 257
 433 -316 l 257
 433 -15.4364 l 257
 455.165 -18.4655 478.502 -20 503 -20 c 256
 670 -20 769 58 829 152 c 257
 844 0 l 257
 1108 0 l 257
 1108 1082 l 257
 801 1082 l 257
 801 285 l 257
EndSplineSet
EndChar

StartChar: multiply
Encoding: 215 215 337
Width: 1272
VWidth: 0
GlyphClass: 2
Flags: W
PickledData: "(dp1
S'org.robofab.postScriptHintData'
p2
(dp3
sS'com.typemytype.robofont.layerData'
p4
(dp5
s."
LayerCount: 2
Fore
SplineSet
362 116 m 257
 201 278 l 257
 470 547 l 257
 201 816 l 257
 362 977 l 257
 631 709 l 257
 902 977 l 257
 1062 817 l 257
 792 547 l 257
 1062 276 l 257
 902 116 l 257
 631 386 l 257
 362 116 l 257
EndSplineSet
EndChar

StartChar: n
Encoding: 110 110 338
Width: 1224
VWidth: 0
GlyphClass: 2
Flags: W
PickledData: "(dp1
S'org.robofab.postScriptHintData'
p2
(dp3
sS'com.typemytype.robofont.layerData'
p4
(dp5
S'b'
(dp6
S'name'
p7
S'n'
sS'lib'
p8
(dp9
sS'unicodes'
p10
(tsS'width'
p11
F1240.05
sS'contours'
p12
(tsS'components'
p13
(tsS'anchors'
p14
(tsss."
LayerCount: 2
Fore
SplineSet
158 0 m 257
 158 635 l 258
 158 880 138 1026 138 1026 c 257
 401 1026 l 257
 401 889 l 257
 477 1003 615 1052 714 1052 c 256
 941 1052 1094 942 1094 585 c 258
 1094 0 l 257
 846 0 l 257
 846 602 l 258
 846 784 793 851 663 851 c 256
 572 851 406 768 406 614 c 258
 406 0 l 257
 158 0 l 257
EndSplineSet
EndChar

StartChar: nine
Encoding: 57 57 343
Width: 1272
VWidth: 0
GlyphClass: 2
Flags: W
PickledData: "(dp1
S'org.robofab.postScriptHintData'
p2
(dp3
sS'com.typemytype.robofont.layerData'
p4
(dp5
S'b'
(dp6
S'name'
p7
S'nine'
p8
sS'lib'
p9
(dp10
sS'unicodes'
p11
(tsS'width'
p12
F1235.4000000000001
sS'contours'
p13
((dp14
S'points'
p15
((dp16
S'segmentType'
p17
S'curve'
p18
sS'x'
F314
sS'smooth'
p19
I01
sS'y'
F1010
s(dp20
S'y'
F827
sS'x'
F314
sg19
I00
s(dp21
S'y'
F687
sS'x'
F393
sg19
I00
s(dp22
g17
S'curve'
p23
sS'x'
F604
sg19
I01
sS'y'
F687
s(dp24
S'y'
F687
sS'x'
F784
sg19
I00
s(dp25
S'y'
F803
sS'x'
F908
sg19
I00
s(dp26
g17
S'curve'
p27
sS'x'
F908
sg19
I01
sS'y'
F991
s(dp28
S'y'
F1166
sS'x'
F908
sg19
I00
s(dp29
S'y'
F1334
sS'x'
F815
sg19
I00
s(dp30
g17
S'curve'
p31
sS'x'
F605
sg19
I01
sS'y'
F1334
s(dp32
S'y'
F1334
sS'x'
F419
sg19
I00
s(dp33
S'y'
F1196
sS'x'
F314
sg19
I00
stp34
s(dp35
g15
((dp36
g17
S'curve'
p37
sS'x'
F555
sg19
I01
sS'y'
F-24
s(dp38
S'y'
F-24
sS'x'
F434
sg19
I00
s(dp39
S'y'
F13
sS'x'
F304
sg19
I00
s(dp40
g17
S'curve'
p41
sS'x'
F175
sg19
I00
sS'y'
F79
s(dp42
g17
S'line'
p43
sS'x'
F232
sg19
I00
sS'y'
F211
s(dp44
S'y'
F152
sS'x'
F346
sg19
I00
s(dp45
S'y'
F124
sS'x'
F450
sg19
I00
s(dp46
g17
S'curve'
p47
sS'x'
F542
sg19
I01
sS'y'
F124
s(dp48
S'y'
F124
sS'x'
F773
sg19
I00
s(dp49
S'y'
F308
sS'x'
F920
sg19
I00
s(dp50
g17
S'curve'
p51
sS'x'
F920
sg19
I01
sS'y'
F657
s(dp52
g17
S'line'
p53
sS'x'
F920
sg19
I00
sS'y'
F722
s(dp54
S'y'
F600
sS'x'
F856
sg19
I00
s(dp55
S'y'
F544
sS'x'
F742
sg19
I00
s(dp56
g17
S'curve'
p57
sS'x'
F577
sg19
I01
sS'y'
F544
s(dp58
S'y'
F544
sS'x'
F298
sg19
I00
s(dp59
S'y'
F735
sS'x'
F138
sg19
I00
s(dp60
g17
S'curve'
p61
sS'x'
F138
sg19
I01
sS'y'
F1004
s(dp62
S'y'
F1275
sS'x'
F138
sg19
I00
s(dp63
S'y'
F1483
sS'x'
F311
sg19
I00
s(dp64
g17
S'curve'
p65
sS'x'
F613
sg19
I01
sS'y'
F1483
s(dp66
S'y'
F1483
sS'x'
F939
sg19
I00
s(dp67
S'y'
F1231
sS'x'
F1095
sg19
I00
s(dp68
g17
S'curve'
p69
sS'x'
F1095
sg19
I01
sS'y'
F774
s(dp70
S'y'
F203
sS'x'
F1095
sg19
I00
s(dp71
S'y'
F-24
sS'x'
F855
sg19
I00
stp72
stp73
sS'components'
p74
(tsS'anchors'
p75
(tsss."
LayerCount: 2
Fore
SplineSet
601 728 m 256
 751 728 863 823 863 1016 c 256
 863 1150 772 1266 620 1266 c 256
 465 1266 365 1156 365 996 c 256
 365 844 442 728 601 728 c 256
558 -26 m 256
 449 -26 319 9 181 77 c 257
 273 283 l 257
 354 229 450 196 537 196 c 256
 710 196 868 317 868 629 c 258
 868 655 l 257
 799 550 682 517 576 517 c 256
 292 517 109 710 109 991 c 256
 109 1271 302 1483 609 1483 c 256
 932 1483 1121 1242 1121 771 c 256
 1121 305 918 -26 558 -26 c 256
EndSplineSet
EndChar

StartChar: notequal
Encoding: 8800 8800 345
Width: 1387
VWidth: 0
GlyphClass: 2
Flags: W
PickledData: "(dp1
S'org.robofab.postScriptHintData'
p2
(dp3
sS'com.typemytype.robofont.layerData'
p4
(dp5
S'b'
(dp6
S'name'
p7
S'notequal'
p8
sS'lib'
p9
(dp10
sS'unicodes'
p11
(tsS'width'
p12
F1362.5
sS'contours'
p13
(tsS'components'
p14
(tsS'anchors'
p15
(tsss."
LayerCount: 2
Fore
SplineSet
505 35 m 257
 310 66 l 257
 421 300 l 257
 155 300 l 257
 155 488 l 257
 517 488 l 257
 614 673 l 257
 155 673 l 257
 155 862 l 257
 704 862 l 257
 831 1122 l 257
 1032 1092 l 257
 918 862 l 257
 1224 862 l 257
 1224 673 l 257
 828 673 l 257
 728 488 l 257
 1224 488 l 257
 1224 300 l 257
 636 300 l 257
 505 35 l 257
EndSplineSet
EndChar

StartChar: numbersign
Encoding: 35 35 347
Width: 1465
VWidth: 0
GlyphClass: 2
Flags: W
PickledData: "(dp1
S'org.robofab.postScriptHintData'
p2
(dp3
sS'com.typemytype.robofont.layerData'
p4
(dp5
s."
LayerCount: 2
Fore
SplineSet
600 608 m 257
 830 608 l 257
 882 870 l 257
 652 870 l 257
 600 608 l 257
236 -10 m 257
 325 449 l 257
 89 449 l 257
 98 608 l 257
 357 608 l 257
 409 870 l 257
 142 870 l 257
 151 1028 l 257
 441 1028 l 257
 526 1462 l 257
 769 1462 l 257
 684 1028 l 257
 914 1028 l 257
 1000 1462 l 257
 1243 1462 l 257
 1158 1028 l 257
 1379 1028 l 257
 1372 870 l 257
 1125 870 l 257
 1073 608 l 257
 1325 608 l 257
 1318 449 l 257
 1042 449 l 257
 952 -10 l 257
 709 -10 l 257
 799 449 l 257
 569 449 l 257
 479 -10 l 257
 236 -10 l 257
EndSplineSet
EndChar

StartChar: o
Encoding: 111 111 348
Width: 1286
VWidth: 0
GlyphClass: 2
Flags: W
PickledData: "(dp1
S'org.robofab.postScriptHintData'
p2
(dp3
sS'com.typemytype.robofont.layerData'
p4
(dp5
S'b'
(dp6
S'name'
p7
S'o'
sS'lib'
p8
(dp9
sS'unicodes'
p10
(tsS'width'
p11
F1259.2
sS'contours'
p12
(tsS'components'
p13
(tsS'anchors'
p14
(tsss."
LayerCount: 2
Fore
SplineSet
648 -23 m 256
 280 -23 108 228 108 513 c 256
 108 805 287 1052 647 1052 c 256
 1016 1052 1178 808 1178 511 c 256
 1178 232 1007 -23 648 -23 c 256
643 177 m 256
 844 177 920 339 920 516 c 256
 920 698 837 851 644 851 c 256
 451 851 366 698 366 516 c 256
 366 339 444 177 643 177 c 256
EndSplineSet
EndChar

StartChar: oe
Encoding: 339 339 355
Width: 2003
VWidth: 0
GlyphClass: 2
Flags: W
PickledData: "(dp1
S'org.robofab.postScriptHintData'
p2
(dp3
sS'com.typemytype.robofont.layerData'
p4
(dp5
S'b'
(dp6
S'name'
p7
S'oe'
p8
sS'lib'
p9
(dp10
sS'unicodes'
p11
(tsS'width'
p12
F1979.8
sS'contours'
p13
(tsS'components'
p14
((dp15
S'transformation'
p16
(I1
I0
I0
I1
I-6
I0
tp17
sS'baseGlyph'
p18
S'o'
s(dp19
g16
(I1
I0
I0
I1
I811
I0
tp20
sg18
S'e'
stp21
sS'anchors'
p22
(tsss."
LayerCount: 2
Fore
SplineSet
1618 641 m 257
 1618 662 l 258
 1618 791 1504 857 1389 857 c 256
 1265 857 1165 791 1148 641 c 257
 1618 641 l 257
642 177 m 256
 816 177 892 333 892 511 c 256
 892 703 819 851 635 851 c 256
 457 851 360 703 360 511 c 256
 360 328 446 177 642 177 c 256
640 -22 m 256
 305 -22 101 201 101 511 c 256
 101 817 290 1052 632 1052 c 256
 820 1052 948 973 1020 873 c 257
 1100 988 1204 1055 1394 1055 c 256
 1688 1055 1858 834 1858 499 c 258
 1858 433 l 257
 1146 433 l 257
 1148 410 l 258
 1161 249 1273 177 1458 177 c 256
 1630 177 1775 288 1775 288 c 257
 1843 107 l 257
 1843 107 1683 -22 1429 -22 c 256
 1270 -22 1098 51 1022 159 c 257
 956 54 794 -22 640 -22 c 256
EndSplineSet
EndChar

StartChar: ogonek
Encoding: 731 731 356
Width: 508
VWidth: 0
GlyphClass: 2
Flags: W
PickledData: "(dp1
S'org.robofab.postScriptHintData'
p2
(dp3
s."
LayerCount: 2
Fore
SplineSet
234 -356 m 256
 108 -356 22 -317 22 -227 c 256
 22 -80 192 -16 266 21 c 257
 401 23 l 257
 305 -31 252 -108 252 -157 c 256
 252 -197 286 -204 315 -204 c 256
 380 -204 465 -174 488 -167 c 257
 488 -315 l 257
 399 -342 310 -356 234 -356 c 256
EndSplineSet
EndChar

StartChar: one
Encoding: 49 49 361
Width: 1272
VWidth: 0
GlyphClass: 2
Flags: W
PickledData: "(dp1
S'org.robofab.postScriptHintData'
p2
(dp3
sS'com.typemytype.robofont.layerData'
p4
(dp5
S'b'
(dp6
S'name'
p7
S'one'
p8
sS'lib'
p9
(dp10
sS'unicodes'
p11
(tsS'width'
p12
F1234.0999999999999
sS'contours'
p13
(tsS'components'
p14
(tsS'anchors'
p15
(tsss."
LayerCount: 2
Fore
SplineSet
293 0 m 257
 293 202 l 257
 550 202 l 257
 550 1198 l 257
 482 1166 373 1120 259 1084 c 257
 259 1314 l 257
 366 1348 490 1407 579 1456 c 257
 804 1456 l 257
 804 198 l 257
 1066 198 l 257
 1066 0 l 257
 293 0 l 257
EndSplineSet
EndChar

StartChar: onehalf
Encoding: 189 189 362
Width: 2554
VWidth: 0
GlyphClass: 2
Flags: W
PickledData: "(dp1
S'org.robofab.postScriptHintData'
p2
(dp3
sS'com.typemytype.robofont.layerData'
p4
(dp5
s."
LayerCount: 2
Fore
SplineSet
194 619 m 257
 194 786 l 257
 405 786 l 257
 405 1257 l 257
 181 1204 l 257
 181 1379 l 257
 181 1379 455 1461 447 1456 c 257
 603 1456 l 257
 603 784 l 257
 787 784 l 257
 787 619 l 257
 194 619 l 257
638 0 m 257
 1523 1456 l 257
 1736 1456 l 257
 852 0 l 257
 638 0 l 257
2005 562 m 256
 2005 642.64 1966.71 675 1898 675 c 256
 1830 675 1734 648 1653 608 c 257
 1591 768 l 257
 1694 822 1812 851 1913 851 c 256
 2072 851 2198 775 2207 591 c 257
 2207 580 l 258
 2207 458 2110 356 1994 265 c 258
 1901 193 l 257
 2195 193 l 257
 2195 0 l 257
 1605 0 l 257
 1605 169 l 257
 1879 389 l 258
 1980 471 2005 514 2005 562 c 256
EndSplineSet
EndChar

StartChar: onequarter
Encoding: 188 188 363
Width: 2113
VWidth: 0
GlyphClass: 2
Flags: W
PickledData: "(dp1
S'org.robofab.postScriptHintData'
p2
(dp3
sS'com.typemytype.robofont.layerData'
p4
(dp5
s."
LayerCount: 2
Fore
SplineSet
1551 329 m 257
 1729 329 l 257
 1729 583 l 257
 1551 329 l 257
629 0 m 257
 1514 1456 l 257
 1727 1456 l 257
 843 0 l 257
 629 0 l 257
1731 1 m 257
 1731 195 l 257
 1362 195 l 257
 1362 308 l 257
 1731 814 l 257
 1911 814 l 257
 1911 329 l 257
 2027 329 l 257
 2027 195 l 257
 1911 195 l 257
 1911 1 l 257
 1731 1 l 257
225 619 m 257
 225 786 l 257
 436 786 l 257
 436 1257 l 257
 212 1204 l 257
 212 1379 l 257
 212 1379 486 1461 478 1456 c 257
 634 1456 l 257
 634 784 l 257
 818 784 l 257
 818 619 l 257
 225 619 l 257
EndSplineSet
EndChar

StartChar: uni00B9
Encoding: 185 185 364
Width: 851
VWidth: 0
GlyphClass: 2
Flags: W
PickledData: "(dp1
S'org.robofab.postScriptHintData'
p2
(dp3
sS'com.typemytype.robofont.layerData'
p4
(dp5
s."
LayerCount: 2
Fore
SplineSet
147 625 m 257
 147 790 l 257
 366 790 l 257
 366 1270 l 257
 376.586 1275.77 152.84 1221.21 136 1218 c 257
 136 1389 l 257
 136 1389 422 1475 410 1468 c 257
 570 1464 l 257
 570 788 l 257
 759 788 l 257
 759 625 l 257
 147 625 l 257
EndSplineSet
EndChar

StartChar: ordfeminine
Encoding: 170 170 366
Width: 868
VWidth: 0
GlyphClass: 2
Flags: W
PickledData: "(dp1
S'org.robofab.postScriptHintData'
p2
(dp3
sS'com.typemytype.robofont.layerData'
p4
(dp5
S'b'
(dp6
S'name'
p7
S'ordfeminine'
p8
sS'lib'
p9
(dp10
sS'unicodes'
p11
(tsS'width'
p12
F797.10000000000002
sS'contours'
p13
(tsS'components'
p14
(tsS'anchors'
p15
(tsss."
LayerCount: 2
Fore
SplineSet
361 850 m 256
 434 850 548 897 548 1029 c 258
 548 1043 l 257
 336 1043 275 1037 275 936 c 256
 275 882 320 850 361 850 c 256
348 721 m 256
 225 721 107 792 107 936 c 256
 107 1073 194 1152 373 1152 c 258
 551 1152 l 257
 551 1192 l 258
 551 1284 493 1315 421 1315 c 256
 318 1315 196 1262 196 1262 c 257
 138 1407 l 257
 138 1407 259 1476 444 1476 c 256
 606 1476 748 1406 748 1184 c 256
 748 988 750 993 751 908 c 256
 754 794 758 774 761 754 c 257
 580 754 l 257
 563 852 l 257
 547 798 477 721 348 721 c 256
EndSplineSet
EndChar

StartChar: ordmasculine
Encoding: 186 186 367
Width: 913
VWidth: 0
GlyphClass: 2
Flags: W
PickledData: "(dp1
S'org.robofab.postScriptHintData'
p2
(dp3
sS'com.typemytype.robofont.layerData'
p4
(dp5
S'b'
(dp6
S'name'
p7
S'ordmasculine'
p8
sS'lib'
p9
(dp10
sS'unicodes'
p11
(tsS'width'
p12
F887.85000000000002
sS'contours'
p13
(tsS'components'
p14
(tsS'anchors'
p15
(tsss."
LayerCount: 2
Fore
SplineSet
460 713 m 256
 205 713 73 871 73 1080 c 256
 73 1283 214 1443 457 1443 c 256
 702 1443 840 1279 840 1076 c 256
 840 878 704 713 460 713 c 256
457 873 m 256
 571 873 647 954 647 1076 c 256
 647 1206 571 1283 458 1283 c 256
 347 1283 266 1203 266 1078 c 256
 266 951 338 873 457 873 c 256
EndSplineSet
EndChar

StartChar: oslash
Encoding: 248 248 368
Width: 1271
VWidth: 0
GlyphClass: 2
Flags: W
PickledData: "(dp1
S'org.robofab.postScriptHintData'
p2
(dp3
sS'com.typemytype.robofont.layerData'
p4
(dp5
S'b'
(dp6
S'name'
p7
S'oslash'
p8
sS'lib'
p9
(dp10
sS'unicodes'
p11
(tsS'width'
p12
F1255
sS'contours'
p13
(tsS'components'
p14
(tsS'anchors'
p15
(tsss."
LayerCount: 2
Fore
SplineSet
734 838 m 257
 458 247 l 257
 394 311 366 411 366 516 c 256
 366 698 451 851 644 851 c 256
 677 851 707 846 734 838 c 257
828 782 m 257
 891 720 920 623 920 516 c 256
 920 339 844 177 643 177 c 256
 609 177 579 181 552 190 c 257
 828 782 l 257
648 -23 m 256
 1007 -23 1178 232 1178 511 c 256
 1178 718 1099 900 926 991 c 257
 1007 1165 l 257
 908 1211 l 257
 824 1030 l 257
 771 1044 712 1052 647 1052 c 256
 287 1052 108 805 108 513 c 256
 108 316 190 136 362 43 c 257
 273 -148 l 257
 372 -195 l 257
 464 1 l 257
 519 -15 580 -23 648 -23 c 256
EndSplineSet
EndChar

StartChar: p
Encoding: 112 112 371
Width: 1273
VWidth: 0
GlyphClass: 2
Flags: W
PickledData: "(dp1
S'org.robofab.postScriptHintData'
p2
(dp3
sS'com.typemytype.robofont.layerData'
p4
(dp5
S'b'
(dp6
S'name'
p7
S'p'
sS'lib'
p8
(dp9
sS'unicodes'
p10
(tsS'width'
p11
F1260.25
sS'contours'
p12
(tsS'components'
p13
(tsS'anchors'
p14
(tsss."
LayerCount: 2
Fore
SplineSet
650 177 m 256
 840 177 910 338 910 514 c 256
 910 697 833 851 649 851 c 256
 468 851 390 699 390 519 c 256
 390 340 461 177 650 177 c 256
160 -395 m 257
 160 681 l 258
 160 789 149 918 141 1026 c 257
 404 1026 l 257
 404 879 l 257
 417 940 532 1052 721 1052 c 256
 1000 1052 1168 802 1168 525 c 256
 1168 248 1002 -23 707 -23 c 256
 526 -23 416 89 404 141 c 257
 404 -395 l 257
 160 -395 l 257
EndSplineSet
EndChar

StartChar: paragraph
Encoding: 182 182 372
Width: 1226
VWidth: 0
GlyphClass: 2
Flags: W
PickledData: "(dp1
S'org.robofab.postScriptHintData'
p2
(dp3
sS'com.typemytype.robofont.layerData'
p4
(dp5
S'b'
(dp6
S'name'
p7
S'paragraph'
p8
sS'lib'
p9
(dp10
sS'unicodes'
p11
(tsS'width'
p12
F1211.95
sS'contours'
p13
(tsS'components'
p14
(tsS'anchors'
p15
(tsss."
LayerCount: 2
Fore
SplineSet
412 -178 m 257
 412 789 l 257
 196 808 91 929 91 1129 c 256
 91 1391 292 1455 570 1455 c 258
 1064 1455 l 257
 1064 1263 l 257
 991 1263 l 257
 991 -178 l 257
 785 -178 l 257
 785 1263 l 257
 617 1263 l 257
 617 -178 l 257
 412 -178 l 257
EndSplineSet
EndChar

StartChar: parenleft
Encoding: 40 40 373
Width: 689
VWidth: 0
GlyphClass: 2
Flags: W
PickledData: "(dp1
S'org.robofab.postScriptHintData'
p2
(dp3
sS'com.typemytype.robofont.layerData'
p4
(dp5
S'b'
(dp6
S'name'
p7
S'parenleft'
p8
sS'lib'
p9
(dp10
sS'unicodes'
p11
(tsS'width'
p12
F639.35000000000002
sS'contours'
p13
(tsS'components'
p14
(tsS'anchors'
p15
(tsss."
LayerCount: 2
Fore
SplineSet
406 -171 m 257
 245 74 118 378 118 665 c 256
 118 968 231 1253 397 1516 c 257
 639 1516 l 257
 466 1245 366 940 366 663 c 256
 366 405 480 89 639 -171 c 257
 406 -171 l 257
EndSplineSet
EndChar

StartChar: parenright
Encoding: 41 41 374
Width: 689
VWidth: 0
GlyphClass: 2
Flags: W
PickledData: "(dp1
S'org.robofab.postScriptHintData'
p2
(dp3
sS'com.typemytype.robofont.layerData'
p4
(dp5
S'b'
(dp6
S'name'
p7
S'parenright'
p8
sS'lib'
p9
(dp10
sS'unicodes'
p11
(tsS'width'
p12
F639.35000000000002
sS'contours'
p13
(tsS'components'
p14
(tsS'anchors'
p15
(tsss."
LayerCount: 2
Fore
SplineSet
51 -191 m 257
 224 80 324 385 324 663 c 256
 324 921 210 1237 51 1496 c 257
 285 1496 l 257
 445 1252 572 947 572 660 c 256
 572 357 459 72 293 -191 c 257
 51 -191 l 257
EndSplineSet
EndChar

StartChar: partialdiff
Encoding: 8706 8706 375
Width: 1162
VWidth: 0
GlyphClass: 2
Flags: W
PickledData: "(dp1
S'org.robofab.postScriptHintData'
p2
(dp3
sS'com.typemytype.robofont.layerData'
p4
(dp5
S'b'
(dp6
S'name'
p7
S'partialdiff'
p8
sS'lib'
p9
(dp10
sS'unicodes'
p11
(tsS'width'
p12
F1163.95
sS'contours'
p13
(tsS'components'
p14
(tsS'anchors'
p15
(tsss."
LayerCount: 2
Fore
SplineSet
478 179 m 256
 623 179 739 279 792 644 c 257
 755 725 675 806 585 806 c 256
 423 806 300 629 300 424 c 256
 300 276 367 179 478 179 c 256
478 -24 m 256
 194 -24 47 172 47 428 c 256
 47 749 285 1002 572 1002 c 256
 690 1002 784 947 807 886 c 257
 807 900 807 958 806 972 c 256
 795 1171 692 1297 545 1297 c 256
 401 1297 291 1235 243 1211 c 257
 229 1390 l 257
 317 1455 442 1495 560 1495 c 256
 872 1495 1062 1289 1062 824 c 256
 1062 405 876 -24 478 -24 c 256
EndSplineSet
EndChar

StartChar: percent
Encoding: 37 37 377
Width: 1899
VWidth: 0
GlyphClass: 2
Flags: W
PickledData: "(dp1
S'org.robofab.postScriptHintData'
p2
(dp3
sS'com.typemytype.robofont.layerData'
p4
(dp5
S'b'
(dp6
S'name'
p7
S'percent'
p8
sS'lib'
p9
(dp10
sS'unicodes'
p11
(tsS'width'
p12
F1769.3
sS'contours'
p13
(tsS'components'
p14
(tsS'anchors'
p15
(tsss."
LayerCount: 2
Fore
SplineSet
1434 -20 m 256
 1209 -20 1066 142 1066 359 c 256
 1066 569 1207 740 1433 740 c 256
 1658 740 1802 568 1802 359 c 256
 1802 141 1659 -20 1434 -20 c 256
1433 136 m 256
 1536 136 1591 199 1591 359 c 256
 1591 506 1544 583 1433 583 c 256
 1323 583 1276 508 1276 360 c 256
 1276 201 1330 136 1433 136 c 256
386 0 m 257
 1317 1456 l 257
 1520 1456 l 257
 589 0 l 257
 386 0 l 257
465 715 m 256
 241 715 97 854 97 1094 c 256
 97 1328 239 1474 465 1474 c 256
 690 1474 833 1326 833 1094 c 256
 833 853 690 715 465 715 c 256
465 871 m 256
 568 871 622 934 622 1093 c 256
 622 1241 576 1318 465 1318 c 256
 354 1318 308 1242 308 1094 c 256
 308 935 362 871 465 871 c 256
EndSplineSet
EndChar

StartChar: period
Encoding: 46 46 378
Width: 539
VWidth: 0
GlyphClass: 2
Flags: W
PickledData: "(dp1
S'org.robofab.postScriptHintData'
p2
(dp3
sS'com.typemytype.robofont.layerData'
p4
(dp5
s."
LayerCount: 2
Fore
SplineSet
111 0 m 257
 111 271 l 257
 401 271 l 257
 401 0 l 257
 111 0 l 257
EndSplineSet
EndChar

StartChar: periodcentered
Encoding: 183 183 379
Width: 596
VWidth: 0
GlyphClass: 2
Flags: W
PickledData: "(dp1
S'org.robofab.postScriptHintData'
p2
(dp3
sS'com.typemytype.robofont.layerData'
p4
(dp5
S'b'
(dp6
S'name'
p7
S'middot'
p8
sS'lib'
p9
(dp10
sS'unicodes'
p11
(tsS'width'
p12
I509
sS'contours'
p13
(tsS'components'
p14
(tsS'anchors'
p15
(tsss."
LayerCount: 2
Fore
SplineSet
187 561 m 257
 187 843 l 257
 491 843 l 257
 491 561 l 257
 187 561 l 257
EndSplineSet
EndChar

StartChar: perthousand
Encoding: 8240 8240 380
Width: 2755
VWidth: 0
GlyphClass: 2
Flags: W
PickledData: "(dp1
S'org.robofab.postScriptHintData'
p2
(dp3
sS'com.typemytype.robofont.layerData'
p4
(dp5
S'b'
(dp6
S'name'
p7
S'perthousand'
p8
sS'lib'
p9
(dp10
sS'unicodes'
p11
(tsS'width'
p12
F2581.1999999999998
sS'contours'
p13
(tsS'components'
p14
(tsS'anchors'
p15
(tsss."
LayerCount: 2
Fore
SplineSet
2290 -20 m 256
 2066 -20 1922 142 1922 359 c 256
 1922 569 2063 740 2289 740 c 256
 2514 740 2657 568 2657 359 c 256
 2657 141 2515 -20 2290 -20 c 256
2290 136 m 256
 2393 136 2447 199 2447 359 c 256
 2447 506 2400 583 2289 583 c 256
 2178 583 2132 508 2132 360 c 256
 2132 201 2187 136 2290 136 c 256
EndSplineSet
Refer: 377 37 N 1 0 0 1 0 0 2
EndChar

StartChar: pi
Encoding: 960 960 381
Width: 1477
VWidth: 0
GlyphClass: 2
Flags: W
PickledData: "(dp1
S'org.robofab.postScriptHintData'
p2
(dp3
sS'com.typemytype.robofont.layerData'
p4
(dp5
S'b'
(dp6
S'name'
p7
S'pi'
p8
sS'lib'
p9
(dp10
sS'unicodes'
p11
(tsS'width'
p12
F1288
sS'contours'
p13
(tsS'components'
p14
(tsS'anchors'
p15
(tsss."
LayerCount: 2
Fore
SplineSet
1147 -13 m 256
 1225 -13 1290 11 1324 44 c 257
 1324 172 l 257
 1296 162 1266 157 1225 157 c 256
 1168 157 1118 169 1118 238 c 256
 1118 344 1122 656 1136 861 c 257
 1372 861 l 257
 1372 1082 l 257
 484 1082 l 258
 247 1082 173 946 173 730 c 257
 269 730 l 257
 281 806 320 860 400 861 c 257
 483 861 l 257
 419 388 l 257
 391 172 257 111 185 111 c 257
 185 4 l 257
 530 4 600 105 611 323 c 258
 637 861 l 257
 973 861 l 257
 935 660 904 342 904 211 c 256
 904 32 1010 -13 1147 -13 c 256
EndSplineSet
EndChar

StartChar: plus
Encoding: 43 43 382
Width: 1268
VWidth: 0
GlyphClass: 2
Flags: W
PickledData: "(dp1
S'org.robofab.postScriptHintData'
p2
(dp3
sS'com.typemytype.robofont.layerData'
p4
(dp5
S'b'
(dp6
S'name'
p7
S'plus'
p8
sS'lib'
p9
(dp10
sS'unicodes'
p11
(tsS'width'
p12
F1206.9000000000001
sS'contours'
p13
(tsS'components'
p14
(tsS'anchors'
p15
(tsss."
LayerCount: 2
Fore
SplineSet
516 77 m 257
 516 470 l 257
 137 470 l 257
 137 676 l 257
 519 676 l 257
 519 1071 l 257
 750 1071 l 257
 750 676 l 257
 1130 676 l 257
 1130 470 l 257
 749 470 l 257
 749 77 l 257
 516 77 l 257
EndSplineSet
EndChar

StartChar: plusminus
Encoding: 177 177 383
Width: 1272
VWidth: 0
GlyphClass: 2
Flags: W
PickledData: "(dp1
S'org.robofab.postScriptHintData'
p2
(dp3
sS'com.typemytype.robofont.layerData'
p4
(dp5
S'b'
(dp6
S'name'
p7
S'plusminus'
p8
sS'lib'
p9
(dp10
sS'unicodes'
p11
(tsS'width'
p12
F1234.75
sS'contours'
p13
(tsS'components'
p14
(tsS'anchors'
p15
(tsss."
LayerCount: 2
Fore
SplineSet
190 0 m 257
 190 184 l 257
 1080 184 l 257
 1080 0 l 257
 190 0 l 257
515 291 m 257
 515 592 l 257
 190 592 l 257
 190 792 l 257
 509 792 l 257
 509 1099 l 257
 746 1099 l 257
 746 792 l 257
 1078 792 l 257
 1078 592 l 257
 756 592 l 257
 756 291 l 257
 515 291 l 257
EndSplineSet
EndChar

StartChar: product
Encoding: 8719 8719 384
Width: 1568
VWidth: 0
GlyphClass: 2
Flags: W
PickledData: "(dp1
S'org.robofab.postScriptHintData'
p2
(dp3
sS'com.typemytype.robofont.guides'
p4
(tsS'com.typemytype.robofont.layerData'
p5
(dp6
S'b'
(dp7
S'name'
p8
S'product'
p9
sS'lib'
p10
(dp11
sS'unicodes'
p12
(tsS'width'
p13
F1568
sS'contours'
p14
(tsS'components'
p15
(tsS'anchors'
p16
(tsss."
LayerCount: 2
Fore
SplineSet
195 -100 m 257
 195 1255 l 257
 38 1255 l 257
 38 1456 l 257
 1452 1456 l 257
 1455 1255 l 257
 1330 1255 l 257
 1330 -100 l 257
 1045 -100 l 257
 1045 1255 l 257
 472 1255 l 257
 472 -100 l 257
 195 -100 l 257
EndSplineSet
EndChar

StartChar: q
Encoding: 113 113 385
Width: 1250
VWidth: 0
GlyphClass: 2
Flags: W
PickledData: "(dp1
S'org.robofab.postScriptHintData'
p2
(dp3
sS'com.typemytype.robofont.layerData'
p4
(dp5
S'b'
(dp6
S'name'
p7
S'q'
sS'lib'
p8
(dp9
sS'unicodes'
p10
(tsS'width'
p11
F1254.3
sS'contours'
p12
(tsS'components'
p13
(tsS'anchors'
p14
(tsss."
LayerCount: 2
Fore
SplineSet
622 177 m 256
 810 177 882 338 882 511 c 256
 882 697 803 851 620 851 c 256
 439 851 363 698 363 516 c 256
 363 339 433 177 622 177 c 256
868 -395 m 257
 868 82 l 257
 784 15 682 -23 587 -23 c 256
 258 -23 105 250 105 528 c 256
 105 803 274 1052 589 1052 c 256
 679 1052 787 1011 870 916 c 257
 870 1026 l 257
 1123 1026 l 257
 1115 918 1113 830 1113 730 c 258
 1113 -395 l 257
 868 -395 l 257
EndSplineSet
EndChar

StartChar: question
Encoding: 63 63 386
Width: 1018
VWidth: 0
GlyphClass: 2
Flags: W
PickledData: "(dp1
S'org.robofab.postScriptHintData'
p2
(dp3
sS'com.typemytype.robofont.layerData'
p4
(dp5
S'b'
(dp6
S'name'
p7
S'question'
p8
sS'lib'
p9
(dp10
sS'unicodes'
p11
(tsS'width'
p12
F1055.9000000000001
sS'contours'
p13
(tsS'components'
p14
(tsS'anchors'
p15
(tsss."
LayerCount: 2
Fore
SplineSet
259 0 m 257
 259 273 l 257
 572 273 l 257
 572 0 l 257
 259 0 l 257
301 411 m 257
 301 548 l 258
 301 810 651 920 651 1117 c 256
 651 1227 561 1268 448 1268 c 256
 331 1268 196 1224 146 1202 c 257
 146 1413 l 257
 161 1421 279 1485 471 1485 c 256
 702 1485 908 1367 908 1124 c 256
 908 821 500 753 500 476 c 258
 500 411 l 257
 301 411 l 257
EndSplineSet
EndChar

StartChar: quotedbl
Encoding: 34 34 388
Width: 703
VWidth: 0
GlyphClass: 2
Flags: W
PickledData: "(dp1
S'org.robofab.postScriptHintData'
p2
(dp3
sS'com.typemytype.robofont.layerData'
p4
(dp5
S'b'
(dp6
S'name'
p7
S'quotedbl'
p8
sS'lib'
p9
(dp10
sS'unicodes'
p11
(tsS'width'
p12
F785.64999999999998
sS'contours'
p13
(tsS'components'
p14
(tsS'anchors'
p15
(tsss."
LayerCount: 2
Fore
SplineSet
458 957 m 257
 405 1456 l 257
 643 1456 l 257
 592 957 l 257
 458 957 l 257
115 957 m 257
 62 1456 l 257
 301 1456 l 257
 250 957 l 257
 115 957 l 257
EndSplineSet
EndChar

StartChar: quotedblbase
Encoding: 8222 8222 389
Width: 1024
VWidth: 0
GlyphClass: 2
Flags: W
PickledData: "(dp1
S'org.robofab.postScriptHintData'
p2
(dp3
s."
LayerCount: 2
Fore
SplineSet
487 -220 m 257
 599 262 l 257
 872 262 l 257
 703 -220 l 257
 487 -220 l 257
87 -220 m 257
 198 262 l 257
 471 262 l 257
 309 -220 l 257
 87 -220 l 257
EndSplineSet
EndChar

StartChar: quotedblleft
Encoding: 8220 8220 390
Width: 1024
VWidth: 0
GlyphClass: 2
Flags: W
PickledData: "(dp1
S'org.robofab.postScriptHintData'
p2
(dp3
sS'com.typemytype.robofont.layerData'
p4
(dp5
S'b'
(dp6
S'name'
p7
S'quotedblleft'
p8
sS'lib'
p9
(dp10
sS'unicodes'
p11
(tsS'width'
p12
F1024
sS'contours'
p13
(tsS'components'
p14
(tsS'anchors'
p15
(tsss."
LayerCount: 2
Fore
SplineSet
592 865 m 257
 771 1456 l 257
 981 1456 l 257
 868 865 l 257
 592 865 l 257
130 865 m 257
 321 1456 l 257
 530 1456 l 257
 416 865 l 257
 130 865 l 257
EndSplineSet
EndChar

StartChar: quotedblright
Encoding: 8221 8221 391
Width: 1024
VWidth: 0
GlyphClass: 2
Flags: W
PickledData: "(dp1
S'org.robofab.postScriptHintData'
p2
(dp3
sS'com.typemytype.robofont.layerData'
p4
(dp5
S'b'
(dp6
S'name'
p7
S'quotedblright'
p8
sS'lib'
p9
(dp10
sS'unicodes'
p11
(tsS'width'
p12
F1024
sS'contours'
p13
(tsS'components'
p14
(tsS'anchors'
p15
(tsss."
LayerCount: 2
Fore
SplineSet
592 865 m 257
 706 1456 l 257
 978 1456 l 257
 807 865 l 257
 592 865 l 257
176 865 m 257
 286 1456 l 257
 562 1456 l 257
 393 865 l 257
 176 865 l 257
EndSplineSet
EndChar

StartChar: quoteleft
Encoding: 8216 8216 392
Width: 576
VWidth: 0
GlyphClass: 2
Flags: W
PickledData: "(dp1
S'org.robofab.postScriptHintData'
p2
(dp3
sS'com.typemytype.robofont.layerData'
p4
(dp5
S'b'
(dp6
S'name'
p7
S'quoteleft'
p8
sS'lib'
p9
(dp10
sS'unicodes'
p11
(tsS'width'
p12
F518.5
sS'contours'
p13
(tsS'components'
p14
(tsS'anchors'
p15
(tsss."
LayerCount: 2
Fore
SplineSet
308 865 m 257
 142 1456 l 257
 426 1456 l 257
 464 865 l 257
 308 865 l 257
EndSplineSet
EndChar

StartChar: quoteright
Encoding: 8217 8217 393
Width: 632
VWidth: 0
GlyphClass: 2
Flags: W
PickledData: "(dp1
S'org.robofab.postScriptHintData'
p2
(dp3
sS'com.typemytype.robofont.layerData'
p4
(dp5
S'b'
(dp6
S'name'
p7
S'quoteright'
p8
sS'lib'
p9
(dp10
g4
(dp11
S'b'
(dp12
g7
S'quoteleft'
p13
sg9
(dp14
sS'unicodes'
p15
(tsS'width'
p16
I494
sS'contours'
p17
(tsS'components'
p18
(tsS'anchors'
p19
(tssssg15
(tsg16
F537.25
sg17
((dp20
S'points'
p21
((dp22
S'segmentType'
p23
S'line'
p24
sS'x'
F416
sS'smooth'
p25
I00
sS'y'
F888
s(dp26
g23
S'line'
p27
sS'x'
F300
sg25
I00
sS'y'
F888
s(dp28
g23
S'line'
p29
sS'x'
F150
sg25
I00
sS'y'
F1456
s(dp30
g23
S'line'
p31
sS'x'
F360
sg25
I00
sS'y'
F1456
stp32
stp33
sg18
(tsg19
(tsss."
LayerCount: 2
Fore
SplineSet
112 866 m 257
 210 1456 l 257
 490 1456 l 257
 294 866 l 257
 112 866 l 257
EndSplineSet
EndChar

StartChar: quotesinglbase
Encoding: 8218 8218 394
Width: 696
VWidth: 0
GlyphClass: 2
Flags: W
PickledData: "(dp1
S'org.robofab.postScriptHintData'
p2
(dp3
sS'com.typemytype.robofont.layerData'
p4
(dp5
S'b'
(dp6
S'name'
p7
S'quotesinglbase'
p8
sS'lib'
p9
(dp10
sS'unicodes'
p11
(tsS'width'
p12
F595.70000000000005
sS'contours'
p13
(tsS'components'
p14
(tsS'anchors'
p15
(tsss."
LayerCount: 2
Fore
SplineSet
159 -325 m 257
 274 262 l 257
 549 262 l 257
 379 -325 l 257
 159 -325 l 257
EndSplineSet
EndChar

StartChar: quotesingle
Encoding: 39 39 395
Width: 484
VWidth: 0
GlyphClass: 2
Flags: W
PickledData: "(dp1
S'org.robofab.postScriptHintData'
p2
(dp3
sS'com.typemytype.robofont.layerData'
p4
(dp5
S'b'
(dp6
S'name'
p7
S'quotesingle'
p8
sS'lib'
p9
(dp10
sS'unicodes'
p11
(tsS'width'
p12
F507.85000000000002
sS'contours'
p13
(tsS'components'
p14
(tsS'anchors'
p15
(tsss."
LayerCount: 2
Fore
SplineSet
170 910 m 257
 131 1456 l 257
 389 1456 l 257
 352 910 l 257
 170 910 l 257
EndSplineSet
EndChar

StartChar: r
Encoding: 114 114 396
Width: 780
VWidth: 0
GlyphClass: 2
Flags: W
PickledData: "(dp1
S'org.robofab.postScriptHintData'
p2
(dp3
sS'com.typemytype.robofont.layerData'
p4
(dp5
S'b'
(dp6
S'name'
p7
S'r'
sS'lib'
p8
(dp9
sS'unicodes'
p10
(tsS'width'
p11
F818.89999999999998
sS'contours'
p12
(tsS'components'
p13
(tsS'anchors'
p14
(tsss."
LayerCount: 2
Fore
SplineSet
162 0 m 257
 162 766 l 258
 162 900 142 1026 142 1026 c 257
 406 1026 l 257
 406 891 l 257
 481 989 556 1052 664 1052 c 256
 693 1052 728 1047 766 1037 c 257
 766 820 l 257
 720 835 678 842 642 842 c 256
 512 842 409 758 409 581 c 258
 409 0 l 257
 162 0 l 257
EndSplineSet
EndChar

StartChar: radical
Encoding: 8730 8730 398
Width: 1314
VWidth: 0
GlyphClass: 2
Flags: W
PickledData: "(dp1
S'org.robofab.postScriptHintData'
p2
(dp3
sS'com.typemytype.robofont.layerData'
p4
(dp5
s."
LayerCount: 2
Fore
SplineSet
515 -142 m 257
 210 635 l 257
 207 634 50 605 50 605 c 257
 5 785 l 257
 375 843 l 257
 594 263 l 257
 944 1554 l 257
 1172 1554 l 257
 720 -142 l 257
 515 -142 l 257
EndSplineSet
EndChar

StartChar: registered
Encoding: 174 174 402
Width: 1713
VWidth: 0
GlyphClass: 2
Flags: W
PickledData: "(dp1
S'org.robofab.postScriptHintData'
p2
(dp3
sS'com.typemytype.robofont.layerData'
p4
(dp5
S'b'
(dp6
S'name'
p7
S'registered'
p8
sS'lib'
p9
(dp10
sS'unicodes'
p11
(tsS'width'
p12
F1727.05
sS'contours'
p13
(tsS'components'
p14
(tsS'anchors'
p15
(tsss."
LayerCount: 2
Fore
SplineSet
857 -22 m 256
 443 -22 106 318 106 732 c 256
 106 1145 443 1483 857 1483 c 256
 1270 1483 1607 1145 1607 732 c 256
 1607 318 1270 -22 857 -22 c 256
855 93 m 256
 1199 93 1473 383 1473 729 c 256
 1473 1074 1199 1361 855 1361 c 256
 510 1361 237 1074 237 729 c 256
 237 383 510 93 855 93 c 256
735 788 m 257
 825 788 l 258
 945 788 1019 807 1019 895 c 256
 1019 993 988 1003 843 1003 c 258
 735 1003 l 257
 735 788 l 257
519 290 m 257
 519 1171 l 257
 837 1171 l 258
 1115 1171 1233 1078 1233 907 c 256
 1233 810 1196 703 1056 665 c 257
 1244 290 l 257
 1009 290 l 257
 857 630 l 257
 734 630 l 257
 734 290 l 257
 519 290 l 257
EndSplineSet
EndChar

StartChar: ring
Encoding: 730 730 403
Width: 700
VWidth: 0
GlyphClass: 2
Flags: W
PickledData: "(dp1
S'org.robofab.postScriptHintData'
p2
(dp3
sS'com.typemytype.robofont.layerData'
p4
(dp5
S'b'
(dp6
S'name'
p7
S'ring'
p8
sS'lib'
p9
(dp10
sS'unicodes'
p11
(tsS'width'
p12
F633.35000000000002
sS'contours'
p13
(tsS'components'
p14
(tsS'anchors'
p15
(tsss."
LayerCount: 2
Fore
SplineSet
338 1153 m 256
 216 1153 118 1243 118 1366 c 256
 118 1490 216 1579 338 1579 c 256
 459 1579 559 1490 559 1366 c 256
 559 1243 459 1153 338 1153 c 256
339 1257 m 256
 398 1257 446 1306 446 1366 c 256
 446 1426 398 1474 339 1474 c 256
 281 1474 233 1426 233 1366 c 256
 233 1306 281 1257 339 1257 c 256
EndSplineSet
EndChar

StartChar: s
Encoding: 115 115 405
Width: 988
VWidth: 0
GlyphClass: 2
Flags: W
PickledData: "(dp1
S'org.robofab.postScriptHintData'
p2
(dp3
sS'com.typemytype.robofont.layerData'
p4
(dp5
S'b'
(dp6
S'name'
p7
S's'
sS'lib'
p8
(dp9
sS'unicodes'
p10
(tsS'width'
p11
F981.89999999999998
sS'contours'
p12
((dp13
S'points'
p14
((dp15
S'segmentType'
p16
S'curve'
p17
sS'x'
F498
sS'smooth'
p18
I01
sS'y'
F-23
s(dp19
S'y'
F-23
sS'x'
F282
sg18
I00
s(dp20
S'y'
F70
sS'x'
F145
sg18
I00
s(dp21
g16
S'curve'
p22
sS'x'
F116
sg18
I00
sS'y'
F94
s(dp23
g16
S'line'
p24
sS'x'
F160
sg18
I00
sS'y'
F222
s(dp25
S'y'
F189
sS'x'
F208
sg18
I00
s(dp26
S'y'
F109
sS'x'
F348
sg18
I00
s(dp27
g16
S'curve'
p28
sS'x'
F484
sg18
I01
sS'y'
F109
s(dp29
S'y'
F109
sS'x'
F589
sg18
I00
s(dp30
S'y'
F141
sS'x'
F711
sg18
I00
s(dp31
g16
S'curve'
p32
sS'x'
F711
sg18
I01
sS'y'
F272
s(dp33
S'y'
F395
sS'x'
F711
sg18
I00
s(dp34
S'y'
F426
sS'x'
F561
sg18
I00
s(dp35
g16
S'curve'
p36
sS'x'
F412
sg18
I00
sS'y'
F474
s(dp37
S'y'
F521
sS'x'
F262
sg18
I00
s(dp38
S'y'
F585
sS'x'
F112
sg18
I00
s(dp39
g16
S'curve'
p40
sS'x'
F112
sg18
I01
sS'y'
F771
s(dp41
S'y'
F970
sS'x'
F112
sg18
I00
s(dp42
S'y'
F1051
sS'x'
F318
sg18
I00
s(dp43
g16
S'curve'
p44
sS'x'
F488
sg18
I01
sS'y'
F1051
s(dp45
S'y'
F1051
sS'x'
F715
sg18
I00
s(dp46
S'y'
F991
sS'x'
F792
sg18
I00
s(dp47
g16
S'curve'
p48
sS'x'
F832
sg18
I00
sS'y'
F966
s(dp49
g16
S'line'
p50
sS'x'
F785
sg18
I00
sS'y'
F851
s(dp51
S'y'
F858
sS'x'
F772
sg18
I00
s(dp52
S'y'
F917
sS'x'
F667
sg18
I00
s(dp53
g16
S'curve'
p54
sS'x'
F504
sg18
I01
sS'y'
F917
s(dp55
S'y'
F917
sS'x'
F355
sg18
I00
s(dp56
S'y'
F882
sS'x'
F283
sg18
I00
s(dp57
g16
S'curve'
p58
sS'x'
F283
sg18
I01
sS'y'
F774
s(dp59
S'y'
F660
sS'x'
F283
sg18
I00
s(dp60
S'y'
F629
sS'x'
F433
sg18
I00
s(dp61
g16
S'curve'
p62
sS'x'
F582
sg18
I01
sS'y'
F581
s(dp63
S'y'
F533
sS'x'
F732
sg18
I00
s(dp64
S'y'
F468
sS'x'
F881
sg18
I00
s(dp65
g16
S'curve'
p66
sS'x'
F881
sg18
I01
sS'y'
F284
s(dp67
S'y'
F62
sS'x'
F881
sg18
I00
s(dp68
S'y'
F-23
sS'x'
F685
sg18
I00
stp69
stp70
sS'components'
p71
(tsS'anchors'
p72
(tsss."
LayerCount: 2
Fore
SplineSet
534 -23 m 256
 340 -23 185 43 106 106 c 257
 168 284 l 257
 251 219 392 172 512 172 c 256
 618 172 680 204 680 291 c 258
 680 309 l 258
 680 345 671 372 540 415 c 258
 394 462 l 258
 228 516 117 570 117 753 c 256
 117 969 295 1050 497 1050 c 256
 623 1050 763 1018 865 951 c 257
 801 781 l 257
 724 822 605 857 515 857 c 256
 403 857 354 832 354 767 c 256
 354 707 373 688 538 633 c 258
 671 588 l 257
 819 539 907 473 907 290 c 256
 907 53 706 -23 534 -23 c 256
EndSplineSet
EndChar

StartChar: section
Encoding: 167 167 412
Width: 1104
VWidth: 0
GlyphClass: 2
Flags: W
PickledData: "(dp1
S'org.robofab.postScriptHintData'
p2
(dp3
sS'com.typemytype.robofont.layerData'
p4
(dp5
S'b'
(dp6
S'name'
p7
S'section'
p8
sS'lib'
p9
(dp10
sS'unicodes'
p11
(tsS'width'
p12
F1071.6500000000001
sS'contours'
p13
(tsS'components'
p14
(tsS'anchors'
p15
(tsss."
LayerCount: 2
Fore
SplineSet
643 592 m 257
 661 616 674 640 674 685 c 256
 674 766 608 782 484 839 c 257
 470 829 425 788 425 733 c 256
 425 666 497 657 643 592 c 257
522 -61 m 256
 412 -61 298 -41 187 0 c 257
 187 209 l 257
 273 175 406 144 512 144 c 256
 597 144 667 177 667 256 c 256
 667 303 610 330 379 442 c 256
 253 501 171 595 171 712 c 256
 171 804 220 885 301 943 c 257
 226 1002 194 1073 194 1179 c 256
 194 1386 371 1481 583 1481 c 256
 678 1481 784 1464 882 1431 c 257
 882 1229 l 257
 827 1240 718 1288 616 1288 c 256
 543 1288 467 1259 467 1193 c 256
 467 1133 543 1077 683 1012 c 257
 822 939 949 868 949 722 c 256
 949 630 899 558 820 493 c 257
 897 448 940 366 940 262 c 256
 940 40 748 -61 522 -61 c 256
EndSplineSet
EndChar

StartChar: semicolon
Encoding: 59 59 413
Width: 539
VWidth: 0
GlyphClass: 2
Flags: W
PickledData: "(dp1
S'org.robofab.postScriptHintData'
p2
(dp3
sS'com.typemytype.robofont.layerData'
p4
(dp5
s."
LayerCount: 2
Fore
SplineSet
179 900 m 257
 179 1171 l 257
 431 1171 l 257
 431 900 l 257
 179 900 l 257
66 -229 m 257
 174 268 l 257
 454 268 l 257
 276 -229 l 257
 66 -229 l 257
EndSplineSet
EndChar

StartChar: seven
Encoding: 55 55 414
Width: 1272
VWidth: 0
GlyphClass: 2
Flags: W
PickledData: "(dp1
S'org.robofab.postScriptHintData'
p2
(dp3
sS'com.typemytype.robofont.layerData'
p4
(dp5
s."
LayerCount: 2
Fore
SplineSet
313 0 m 257
 864 1248 l 257
 145 1248 l 257
 145 1456 l 257
 1158 1456 l 257
 1158 1262 l 257
 585 0 l 257
 313 0 l 257
EndSplineSet
EndChar

StartChar: six
Encoding: 54 54 415
Width: 1272
VWidth: 0
GlyphClass: 2
Flags: W
PickledData: "(dp1
S'org.robofab.postScriptHintData'
p2
(dp3
sS'com.typemytype.robofont.layerData'
p4
(dp5
s."
LayerCount: 2
Fore
SplineSet
680 194 m 256
 826 194 922 316 922 473 c 256
 922 630 845 754 695 754 c 256
 532 754 434 633 434 469 c 256
 434 296 565 194 680 194 c 256
687 -23 m 256
 329 -23 152 267 152 698 c 256
 152 1128 356 1483 740 1483 c 256
 889 1483 1015 1441 1110 1353 c 257
 1026 1164 l 257
 938 1233 846 1266 742 1266 c 256
 556 1266 429 1067 419 810 c 257
 501 926 609 962 709 962 c 256
 999 962 1183 773 1183 476 c 256
 1183 191 991 -23 687 -23 c 256
EndSplineSet
EndChar

StartChar: slash
Encoding: 47 47 416
Width: 684
VWidth: 0
GlyphClass: 2
Flags: W
PickledData: "(dp1
S'org.robofab.postScriptHintData'
p2
(dp3
sS'com.typemytype.robofont.layerData'
p4
(dp5
s."
LayerCount: 2
Fore
SplineSet
-81 -237 m 257
 564 1456 l 257
 784 1456 l 257
 134 -237 l 257
 -81 -237 l 257
EndSplineSet
EndChar

StartChar: uni00AD
Encoding: 173 173 418
Width: 739
VWidth: 0
GlyphClass: 2
Flags: W
PickledData: "(dp1
S'org.robofab.postScriptHintData'
p2
(dp3
s."
LayerCount: 2
Fore
SplineSet
54 457 m 257
 54 647 l 257
 686 647 l 257
 686 457 l 257
 54 457 l 257
EndSplineSet
EndChar

StartChar: sterling
Encoding: 163 163 420
Width: 1255
VWidth: 0
GlyphClass: 2
Flags: W
PickledData: "(dp1
S'org.robofab.postScriptHintData'
p2
(dp3
sS'com.typemytype.robofont.layerData'
p4
(dp5
S'b'
(dp6
S'name'
p7
S'sterling'
p8
sS'lib'
p9
(dp10
sS'unicodes'
p11
(tsS'width'
p12
F1207.3
sS'contours'
p13
(tsS'components'
p14
(tsS'anchors'
p15
(tsss."
LayerCount: 2
Fore
SplineSet
1091 1219 m 257
 1005 1258 924 1282 830 1282 c 256
 658 1282 579 1193 579 949 c 258
 579 842 l 257
 917 842 l 257
 917 649 l 257
 578 649 l 257
 578 618 l 258
 578 436 567 292 503 204 c 257
 1178 204 l 257
 1178 0 l 257
 146 0 l 257
 146 186 l 257
 220 258 331 324 331 622 c 258
 331 649 l 257
 146 649 l 257
 146 842 l 257
 328 842 l 257
 328 892 l 258
 328 1215 409 1484 814 1484 c 256
 943 1484 1056 1463 1152 1411 c 257
 1091 1219 l 257
EndSplineSet
EndChar

StartChar: summation
Encoding: 8721 8721 421
Width: 1262
VWidth: 0
GlyphClass: 2
Flags: W
PickledData: "(dp1
S'org.robofab.postScriptHintData'
p2
(dp3
sS'com.typemytype.robofont.layerData'
p4
(dp5
S'b'
(dp6
S'name'
p7
S'summation'
p8
sS'lib'
p9
(dp10
sS'unicodes'
p11
(tsS'width'
p12
F1198.3
sS'contours'
p13
(tsS'components'
p14
(tsS'anchors'
p15
(tsss."
LayerCount: 2
Fore
SplineSet
82 -267 m 257
 82 -134 l 257
 601 604 l 257
 104 1328 l 257
 104 1456 l 257
 1170 1456 l 257
 1170 1252 l 257
 477 1252 l 257
 906 606 l 257
 464 -55 l 257
 1212 -55 l 257
 1212 -267 l 257
 82 -267 l 257
EndSplineSet
EndChar

StartChar: t
Encoding: 116 116 422
Width: 804
VWidth: 0
GlyphClass: 2
Flags: W
PickledData: "(dp1
S'org.robofab.postScriptHintData'
p2
(dp3
sS'com.typemytype.robofont.layerData'
p4
(dp5
S'b'
(dp6
S'name'
p7
S't'
sS'lib'
p8
(dp9
sS'unicodes'
p10
(tsS'width'
p11
F763.89999999999998
sS'contours'
p12
(tsS'components'
p13
(tsS'anchors'
p14
(tsss."
AnchorPoint: "caron.alt" 267 1360 basechar 0
LayerCount: 2
Fore
SplineSet
738 1 m 257
 638 1 l 258
 384 1 215 42 215 376 c 258
 215 860 l 257
 1 860 l 257
 1 1026 l 257
 225 1026 l 257
 225 1266 l 257
 462 1339 l 257
 462 1026 l 257
 730 1026 l 257
 730 860 l 257
 462 860 l 257
 462 361 l 258
 462 206 508 191 738 191 c 257
 738 1 l 257
EndSplineSet
EndChar

StartChar: thorn
Encoding: 254 254 427
Width: 1229
VWidth: 0
GlyphClass: 2
Flags: W
PickledData: "(dp1
S'org.robofab.postScriptHintData'
p2
(dp3
sS'com.typemytype.robofont.layerData'
p4
(dp5
s."
LayerCount: 2
Fore
SplineSet
618 177 m 256
 794 177 868 340 868 521 c 256
 868 691 809 849 627 849 c 256
 438 849 373 680 373 494 c 256
 373 312 456 177 618 177 c 256
140 -395 m 257
 140 1464 l 257
 378 1464 l 257
 375 948 l 257
 434 1012 569 1051 646 1051 c 256
 963 1051 1128 808 1128 525 c 256
 1128 240 968 -23 644 -23 c 256
 544 -23 442 16 372 62 c 257
 371 -395 l 257
 140 -395 l 257
EndSplineSet
EndChar

StartChar: three
Encoding: 51 51 428
Width: 1272
VWidth: 0
GlyphClass: 2
Flags: W
PickledData: "(dp1
S'org.robofab.postScriptHintData'
p2
(dp3
sS'com.typemytype.robofont.layerData'
p4
(dp5
S'b'
(dp6
S'name'
p7
S'three'
p8
sS'lib'
p9
(dp10
sS'unicodes'
p11
(tsS'width'
p12
F1234.0999999999999
sS'contours'
p13
((dp14
S'points'
p15
((dp16
S'segmentType'
p17
S'curve'
p18
sS'x'
F344
sS'smooth'
p19
I01
sS'y'
F1010
s(dp20
S'y'
F827
sS'x'
F344
sg19
I00
s(dp21
S'y'
F687
sS'x'
F423
sg19
I00
s(dp22
g17
S'curve'
p23
sS'x'
F634
sg19
I01
sS'y'
F687
s(dp24
S'y'
F687
sS'x'
F814
sg19
I00
s(dp25
S'y'
F803
sS'x'
F938
sg19
I00
s(dp26
g17
S'curve'
p27
sS'x'
F938
sg19
I01
sS'y'
F991
s(dp28
S'y'
F1166
sS'x'
F938
sg19
I00
s(dp29
S'y'
F1334
sS'x'
F845
sg19
I00
s(dp30
g17
S'curve'
p31
sS'x'
F635
sg19
I01
sS'y'
F1334
s(dp32
S'y'
F1334
sS'x'
F449
sg19
I00
s(dp33
S'y'
F1196
sS'x'
F344
sg19
I00
stp34
s(dp35
g15
((dp36
g17
S'curve'
p37
sS'x'
F594
sg19
I01
sS'y'
F-24
s(dp38
S'y'
F-24
sS'x'
F473
sg19
I00
s(dp39
S'y'
F-1
sS'x'
F367
sg19
I00
s(dp40
g17
S'curve'
p41
sS'x'
F238
sg19
I00
sS'y'
F65
s(dp42
g17
S'line'
p43
sS'x'
F287
sg19
I00
sS'y'
F197
s(dp44
S'y'
F138
sS'x'
F401
sg19
I00
s(dp45
S'y'
F124
sS'x'
F489
sg19
I00
s(dp46
g17
S'curve'
p47
sS'x'
F581
sg19
I01
sS'y'
F124
s(dp48
S'y'
F124
sS'x'
F812
sg19
I00
s(dp49
S'y'
F308
sS'x'
F950
sg19
I00
s(dp50
g17
S'curve'
p51
sS'x'
F950
sg19
I01
sS'y'
F657
s(dp52
g17
S'line'
p53
sS'x'
F950
sg19
I00
sS'y'
F722
s(dp54
S'y'
F600
sS'x'
F886
sg19
I00
s(dp55
S'y'
F544
sS'x'
F772
sg19
I00
s(dp56
g17
S'curve'
p57
sS'x'
F607
sg19
I01
sS'y'
F544
s(dp58
S'y'
F544
sS'x'
F328
sg19
I00
s(dp59
S'y'
F735
sS'x'
F168
sg19
I00
s(dp60
g17
S'curve'
p61
sS'x'
F168
sg19
I01
sS'y'
F1004
s(dp62
S'y'
F1275
sS'x'
F168
sg19
I00
s(dp63
S'y'
F1483
sS'x'
F341
sg19
I00
s(dp64
g17
S'curve'
p65
sS'x'
F643
sg19
I01
sS'y'
F1483
s(dp66
S'y'
F1483
sS'x'
F969
sg19
I00
s(dp67
S'y'
F1231
sS'x'
F1125
sg19
I00
s(dp68
g17
S'curve'
p69
sS'x'
F1125
sg19
I01
sS'y'
F774
s(dp70
S'y'
F203
sS'x'
F1125
sg19
I00
s(dp71
S'y'
F-24
sS'x'
F894
sg19
I00
stp72
stp73
sS'components'
p74
(tsS'anchors'
p75
(tsss."
LayerCount: 2
Fore
SplineSet
622 -23 m 256
 326 -23 167 100 167 100 c 257
 244 291 l 257
 253 285 408 194 579 194 c 256
 761 194 858 283 858 424 c 256
 858 581 712 651 490 651 c 258
 458 651 l 257
 394 649 l 257
 392 864 l 257
 464 864 l 258
 719 864 817 920 817 1097 c 256
 817 1211 688 1266 569 1266 c 256
 402 1266 310 1187 262 1160 c 257
 149 1343 l 257
 290 1437 380 1483 603 1483 c 256
 842 1483 1072 1360 1072 1103 c 256
 1072 957 993 794 800 765 c 257
 996 729 1106 583 1106 413 c 256
 1106 138 880 -23 622 -23 c 256
243.25 291 m 257
 244 291 l 257
 243.25 291 l 257
EndSplineSet
EndChar

StartChar: threequarters
Encoding: 190 190 429
Width: 2534
VWidth: 0
GlyphClass: 2
Flags: W
PickledData: "(dp1
S'org.robofab.postScriptHintData'
p2
(dp3
sS'com.typemytype.robofont.layerData'
p4
(dp5
s."
LayerCount: 2
Fore
SplineSet
1582 329 m 257
 1760 329 l 257
 1760 583 l 257
 1582 329 l 257
650 0 m 257
 1535 1456 l 257
 1748 1456 l 257
 864 0 l 257
 650 0 l 257
1762 1 m 257
 1762 195 l 257
 1393 195 l 257
 1393 308 l 257
 1761 814 l 257
 1942 814 l 257
 1942 329 l 257
 2057 329 l 257
 2057 195 l 257
 1942 195 l 257
 1942 1 l 257
 1762 1 l 257
536 603 m 256
 435 603 324 636 239 697 c 257
 300 832 l 257
 389 778 464 756 521 756 c 256
 606 756 654 803 654 875 c 256
 654 937 595 984 496 984 c 258
 404 984 l 257
 404 1127 l 257
 494 1127 l 258
 572 1127 632 1165 632 1220 c 256
 632 1288 583 1316 510 1316 c 256
 450 1316 369 1295 289 1250 c 257
 228 1376 l 257
 328 1432 443 1462 543 1462 c 256
 693 1462 813 1396 813 1246 c 256
 813 1186 793 1107 674 1070 c 257
 805 1038 844 949 844 872 c 256
 844 684 697 603 536 603 c 256
EndSplineSet
EndChar

StartChar: uni00B3
Encoding: 179 179 430
Width: 909
VWidth: 0
GlyphClass: 2
Flags: W
PickledData: "(dp1
S'org.robofab.postScriptHintData'
p2
(dp3
sS'com.typemytype.robofont.layerData'
p4
(dp5
s."
LayerCount: 2
Fore
SplineSet
502 604 m 256
 400 604 290 637 203 697 c 257
 265 831 l 257
 356 778 429 756 486 756 c 256
 570 756 618 807 618 878 c 256
 618 937 562 984 465 984 c 258
 370 984 l 257
 370 1126 l 257
 463 1126 l 258
 539 1126 597 1169 597 1221 c 256
 597 1287 545 1320 473 1320 c 256
 414 1320 335 1299 253 1255 c 257
 192 1378 l 257
 294 1434 408 1463 510 1463 c 256
 660 1463 782 1399 782 1249 c 256
 782 1190 758 1113 645 1073 c 257
 774 1038 813 951 813 875 c 256
 813 684 663 604 502 604 c 256
EndSplineSet
EndChar

StartChar: tilde
Encoding: 732 732 431
Width: 739
VWidth: 0
GlyphClass: 2
Flags: W
PickledData: "(dp1
S'org.robofab.postScriptHintData'
p2
(dp3
sS'com.typemytype.robofont.layerData'
p4
(dp5
S'b'
(dp6
S'name'
p7
S'tilde'
p8
sS'lib'
p9
(dp10
sS'unicodes'
p11
(tsS'width'
p12
F672.35000000000002
sS'contours'
p13
(tsS'components'
p14
(tsS'anchors'
p15
(tsss."
LayerCount: 2
Fore
SplineSet
515 1174 m 258
 514 1174 l 258
 416 1174 287 1281 226 1281 c 256
 201 1281 165 1255 158 1179 c 257
 -2 1179 l 257
 -2 1350 87 1470 216 1470 c 256
 334 1470 445 1371 501 1363 c 256
 506 1363 511 1362 516 1362 c 256
 550 1362 579 1379 578 1470 c 257
 740 1470 l 257
 740 1266 650 1175 515 1174 c 258
EndSplineSet
EndChar

StartChar: trademark
Encoding: 8482 8482 432
Width: 1869
VWidth: 0
GlyphClass: 2
Flags: W
PickledData: "(dp1
S'org.robofab.postScriptHintData'
p2
(dp3
sS'com.typemytype.robofont.layerData'
p4
(dp5
S'b'
(dp6
S'name'
p7
S'trademark'
p8
sS'lib'
p9
(dp10
sS'unicodes'
p11
(tsS'width'
p12
F1869
sS'contours'
p13
(tsS'components'
p14
(tsS'anchors'
p15
(tsss."
LayerCount: 2
Fore
SplineSet
289 628 m 257
 289 1242 l 257
 73 1242 l 257
 73 1412 l 257
 707 1412 l 257
 707 1242 l 257
 483 1242 l 257
 483 628 l 257
 289 628 l 257
805 628 m 257
 805 1412 l 257
 1033 1412 l 257
 1260 922 l 257
 1483 1412 l 257
 1712 1412 l 257
 1712 628 l 257
 1514 628 l 257
 1514 1075 l 257
 1320 628 l 257
 1198 628 l 257
 998 1064 l 257
 998 628 l 257
 805 628 l 257
EndSplineSet
EndChar

StartChar: two
Encoding: 50 50 433
Width: 1272
VWidth: 0
GlyphClass: 2
Flags: W
PickledData: "(dp1
S'org.robofab.postScriptHintData'
p2
(dp3
sS'com.typemytype.robofont.layerData'
p4
(dp5
S'b'
(dp6
S'name'
p7
S'two'
p8
sS'lib'
p9
(dp10
sS'unicodes'
p11
(tsS'width'
p12
F1244.5
sS'contours'
p13
(tsS'components'
p14
(tsS'anchors'
p15
(tsss."
LayerCount: 2
Fore
SplineSet
600 1481 m 256
 859 1481 1044 1322 1044 1008 c 256
 1044 778 913 643 790 513 c 258
 500 208 l 257
 1033 208 l 257
 1033 0 l 257
 189 0 l 257
 189 183 l 257
 610 651 l 258
 736 791 803 862 803 995 c 256
 803 1019 800 1046 796 1075 c 256
 771 1226 683 1266 578 1266 c 256
 405 1266 212 1138 211 1138 c 258
 126 1337 l 257
 126 1337 320 1481 600 1481 c 256
EndSplineSet
EndChar

StartChar: uni00B2
Encoding: 178 178 434
Width: 1072
VWidth: 0
GlyphClass: 2
Flags: W
PickledData: "(dp1
S'org.robofab.postScriptHintData'
p2
(dp3
sS'com.typemytype.robofont.layerData'
p4
(dp5
s."
LayerCount: 2
Fore
SplineSet
225 613 m 257
 225 795 l 257
 486 1022 l 257
 603 1122 621 1171 621 1201 c 256
 621 1266 577 1287 519 1287 c 256
 452 1287 353 1259 269 1223 c 257
 209 1389 l 257
 317 1439 436 1466 534 1466 c 256
 694 1466 832 1390 832 1203 c 256
 832 1078 732 980 619 886 c 257
 530 813 l 257
 819 813 l 257
 819 613 l 257
 225 613 l 257
EndSplineSet
EndChar

StartChar: u
Encoding: 117 117 435
Width: 1186
VWidth: 0
GlyphClass: 2
Flags: W
PickledData: "(dp1
S'org.robofab.postScriptHintData'
p2
(dp3
sS'com.typemytype.robofont.layerData'
p4
(dp5
S'b'
(dp6
S'name'
p7
S'u'
sS'lib'
p8
(dp9
sS'unicodes'
p10
(tsS'width'
p11
F1227.2
sS'contours'
p12
(tsS'components'
p13
(tsS'anchors'
p14
(tsss."
LayerCount: 2
Fore
SplineSet
524 -23 m 256
 274 -23 130 130 130 376 c 258
 130 1026 l 257
 376 1026 l 257
 376 380 l 258
 376 240 456 177 575 177 c 256
 720 177 793 244 793 411 c 258
 793 1026 l 257
 1041 1026 l 257
 1041 276 l 258
 1041 222 1053 0 1053 0 c 257
 797 0 l 257
 793 152 l 257
 781 103 704 -23 524 -23 c 256
EndSplineSet
EndChar

StartChar: underscore
Encoding: 95 95 446
Width: 1012
VWidth: 0
GlyphClass: 2
Flags: W
PickledData: "(dp1
S'org.robofab.postScriptHintData'
p2
(dp3
sS'com.typemytype.robofont.layerData'
p4
(dp5
s."
LayerCount: 2
Fore
SplineSet
-14 -254 m 257
 -14 -59 l 257
 1025 -59 l 257
 1025 -254 l 257
 -14 -254 l 257
EndSplineSet
EndChar

StartChar: uni0307
Encoding: 775 775 459
Width: 524
VWidth: 0
GlyphClass: 2
Flags: W
PickledData: "(dp1
S'org.robofab.postScriptHintData'
p2
(dp3
s."
LayerCount: 2
Fore
SplineSet
136 1153 m 257
 136 1386 l 257
 388 1386 l 257
 388 1153 l 257
 136 1153 l 257
EndSplineSet
EndChar

StartChar: uni030F
Encoding: 783 783 460
Width: 969
VWidth: 0
GlyphClass: 2
Flags: W
PickledData: "(dp1
S'org.robofab.postScriptHintData'
p2
(dp3
s."
LayerCount: 2
Fore
SplineSet
561 1152 m 257
 352 1496 l 257
 56 1496 l 257
 374 1152 l 257
 561 1152 l 257
899 1152 m 257
 746 1496 l 257
 482 1496 l 257
 720 1152 l 257
 899 1152 l 257
EndSplineSet
EndChar

StartChar: uni0311
Encoding: 785 785 461
Width: 629
VWidth: 0
GlyphClass: 2
Flags: W
PickledData: "(dp1
S'org.robofab.postScriptHintData'
p2
(dp3
sS'com.typemytype.robofont.layerData'
p4
(dp5
s."
LayerCount: 2
Fore
SplineSet
-14 1151 m 257
 0 1361 105 1454 314 1454 c 256
 522 1454 628 1360 642 1151 c 257
 455 1151 l 257
 447 1250 370 1267 312 1267 c 256
 256 1267 180 1251 175 1151 c 257
 -14 1151 l 257
EndSplineSet
EndChar

StartChar: uni0312
Encoding: 786 786 462
Width: 600
VWidth: 0
GlyphClass: 2
Flags: W
PickledData: "(dp1
S'org.robofab.postScriptHintData'
p2
(dp3
s."
LayerCount: 2
Fore
SplineSet
582 1736 m 257
 470 1239 l 257
 192 1239 l 257
 372 1736 l 257
 582 1736 l 257
EndSplineSet
EndChar

StartChar: uni0326
Encoding: 806 806 463
Width: 540
VWidth: 0
GlyphClass: 2
Flags: W
PickledData: "(dp1
S'org.robofab.postScriptHintData'
p2
(dp3
s."
LayerCount: 2
Fore
SplineSet
74 -647 m 257
 187 -142 l 257
 466 -142 l 257
 286 -647 l 257
 74 -647 l 257
EndSplineSet
EndChar

StartChar: afii00208
Encoding: 8213 8213 464
Width: 4095
VWidth: 0
GlyphClass: 2
Flags: W
PickledData: "(dp1
S'org.robofab.postScriptHintData'
p2
(dp3
s."
LayerCount: 2
Fore
SplineSet
54 453 m 257
 54 641 l 257
 4041 641 l 257
 4041 453 l 257
 54 453 l 257
EndSplineSet
EndChar

StartChar: v
Encoding: 118 118 469
Width: 1126
VWidth: 0
GlyphClass: 2
Flags: W
PickledData: "(dp1
S'org.robofab.postScriptHintData'
p2
(dp3
sS'com.typemytype.robofont.layerData'
p4
(dp5
S'b'
(dp6
S'name'
p7
S'v'
sS'lib'
p8
(dp9
sS'unicodes'
p10
(tsS'width'
p11
F1056.8
sS'contours'
p12
(tsS'components'
p13
(tsS'anchors'
p14
(tsss."
LayerCount: 2
Fore
SplineSet
449 0 m 257
 17 1026 l 257
 293 1026 l 257
 386 776 477 525 572 277 c 257
 663 525 752 776 841 1026 c 257
 1110 1026 l 257
 674 0 l 257
 449 0 l 257
EndSplineSet
EndChar

StartChar: w
Encoding: 119 119 470
Width: 1685
VWidth: 0
GlyphClass: 2
Flags: W
PickledData: "(dp1
S'org.robofab.postScriptHintData'
p2
(dp3
sS'com.typemytype.robofont.layerData'
p4
(dp5
S'b'
(dp6
S'name'
p7
S'w'
sS'lib'
p8
(dp9
sS'unicodes'
p10
(tsS'width'
p11
F1634.0999999999999
sS'contours'
p12
(tsS'components'
p13
(tsS'anchors'
p14
(tsss."
LayerCount: 2
Fore
SplineSet
386 0 m 257
 14 1026 l 257
 278 1026 l 257
 356 786 434 546 512 305 c 257
 591 547 673 786 754 1026 c 257
 970 1026 l 257
 1047 785 1123 543 1201 303 c 257
 1279 546 1360 785 1440 1026 c 257
 1671 1026 l 257
 1282 0 l 257
 1075 0 l 257
 997 233 918 464 842 698 c 257
 760 464 677 233 594 0 c 257
 386 0 l 257
EndSplineSet
EndChar

StartChar: x
Encoding: 120 120 475
Width: 1040
VWidth: 0
GlyphClass: 2
Flags: W
PickledData: "(dp1
S'org.robofab.postScriptHintData'
p2
(dp3
sS'com.typemytype.robofont.layerData'
p4
(dp5
S'b'
(dp6
S'name'
p7
S'x'
sS'lib'
p8
(dp9
sS'unicodes'
p10
(tsS'width'
p11
F1062.8499999999999
sS'contours'
p12
(tsS'components'
p13
(tsS'anchors'
p14
(tsssS'com.fontlab.hintData'
p15
(dp16
S'hhints'
p17
((dp18
S'position'
p19
I0
sg11
I21
s(dp20
g19
I1006
sg11
I20
stp21
ss."
HStem: 0 21<11 11 11 272 754 754 754 1029> 1006 20<28 304 304 304 771 1027 1027 1027>
LayerCount: 2
Fore
SplineSet
11 0 m 257
 381 500 l 257
 28 1026 l 257
 304 1026 l 257
 525 695 l 257
 771 1026 l 257
 1027 1026 l 257
 665 534 l 257
 1029 0 l 257
 754 0 l 257
 522 339 l 257
 272 0 l 257
 11 0 l 257
EndSplineSet
EndChar

StartChar: y
Encoding: 121 121 476
Width: 1114
VWidth: 0
GlyphClass: 2
Flags: W
PickledData: "(dp1
S'org.robofab.postScriptHintData'
p2
(dp3
sS'com.typemytype.robofont.layerData'
p4
(dp5
S'b'
(dp6
S'name'
p7
S'y'
sS'lib'
p8
(dp9
sS'unicodes'
p10
(tsS'width'
p11
F1065.05
sS'contours'
p12
(tsS'components'
p13
(tsS'anchors'
p14
(tsss."
LayerCount: 2
Fore
SplineSet
254 -445 m 257
 150 -277 l 257
 334 -205 420 -136 452 -27 c 257
 466 23 l 257
 30 1026 l 257
 288 1026 l 257
 585 290 l 257
 841 1026 l 257
 1094 1026 l 257
 678 -56 l 257
 589 -278 421 -393 254 -445 c 257
EndSplineSet
EndChar

StartChar: yen
Encoding: 165 165 480
Width: 1280
VWidth: 0
GlyphClass: 2
Flags: W
PickledData: "(dp1
S'org.robofab.postScriptHintData'
p2
(dp3
sS'com.typemytype.robofont.layerData'
p4
(dp5
S'b'
(dp6
S'name'
p7
S'yen'
p8
sS'lib'
p9
(dp10
sS'unicodes'
p11
(tsS'width'
p12
F1225.45
sS'contours'
p13
(tsS'components'
p14
(tsS'anchors'
p15
(tsss."
LayerCount: 2
Fore
SplineSet
136 275 m 257
 136 419 l 257
 507 419 l 257
 507 559 l 257
 136 559 l 257
 136 709 l 257
 422 709 l 257
 -12 1456 l 257
 277 1456 l 257
 638 789 l 257
 996 1456 l 257
 1292 1456 l 257
 847 709 l 257
 1131 709 l 257
 1131 559 l 257
 761 559 l 257
 761 419 l 257
 1134 419 l 257
 1134 275 l 257
 761 275 l 257
 761 0 l 257
 507 0 l 257
 507 275 l 257
 136 275 l 257
EndSplineSet
EndChar

StartChar: z
Encoding: 122 122 484
Width: 997
VWidth: 0
GlyphClass: 2
Flags: W
PickledData: "(dp1
S'org.robofab.postScriptHintData'
p2
(dp3
sS'com.typemytype.robofont.layerData'
p4
(dp5
S'b'
(dp6
S'name'
p7
S'z'
sS'lib'
p8
(dp9
sS'unicodes'
p10
(tsS'width'
p11
F971.85000000000002
sS'contours'
p12
(tsS'components'
p13
(tsS'anchors'
p14
(tsss."
LayerCount: 2
Fore
SplineSet
97 0 m 257
 97 131 l 257
 581 828 l 257
 122 828 l 257
 122 1026 l 257
 903 1026 l 257
 903 897 l 257
 415 197 l 257
 929 197 l 257
 929 0 l 257
 97 0 l 257
EndSplineSet
EndChar

StartChar: zero
Encoding: 48 48 488
Width: 1272
VWidth: 0
GlyphClass: 2
Flags: W
PickledData: "(dp1
S'org.robofab.postScriptHintData'
p2
(dp3
sS'com.typemytype.robofont.layerData'
p4
(dp5
s."
LayerCount: 2
Fore
SplineSet
636 -23 m 256
 306 -23 124 284 124 741 c 256
 124 1207 303 1483 638 1483 c 256
 971 1483 1148 1191 1148 741 c 256
 1148 287 973 -23 636 -23 c 256
640 194 m 256
 828 194 889 424 889 740 c 256
 889 1007 829 1266 641 1266 c 256
 444 1266 384 1009 384 739 c 256
 384 424 444 194 640 194 c 256
EndSplineSet
EndChar

StartChar: uni0358
Encoding: 856 856 493
Width: 524
VWidth: 0
GlyphClass: 2
Flags: W
LayerCount: 2
Fore
SplineSet
136 1153 m 257
 136 1386 l 257
 388 1386 l 257
 388 1153 l 257
 136 1153 l 257
EndSplineSet
EndChar

StartChar: Sigma
Encoding: 931 931 494
Width: 1262
VWidth: 0
GlyphClass: 2
Flags: W
LayerCount: 2
Fore
SplineSet
82 -267 m 257
 82 -134 l 257
 601 604 l 257
 104 1328 l 257
 104 1456 l 257
 1170 1456 l 257
 1170 1252 l 257
 477 1252 l 257
 906 606 l 257
 464 -55 l 257
 1212 -55 l 257
 1212 -267 l 257
 82 -267 l 257
EndSplineSet
EndChar

StartChar: emptyset
Encoding: 8709 8709 495
Width: 1678
VWidth: 0
GlyphClass: 2
Flags: W
LayerCount: 2
Fore
SplineSet
82 733 m 256
 82 1166.81 442.21 1503 832 1503 c 256
 1004.35 1503 1170.58 1436.64 1301.25 1328.04 c 257
 1477.32 1526 l 257
 1561.73 1459.84 l 257
 1377.81 1254.59 l 257
 1502.33 1118.61 1582 936.913 1582 733 c 256
 1582 299.191 1221.79 -37 832 -37 c 256
 663.656 -37 500.761 26.9148 372.04 130.365 c 257
 179.247 -85.523 l 257
 102.838 -16.2768 l 257
 295.927 200.949 l 257
 164.974 338.947 82 524.062 82 733 c 256
441.112 207.214 m 257
 554.498 117.635 690.831 67 832 67 c 256
 1166.18 67 1479 357.799 1479 733 c 256
 1479 906.121 1412.21 1060.44 1308.46 1177.5 c 257
 441.112 207.214 l 257
364.991 277.959 m 257
 1232.31 1251.19 l 257
 1118.11 1345.21 977.209 1399 832 1399 c 256
 497.816 1399 185 1108.2 185 733 c 256
 185 554.76 255.942 395.125 364.991 277.959 c 257
EndSplineSet
EndChar

StartChar: uni02C9
Encoding: 713 713 496
Width: 600
VWidth: 0
GlyphClass: 2
Flags: W
LayerCount: 2
Fore
SplineSet
-50 1339 m 257
 636 1339 l 257
 636 1506 l 257
 -50 1506 l 257
 -50 1339 l 257
EndSplineSet
EndChar

